<svg width="176" height="29" viewBox="0 0 176 29" fill="none" xmlns="http://www.w3.org/2000/svg">
<path fill-rule="evenodd" clip-rule="evenodd" d="M104.702 1.81177H115.186C120.649 1.81177 122.054 5.72216 122.054 8.34815C122.054 12.0096 120.547 13.045 119.605 13.5627C122.345 14.7512 123.356 17.3001 123.356 19.8313C123.356 21.8438 122.602 23.7594 121.42 25.0844C120.153 26.5021 118.937 27.3833 114.363 27.3833H104.702V1.81177ZM109.362 22.9927H115.117C117.379 22.9927 118.698 21.8428 118.698 19.2553C118.698 17.0137 117.019 16.1688 115.324 16.1688H109.363L109.362 22.9927ZM109.362 11.7992H114.277C116.11 11.7992 117.566 10.9752 117.566 8.94294C117.566 6.85336 116.265 6.22108 114.157 6.22108H109.362V11.7992Z" fill="black"/>
<path fill-rule="evenodd" clip-rule="evenodd" d="M145.582 1C142.618 1 135.048 2.45622 135.048 14.4186C135.048 18.081 135.75 20.7445 136.813 22.6997H128.933V1.72809H124V27.2621H138.61V25.0955C140.992 27.4153 143.973 27.8559 145.582 27.8559C148.529 27.8559 156.134 26.3997 156.134 14.4175C156.134 2.45725 148.529 1 145.582 1ZM145.582 23.3528C143.064 23.3528 139.724 21.5685 139.724 14.4186C139.724 7.28738 143.064 5.50513 145.582 5.50513C148.1 5.50513 151.44 7.28738 151.44 14.4186C151.44 21.5685 148.1 23.3528 145.582 23.3528Z" fill="black"/>
<path fill-rule="evenodd" clip-rule="evenodd" d="M154.805 1.81177H160.27L165.152 12.9877L169.828 1.81177H175.069L167.601 17.8564V27.3656H162.514V17.7991L154.805 1.81177Z" fill="black"/>
<path fill-rule="evenodd" clip-rule="evenodd" d="M68.834 1.81178H63.3182L56.9461 21.8053C57.1005 21.1355 57.1684 20.4073 57.1684 19.6022C57.1684 15.3074 54.3081 13.7356 51.19 12.8731L45.8623 11.3398C44.9203 11.0909 43.6014 10.5148 43.6014 8.52214C43.6014 6.20236 45.7599 5.45444 47.5758 5.45444C51.756 5.45444 52.1329 8.15755 52.252 9.30753L56.8427 8.96187C56.7403 6.16297 54.5818 0.968203 47.9361 1.04423C40.5187 1.12139 39.1485 6.06706 39.1485 8.90348C39.1485 14.5399 43.0709 15.4597 46.2569 16.4191L48.4488 17.0701C50.881 17.7023 52.5946 18.2398 52.5946 20.2336C52.5946 22.9356 50.0759 23.5502 47.815 23.5502C44.2008 23.5502 43.31 20.8283 43.2756 19.4096L39.1132 19.6399C39.1132 19.6203 39.1132 19.6203 39.1132 19.6006C39.1132 14.9996 35.875 13.5809 32.7579 12.7184L27.3789 11.184C26.4369 10.9352 25.1348 10.5132 25.1348 8.51949C25.1348 6.19972 27.0531 5.4518 28.869 5.4518C33.0491 5.4518 33.4261 8.15491 33.5452 9.30489L38.1358 8.9018C38.0335 6.10286 36.0118 0.965398 29.2292 1.04248C21.8119 1.10075 20.6819 6.06538 20.6819 8.9018C20.6819 14.5382 25.0156 15.4954 28.2361 16.4746L30.12 17.0298C32.5354 17.6621 34.4881 18.2381 34.4881 20.2318C34.4881 22.9339 32.0216 23.5485 29.7598 23.5485C25.4093 23.5485 24.7066 20.8058 24.6722 19.3881L20.2528 19.6952C20.2528 19.7345 20.2528 19.7908 20.2528 19.8471L14.5835 1.79009H9.06764L0.930779 27.3429H5.94954L7.54305 22.0711H15.9703L17.4438 27.3429H22.6347L21.4014 23.4325C22.7371 25.7335 25.4093 27.9575 30.1033 27.9575C31.8503 27.9575 37.3661 27.4408 38.7706 22.2627C39.8326 24.8887 42.5561 27.9575 48.1752 27.9575C49.7845 27.9575 54.6153 27.5158 56.4657 23.3575L55.1645 27.3814H60.2009L61.7934 22.1096H70.2207L71.6941 27.3814H76.8841L68.834 1.81178ZM8.81277 17.6647L11.7419 7.54294H11.8109L14.6367 17.6647H8.81277ZM63.0613 17.7041L65.9905 7.58235H66.0594L68.8862 17.7041H63.0613Z" fill="black"/>
<path fill-rule="evenodd" clip-rule="evenodd" d="M87.4365 27.3656H82.4169L90.5537 1.83154H96.0695L104.12 27.3656H98.9298L97.4564 22.0938H89.0291L87.4365 27.3656ZM90.3136 17.6646H96.1198L93.2939 7.56271H93.226L90.3136 17.6646Z" fill="black"/>
</svg>
