<svg width="176" height="53" viewBox="0 0 176 53" fill="none" xmlns="http://www.w3.org/2000/svg">
<g clip-path="url(#clip0_46_2203)">
<path d="M47.2281 50.6428H45.193L44.6316 52.4285H44.2807L46.1053 47.2856H46.4561L48.2807 52.4285H47.9298L47.2281 50.6428ZM47.1579 50.2856L46.807 49.2856C46.5965 48.6428 46.386 48.1428 46.2456 47.4999C46.0351 48.1428 45.8947 48.7142 45.6842 49.2856L45.3333 50.2856H47.1579Z" fill="#59595C"/>
<path d="M52.8421 51.4286C53.193 51.8571 53.7544 52.1428 54.3158 52.1428C55.0877 52.1428 55.5789 51.7143 55.5789 51.0714C55.5789 50.4286 55.1579 50.2143 54.6667 50L53.8947 49.6428C53.4737 49.4286 52.8421 49.1428 52.8421 48.3571C52.8421 47.6428 53.4737 47.0714 54.3158 47.0714C54.9474 47.0714 55.4386 47.3571 55.7193 47.7143L55.5088 47.9286C55.2281 47.5714 54.807 47.4286 54.3158 47.4286C53.614 47.4286 53.193 47.7857 53.193 48.3571C53.193 48.9286 53.6842 49.2143 54.1053 49.3571L54.8772 49.7143C55.4386 50 55.9298 50.2857 55.9298 51.0714C55.9298 51.8571 55.2982 52.4286 54.3158 52.4286C53.5439 52.4286 52.9825 52.0714 52.6316 51.6428L52.8421 51.4286Z" fill="#59595C"/>
<path d="M58.1754 47.2142H60.9824V47.4999H58.5263V49.4285H60.5614V49.7857H58.5263V52.0714H61.0526V52.3571H58.1754V47.2142Z" fill="#59595C"/>
<path d="M63.3684 47.2142H63.7193L65.8246 50.8571L66.386 51.8571C66.386 51.3571 66.3158 50.8571 66.3158 50.3571V47.2142H66.6667V52.3571H66.3158L64.2105 48.7142L63.6491 47.7142C63.6491 48.2142 63.7193 48.7142 63.7193 49.2142V52.4285H63.3684V47.2142Z" fill="#59595C"/>
<path d="M69.4737 47.2142H69.8246L71.9298 50.8571L72.4912 51.8571C72.4912 51.3571 72.421 50.8571 72.421 50.3571V47.2142H72.7719V52.3571H72.421L70.3158 48.7142L69.7544 47.7142C69.7544 48.2142 69.8246 48.7142 69.8246 49.2142V52.4285H69.4737V47.2142Z" fill="#59595C"/>
<path d="M75.5088 47.2142H78.3158V47.4999H75.8596V49.4285H77.8947V49.7857H75.8596V52.0714H78.386V52.3571H75.5088V47.2142Z" fill="#59595C"/>
<path d="M82.5263 47.1428C83.0877 47.1428 83.5789 47.4285 83.8596 47.7857L83.6491 48C83.3684 47.7142 83.0175 47.5 82.5263 47.5C81.4035 47.5 80.7018 48.4285 80.7018 49.8571C80.7018 51.2857 81.4035 52.2142 82.4561 52.2142C82.9474 52.2142 83.3684 52 83.7193 51.5714L83.9298 51.7857C83.5088 52.2143 83.0877 52.5 82.386 52.5C81.1228 52.5 80.2807 51.4285 80.2807 49.7857C80.3509 48.1428 81.2632 47.1428 82.5263 47.1428Z" fill="#59595C"/>
<path d="M88.4912 50.6428H86.4561L85.8947 52.4285H85.5439L87.3684 47.2856H87.7193L89.5439 52.4285H89.1228L88.4912 50.6428ZM88.421 50.2856L88.0702 49.2856C87.8596 48.6428 87.6491 48.1428 87.5088 47.4999C87.2982 48.1428 87.1579 48.7142 86.9474 49.2856L86.5965 50.2856H88.421Z" fill="#59595C"/>
<path d="M96.1404 47.1428C96.7018 47.1428 97.193 47.4285 97.4737 47.7857L97.2632 48C96.9825 47.7142 96.6316 47.5 96.1404 47.5C95.0175 47.5 94.3158 48.4285 94.3158 49.8571C94.3158 51.2857 95.0175 52.2142 96.0702 52.2142C96.5614 52.2142 96.9825 52 97.3333 51.5714L97.5439 51.7857C97.1228 52.2143 96.7018 52.5 96 52.5C94.7369 52.5 93.8947 51.4285 93.8947 49.7857C93.9649 48.1428 94.807 47.1428 96.1404 47.1428Z" fill="#59595C"/>
<path d="M99.2982 49.7857C99.2982 48.1428 100.14 47.1428 101.404 47.1428C102.596 47.1428 103.509 48.1428 103.509 49.7857C103.509 51.4285 102.667 52.5 101.404 52.5C100.14 52.5 99.2982 51.4285 99.2982 49.7857ZM103.088 49.7857C103.088 48.3571 102.386 47.4285 101.333 47.4285C100.281 47.4285 99.5789 48.3571 99.5789 49.7857C99.5789 51.2142 100.281 52.1428 101.333 52.1428C102.386 52.1428 103.088 51.2142 103.088 49.7857Z" fill="#59595C"/>
<path d="M105.825 47.2142H106.316L107.368 50.2857L107.789 51.4285L108.211 50.2857L109.263 47.2142H109.754V52.3571H109.474V48.9285C109.474 48.4999 109.474 47.9285 109.544 47.4999L109.123 48.6428L108 51.7142H107.719L106.596 48.6428L106.175 47.4999C106.175 47.9285 106.246 48.4999 106.246 48.9285V52.3571H105.895L105.825 47.2142Z" fill="#59595C"/>
<path d="M112.491 47.2142H113.895C115.018 47.2142 115.719 47.5714 115.719 48.6428C115.719 49.6428 115.018 50.1428 113.895 50.1428H112.842V52.3571H112.491V47.2142ZM113.754 49.8571C114.807 49.8571 115.298 49.4999 115.298 48.6428C115.298 47.7857 114.807 47.4999 113.754 47.4999H112.842V49.8571H113.754Z" fill="#59595C"/>
<path d="M119.86 50.6428H117.825L117.263 52.4285H116.912L118.737 47.2856H119.088L120.912 52.4285H120.561L119.86 50.6428ZM119.789 50.2856L119.439 49.2856C119.228 48.6428 119.018 48.1428 118.877 47.4999C118.667 48.1428 118.526 48.7142 118.316 49.2856L117.965 50.2856H119.789Z" fill="#59595C"/>
<path d="M122.877 47.2142H123.228L125.333 50.8571L125.895 51.8571C125.895 51.3571 125.825 50.8571 125.825 50.3571V47.2142H126.175V52.3571H125.825L123.719 48.7142L123.158 47.7142C123.158 48.2142 123.228 48.7142 123.228 49.2142V52.4285H122.877V47.2142Z" fill="#59595C"/>
<path d="M129.754 50.2857L128.211 47.2142H128.561L129.333 48.8571C129.544 49.2142 129.684 49.5714 129.895 49.9999C130.105 49.6428 130.316 49.2857 130.456 48.8571L131.228 47.2142H131.579L130.035 50.2857V52.3571H129.684L129.754 50.2857Z" fill="#59595C"/>
<path d="M17.4035 0.5H33.6842V31.3571H17.4035V0.5Z" fill="#AB1E37"/>
<path d="M111.789 21V16.5H112.842C113.614 16.5 114.597 16.5 115.86 16.4286C117.123 16.4286 118.105 16.3572 118.877 16.3572C120.982 16.3572 122.667 16.5715 124 17C125.263 17.4286 126.386 18.2143 127.298 19.2143C128.211 20.2857 128.632 21.5 128.632 23.0715C128.632 24.1429 128.421 25.1429 128 26.1429C127.579 27.0715 127.018 27.9286 126.316 28.6429C125.614 29.3572 124.842 29.9286 124 30.2857C123.158 30.7143 122.316 31 121.404 31.2143C120.491 31.4286 119.228 31.5 117.684 31.5C117.193 31.5 116.421 31.5 115.579 31.4286C114.386 31.4286 113.614 31.3572 113.263 31.3572C112.982 31.3572 112.561 31.3572 112 31.3572V25.2143L111.789 21ZM114.316 30.3572C115.298 30.5 116.281 30.5715 117.333 30.5715C118.386 30.5715 119.368 30.5 120.211 30.3572C121.053 30.2143 121.754 30 122.316 29.7143C122.877 29.4286 123.509 29 124 28.4286C124.561 27.8572 124.982 27.1429 125.263 26.2857C125.544 25.4286 125.684 24.5 125.684 23.5715C125.684 22.2143 125.404 21.1429 124.842 20.1429C124.281 19.2143 123.439 18.4286 122.246 17.9286C121.123 17.4286 119.509 17.1429 117.474 17.1429C116.421 17.1429 115.368 17.2143 114.246 17.3572C114.246 17.7143 114.175 18.3572 114.175 19.2143L114.105 20.7857V25.0715L114.175 28.3572C114.246 28.9286 114.246 29.5715 114.316 30.3572Z" fill="#231F20"/>
<path d="M82.6667 29.7857C82.6667 29.6429 82.6667 29.4286 82.7368 29.1429C83.6491 30 84.4912 30.3572 85.1228 30.5714C85.3333 30.6429 85.4737 30.6429 85.614 30.7143C85.6842 30.7143 85.8246 30.7857 85.8947 30.7857C86.2456 30.8572 86.6667 30.8572 87.2281 30.8572C88.1403 30.8572 88.9123 30.6429 89.5438 30.2857C90.1754 29.9286 90.4561 29.3572 90.4561 28.7143C90.4561 28.4286 90.386 28.1429 90.1754 27.9286C89.9649 27.7143 89.6842 27.5 89.3333 27.4286C88.9824 27.2857 88.2105 27.1429 87.0175 26.9286C85.8246 26.7143 85.0526 26.5714 84.7719 26.5C84.2807 26.3572 83.8596 26.1429 83.5088 25.9286C83.2281 25.7143 82.9474 25.4286 82.807 25.1429C82.5965 24.7857 82.5263 24.4286 82.5263 24.0714C82.5263 23.5 82.7368 23 83.0877 22.5C83.5088 22 84.0702 21.6429 84.9123 21.3572C85.7544 21.0714 86.5965 20.9286 87.5789 20.9286C88.1403 20.9286 88.8421 21 89.614 21.1429C90.386 21.2857 91.0175 21.4286 91.5088 21.5714C91.4386 22.0714 91.4386 22.5714 91.4386 23.1429C90.386 22.2857 89.2631 21.9286 88.7017 21.7857C88.6316 21.7857 88.4912 21.7143 88.421 21.7143C88.0702 21.6429 87.7193 21.6429 87.2281 21.6429C86.386 21.6429 85.7544 21.8572 85.2631 22.2143C84.7719 22.5714 84.5614 23 84.5614 23.5C84.5614 23.7857 84.6316 24 84.7719 24.2143C84.9123 24.4286 85.1228 24.5714 85.3333 24.7143C85.5438 24.8572 85.8947 24.9286 86.3158 25.0714L88.6316 25.5C89.8246 25.7143 90.5965 25.9286 91.0175 26.0714C91.4386 26.2143 91.7895 26.5 92.0702 26.8572C92.3509 27.2143 92.4912 27.6429 92.4912 28.0714C92.4912 29 92 29.8572 90.9474 30.5714C89.8947 31.2857 88.5614 31.6429 86.807 31.6429C86.0351 31.6429 84.9824 31.5714 83.6491 31.3572C82.9474 31.2857 82.5263 31.1429 82.4561 31.1429C82.386 31.1429 82.386 31.0714 82.386 31.0714C82.386 31 82.386 30.9286 82.386 30.8572C82.5965 30.3572 82.5965 30.0714 82.6667 29.7857Z" fill="#231F20"/>
<path d="M55.0175 17.9286C54.9474 18.0715 54.9474 18.2858 54.8772 18.4286C52.8421 17.0715 51.0877 16.8572 50.6667 16.7858C49.9649 16.7143 49.193 16.6429 48.2807 16.6429C46.9474 16.6429 45.8246 16.7858 44.9123 17.0715C44 17.2858 43.1579 17.7143 42.4561 18.2143C41.7544 18.7143 41.193 19.4286 40.7719 20.2143C40.3509 21.0001 40.0702 22.0715 40.0702 23.2858C40.0702 25.4286 40.9123 27.1429 42.6667 28.5001C44.3509 29.7858 46.6667 30.4286 49.4737 30.4286C50.7368 30.4286 51.9298 30.2858 52.9825 30.0001C53.7544 29.7858 54.4561 29.5001 55.1579 29.1429L55.3684 29.3572L54.807 30.3572C53.7544 30.7858 52.6316 31.0715 51.6491 31.2858C50.5965 31.5001 49.4737 31.5715 48.2807 31.5715C46.8772 31.5715 45.5439 31.4286 44.2807 31.1429C43.0175 30.8572 41.9649 30.5001 41.0526 29.9286C40.1403 29.4286 39.3684 28.8572 38.807 28.2143C38.2456 27.5715 37.7544 26.8572 37.4737 26.1429C37.193 25.3572 36.9825 24.5715 36.9825 23.6429C36.9825 21.3572 38.0351 19.5001 40.0702 18.0001C42.1053 16.5001 44.9123 15.7858 48.4912 15.7858C49.3333 15.7858 50.1053 15.8572 50.807 15.9286C51.5088 16.0001 52.421 16.1429 53.4035 16.3572C54.4561 16.5715 55.0877 16.7143 55.2982 16.7143C55.2982 17.1429 55.1579 17.5001 55.0175 17.9286Z" fill="#231F20"/>
<path d="M68.7719 28.0715V28.9286V29.5715V29.7143L68.8421 31.2143H68.5614C68.1403 31.2143 67.2982 31.2143 66.0351 31.2858C66.1754 30.2143 66.2456 29.2143 66.2456 28.2143V25.5715C66.2456 24.7143 66.1754 24.1429 66.0351 23.7858C65.8947 23.4286 65.5439 23.0715 65.0526 22.7858C64.5614 22.5001 63.9298 22.3572 63.1579 22.3572C62.6667 22.3572 62.1754 22.4286 61.8246 22.5001C61.4035 22.6429 61.0526 22.7858 60.7018 23.0001C60.3509 23.2143 60.0702 23.5001 59.8596 23.7143C59.7193 23.8572 59.6491 24.0001 59.6491 24.2143C59.6491 24.4286 59.6491 24.7858 59.6491 25.3572V26.5715L59.7193 28.4286L59.7895 31.1429C59.2281 31.1429 58.8772 31.1429 58.5263 31.1429C58.2456 31.1429 57.7544 31.1429 57.1228 31.1429V29.8572C57.1228 29.7858 57.1228 29.6429 57.1228 29.5715C57.1228 29.5001 57.193 28.4286 57.193 26.5001V21.0001C57.193 19.7858 57.193 18.5715 57.1228 17.3572C57.0526 16.5001 56.9123 14.8572 56.9123 14.8572C57.8947 14.7143 58.6667 14.5715 59.2281 14.3572C59.3684 14.2858 59.4386 14.2858 59.5088 14.2858C59.5789 14.2858 59.6491 14.2858 59.6491 14.3572C59.7193 14.3572 59.7193 14.4286 59.7193 14.5001C59.7193 14.5715 59.7193 14.6429 59.7193 14.7143V15.0715C59.6491 16.3572 59.6491 17.4286 59.6491 18.2858V19.9286V23.0001C59.7895 22.9286 60.1403 22.7143 60.7719 22.2858L61.8246 21.5715C62.0351 21.4286 62.1053 21.3572 62.2456 21.2858C62.386 21.2143 62.6667 21.1429 63.0175 21.0715C63.5088 21.0001 64 20.9286 64.4211 20.9286C65.2632 20.9286 66.1053 21.0715 66.807 21.4286C67.5789 21.7143 68.1403 22.1429 68.4211 22.5715C68.7018 23.0715 68.8421 23.7143 68.8421 24.6429V26.5001V27.5715L68.7719 28.0715Z" fill="#231F20"/>
<path d="M75.2281 22.1429C74.6667 22.1429 74.1754 22.2143 73.7544 22.2857C73.4737 22.3571 72.7018 22.5714 71.5088 23.4286V23.1429C71.5088 22.8571 71.5088 22.6429 71.5088 22.4286C72.7018 21.8571 73.614 21.4286 74.386 21.2143C74.9474 21.0714 75.579 21 76.2807 21C77.3333 21 78.2456 21.1429 78.9474 21.4286C79.6491 21.7143 80.2105 22.1429 80.5614 22.7143C80.7719 23.1429 80.9123 23.6429 80.9123 24.3571L80.8421 26.2857V27.8571V31.2143H80.7018C80.1404 31.2143 79.4386 31.2143 78.4562 31.2857L78.5263 29.4286C76.6316 30.5 75.5088 31.1429 75.1579 31.2857C74.807 31.4286 74.386 31.5 73.8246 31.5C72.7018 31.5 71.8597 31.2857 71.2281 30.7857C70.5965 30.3571 70.3158 29.7143 70.3158 28.9286C70.3158 28.4286 70.4561 28 70.6667 27.5714C70.8772 27.1429 71.1579 26.8571 71.4386 26.6429C71.7193 26.4286 72.0702 26.2143 72.3509 26.1429C72.9123 25.9286 73.7544 25.7143 74.9474 25.5C76.1404 25.2857 77.3333 25.1429 78.5263 25C78.5263 24.3571 78.4562 23.7857 78.1754 23.4286C77.9649 23.0714 77.5439 22.7143 77.0526 22.5C76.6316 22.2857 76 22.1429 75.2281 22.1429ZM78.6667 25.6429C77.4737 25.7857 76.4211 26 75.579 26.1429C74.7368 26.3571 74.1053 26.5 73.7544 26.7143C73.5439 26.8571 73.3333 27 73.193 27.2857C72.9825 27.6429 72.8421 28 72.8421 28.5C72.8421 29 73.0526 29.4286 73.4035 29.7143C73.7544 30 74.3158 30.1429 75.0176 30.1429C75.6491 30.1429 76.2807 30 76.8421 29.7143C77.4737 29.4286 78.0351 29 78.6667 28.5V25.6429Z" fill="#231F20"/>
<path d="M105.193 29.6429L104.772 30.4286C104.14 30.7143 103.649 30.9286 103.368 31C102.947 31.1429 102.456 31.2857 101.895 31.3571C101.333 31.4286 100.772 31.5 100.14 31.5C98.9474 31.5 97.8246 31.2857 96.8421 30.9286C95.8596 30.5714 95.0877 29.9286 94.5263 29.2143C93.9649 28.4286 93.6842 27.5 93.6842 26.5C93.6842 25.7143 93.8246 24.9286 94.1053 24.2857C94.386 23.6429 94.7368 23.1429 95.0877 22.8571C95.3684 22.6429 95.7895 22.3571 96.3509 22.0714C96.9123 21.7857 97.4737 21.5714 98.0351 21.3571C98.7368 21.1429 99.5789 21 100.421 21C101.474 21 102.386 21.2143 103.228 21.5714C104.07 21.9286 104.702 22.4286 105.053 23.0714C105.474 23.7143 105.614 24.4286 105.614 25.2143C105.614 25.4286 105.614 25.6429 105.544 25.9286C104.912 26 104.281 26.0714 103.719 26.1429C102.737 26.2143 101.754 26.2143 100.702 26.2143H96.2807C96.2807 27.2143 96.4912 28.0714 96.9824 28.7143C97.4035 29.3571 98.0351 29.7857 98.807 30.0714C99.5789 30.3571 100.421 30.5 101.193 30.5C101.754 30.5 102.316 30.4286 102.877 30.2857C103.439 30.1429 104.14 29.8571 104.982 29.5L105.193 29.6429ZM96.3509 25.2857C96.6316 25.2857 97.1228 25.3571 97.8246 25.3571C99.2281 25.4286 100.14 25.4286 100.702 25.4286C101.965 25.4286 102.737 25.4286 103.158 25.3571C103.158 25.2143 103.158 25.0714 103.158 24.9286C103.158 23.7857 102.877 23 102.246 22.4286C101.614 21.8571 100.842 21.6429 99.8596 21.6429C98.807 21.6429 97.9649 21.9286 97.3333 22.5C96.6316 23.1429 96.3509 24 96.3509 25.2857Z" fill="#231F20"/>
<path d="M129.544 26.4286C129.544 24.8571 130.175 23.5714 131.368 22.5714C132.632 21.5714 134.175 21.0714 136.07 21.0714C137.895 21.0714 139.368 21.5714 140.491 22.5C141.614 23.4286 142.175 24.6428 142.175 26.1428C142.175 27.2143 141.895 28.1428 141.263 29C140.702 29.8571 139.86 30.5 138.807 31C137.754 31.5 136.561 31.7143 135.298 31.7143C134.316 31.7143 133.474 31.5714 132.772 31.2857C132.07 31 131.509 30.6428 131.088 30.2143C130.667 29.7857 130.316 29.3571 130.105 28.9286C129.754 28.1428 129.544 27.2857 129.544 26.4286ZM132 25.6428C132 26.5 132.211 27.4286 132.561 28.2857C132.912 29.2143 133.404 29.8571 134.105 30.2857C134.807 30.7143 135.509 30.9286 136.281 30.9286C137.263 30.9286 138.105 30.5714 138.807 29.9286C139.509 29.2857 139.789 28.2857 139.789 26.9286C139.789 25.7857 139.579 24.8571 139.158 24C138.737 23.1428 138.246 22.5714 137.614 22.2857C136.982 21.9286 136.281 21.7857 135.579 21.7857C134.526 21.7857 133.684 22.0714 132.982 22.7143C132.351 23.2857 132 24.2857 132 25.6428Z" fill="#231F20"/>
<path d="M143.579 26.4286C143.579 24.8571 144.211 23.5714 145.404 22.5714C146.667 21.5714 148.211 21.0714 150.105 21.0714C151.93 21.0714 153.404 21.5714 154.526 22.5C155.649 23.4286 156.211 24.6428 156.211 26.1428C156.211 27.2143 155.93 28.1428 155.298 29C154.737 29.8571 153.895 30.5 152.842 31C151.789 31.5 150.596 31.7143 149.333 31.7143C148.351 31.7143 147.509 31.5714 146.807 31.2857C146.105 31 145.544 30.6428 145.123 30.2143C144.702 29.7857 144.351 29.3571 144.14 28.9286C143.719 28.1428 143.579 27.2857 143.579 26.4286ZM145.965 25.6428C145.965 26.5 146.175 27.4286 146.526 28.2857C146.877 29.2143 147.368 29.8571 148.07 30.2857C148.772 30.7143 149.474 30.9286 150.246 30.9286C151.228 30.9286 152.07 30.5714 152.772 29.9286C153.474 29.2857 153.754 28.2857 153.754 26.9286C153.754 25.7857 153.544 24.8571 153.123 24C152.702 23.1428 152.211 22.5714 151.579 22.2857C150.947 21.9286 150.246 21.7857 149.544 21.7857C148.491 21.7857 147.649 22.0714 146.947 22.7143C146.316 23.2857 145.965 24.2857 145.965 25.6428Z" fill="#231F20"/>
<path d="M166.105 29.7143C166.105 29.5715 166.105 29.3572 166.175 29.0715C167.088 29.9286 167.93 30.2857 168.561 30.5C168.772 30.5715 168.912 30.5715 169.053 30.6429C169.123 30.6429 169.263 30.7143 169.403 30.7143C169.754 30.7143 170.175 30.7857 170.737 30.7857C171.649 30.7857 172.421 30.5715 173.053 30.2143C173.684 29.8572 173.965 29.2857 173.965 28.6429C173.965 28.3572 173.895 28.0715 173.684 27.8572C173.474 27.6429 173.193 27.4286 172.842 27.3572C172.491 27.2143 171.719 27.0715 170.526 26.8572C169.333 26.6429 168.561 26.5 168.281 26.4286C167.789 26.2857 167.368 26.0715 167.018 25.8572C166.737 25.6429 166.456 25.3572 166.316 25.0715C166.105 24.7143 166.035 24.3572 166.035 24C166.035 23.4286 166.246 22.9286 166.596 22.4286C167.018 21.9286 167.579 21.5715 168.421 21.2857C169.263 21 170.175 20.8572 171.088 20.8572C171.649 20.8572 172.351 20.9286 173.123 21.0715C173.895 21.2143 174.526 21.3572 175.018 21.5C174.947 22 174.947 22.5 174.947 23.0715C173.895 22.2143 172.772 21.8572 172.211 21.7143C172.14 21.7143 172 21.6429 171.93 21.6429C171.579 21.5715 171.228 21.5715 170.737 21.5715C169.895 21.5715 169.263 21.7857 168.772 22.1429C168.281 22.5 168.07 22.9286 168.07 23.4286C168.07 23.7143 168.14 23.9286 168.281 24.1429C168.421 24.3572 168.632 24.5 168.842 24.6429C169.053 24.7857 169.403 24.8572 169.825 25L172.14 25.4286C173.333 25.6429 174.105 25.8572 174.526 26C174.947 26.1429 175.298 26.4286 175.579 26.7857C175.86 27.1429 176 27.5715 176 28C176 28.9286 175.509 29.7857 174.456 30.5C173.403 31.2143 172.07 31.5715 170.316 31.5715C169.544 31.5715 168.491 31.5 167.158 31.2857C166.456 31.2143 166.035 31.0715 165.965 31.0715C165.895 31.0715 165.895 31 165.895 31C165.895 31 165.895 30.8572 165.895 30.7857C166.035 30.2857 166.035 30 166.105 29.7143Z" fill="#231F20"/>
<path d="M159.719 25.5714V26.0714V31.2143C159.228 31.2143 158.737 31.2143 158.316 31.2143H157.333V26.6428V25.2857V24.9286V21.5714C158.105 21.4286 158.737 21.2857 159.228 21.1428C159.439 21.0714 159.579 21.0714 159.649 21.0714C159.719 21.0714 159.789 21.0714 159.789 21.1428C159.86 21.2143 159.86 21.2143 159.86 21.2857C159.86 21.3571 159.86 21.3571 159.86 21.4286C159.789 21.8571 159.789 22.5 159.789 23.4286C160.211 23.0714 160.632 22.7143 160.982 22.3571C161.333 22 161.614 21.7857 161.754 21.6428C162.035 21.4286 162.386 21.2857 162.737 21.2143C163.088 21.0714 163.509 21.0714 163.93 21.0714C164.351 21.0714 164.702 21.1428 165.123 21.2857L165.193 21.4286C165.053 22.3571 164.982 23.2143 164.912 23.9286H164.281C164.07 23.5714 163.789 23.3571 163.509 23.2143C163.228 23.0714 162.877 23 162.386 23C161.614 23 160.982 23.2143 160.491 23.7143C160 24 159.719 24.7143 159.719 25.5714Z" fill="#231F20"/>
<path d="M0 0.5H16.2807V31.3571H0V0.5Z" fill="#AB1E37"/>
<path d="M38.5263 49.9286H0" stroke="#59595C" stroke-width="0.36" stroke-miterlimit="10"/>
<path d="M176 49.7142H137.474" stroke="#59595C" stroke-width="0.36" stroke-miterlimit="10"/>
</g>
<defs>
<clipPath id="clip0_46_2203">
<rect width="176" height="52" fill="white" transform="translate(0 0.5)"/>
</clipPath>
</defs>
</svg>
