<svg width="176" height="64" viewBox="0 0 176 64" fill="none" xmlns="http://www.w3.org/2000/svg">
<g clip-path="url(#clip0_46_2145)">
<path d="M59.2051 18.869H53.1448V0.629883H59.2051C64.3131 0.629883 67.8371 4.56645 67.8371 9.72694C67.8371 14.8874 64.3086 18.874 59.2051 18.874V18.869ZM59.2051 3.54734H56.0014V15.9515H59.2051C62.6178 15.9515 64.8426 13.3738 64.8426 9.7769C64.8426 6.18004 62.6134 3.54734 59.2051 3.54734Z" fill="black"/>
<path d="M82.6584 3.49738H73.4702V8.23824H81.6172V11.1057H73.4702V16.0015H82.7785V18.869H70.618V0.629883H82.6628V3.49738H82.6584Z" fill="black"/>
<path d="M94.3161 0.629883H97.1726V15.9515H105.716V18.869H94.3205V0.629883H94.3161Z" fill="black"/>
<path d="M124.857 18.869H121.841L120.194 14.4628H112.515L110.842 18.869H107.918L115.064 0.5H117.712L124.857 18.869ZM116.341 4.32666L113.556 11.6253H119.149L116.341 4.32666Z" fill="black"/>
<path d="M65.243 27.4015H56.0059V32.3771H64.1974V35.2946H56.0059V42.7181H53.1493V24.484H65.243V27.4015Z" fill="black"/>
<path d="M75.9218 43.0379C70.9339 43.0379 67.45 38.7916 67.45 33.6311C67.45 28.4706 70.9784 24.1743 75.9663 24.1743C80.9542 24.1743 84.4382 28.4206 84.4382 33.5811C84.4382 38.7416 80.9097 43.0428 75.9218 43.0428V43.0379ZM75.9218 27.1167C72.6959 27.1167 70.4445 30.0092 70.4445 33.5811C70.4445 37.153 72.7404 40.0954 75.9663 40.0954C79.1922 40.0954 81.4437 37.2029 81.4437 33.6311C81.4437 30.0592 79.1433 27.1167 75.9174 27.1167H75.9218Z" fill="black"/>
<path d="M98.6232 24.484H101.431V42.7231H99.0414L90.0801 29.7494V42.7231H87.2725V24.484H89.92L98.6232 37.098V24.484Z" fill="black"/>
<path d="M112.479 42.7231H109.6V27.4514H104.448V24.479H117.631V27.4514H112.479V42.7231Z" fill="black"/>
<path d="M134.108 42.7231H131.091L129.44 38.3169H121.761L120.092 42.7231H117.169L124.319 24.3541H126.967L134.112 42.7231H134.108ZM125.592 28.1858L122.806 35.4794H128.399L125.592 28.1858Z" fill="black"/>
<path d="M140.422 24.484V42.7231H137.57V24.484H140.422Z" fill="black"/>
<path d="M156.111 24.484H158.918V42.7231H156.529L147.572 29.7494V42.7231H144.765V24.484H147.412L156.115 37.098V24.484H156.111Z" fill="black"/>
<path d="M175.141 27.3465H165.949V32.0874H174.096V34.9549H165.949V39.8556H175.257V42.7231H163.096V24.484H175.141V27.3515V27.3465Z" fill="black"/>
<path d="M40.842 18.8739H16.2407V63.3351H40.842V18.8739Z" fill="black"/>
<path d="M4.08464 5.21087H40.842V0.619873H0V63.3351H4.08464V5.21087Z" fill="black"/>
<path d="M12.1338 14.243H40.842V9.65698H8.04469V63.3351H12.1338V14.243Z" fill="#EE3524"/>
<path d="M53.5987 63.2702C53.1982 63.1204 52.8823 62.9255 52.6554 62.6857L52.958 61.9714C53.176 62.1912 53.4563 62.371 53.7989 62.5109C54.1415 62.6508 54.4886 62.7157 54.849 62.7157C55.3251 62.7157 55.6766 62.6258 55.9124 62.4459C56.1483 62.2661 56.2639 62.0263 56.2639 61.7266C56.2639 61.5068 56.2016 61.3269 56.0726 61.187C55.9436 61.0472 55.7878 60.9423 55.5965 60.8723C55.4096 60.7974 55.1427 60.7175 54.8001 60.6225C54.3685 60.5076 54.0214 60.3877 53.7544 60.2728C53.4874 60.1579 53.265 59.9781 53.0736 59.7333C52.8868 59.4935 52.7933 59.1638 52.7933 58.7542C52.7933 58.4095 52.8734 58.0997 53.0336 57.825C53.1938 57.5502 53.4385 57.3304 53.7678 57.1656C54.097 57.0007 54.5019 56.9158 54.9869 56.9158C55.3251 56.9158 55.6588 56.9657 55.9836 57.0606C56.3129 57.1606 56.5932 57.3004 56.8246 57.4853L56.5532 58.2196C56.3129 58.0498 56.0548 57.9199 55.7834 57.83C55.512 57.7401 55.245 57.6951 54.9825 57.6951C54.5197 57.6951 54.1727 57.79 53.9369 57.9798C53.701 58.1697 53.5898 58.4145 53.5898 58.7142C53.5898 58.934 53.6565 59.1139 53.7856 59.2537C53.9146 59.3936 54.0792 59.4985 54.2706 59.5735C54.4663 59.6484 54.7289 59.7333 55.0581 59.8182C55.4897 59.9331 55.8368 60.053 56.0993 60.1679C56.3618 60.2828 56.5843 60.4627 56.7756 60.7025C56.967 60.9423 57.0559 61.262 57.0559 61.6666C57.0559 62.0013 56.9759 62.3111 56.8112 62.5908C56.6466 62.8706 56.3974 63.0904 56.0682 63.2502C55.7344 63.4101 55.3251 63.495 54.8401 63.495C54.4085 63.495 53.9947 63.4201 53.5898 63.2702H53.5987Z" fill="black"/>
<path d="M59.5699 57.79H57.6077V56.9907H62.3464V57.79H60.3842V63.4201H59.5744V57.79H59.5699Z" fill="black"/>
<path d="M67.6458 62.6258V63.4251H63.4899V56.9907H67.5345V57.79H64.3086V59.7633H67.183V60.5426H64.3086V62.6208H67.6458V62.6258Z" fill="black"/>
<path d="M73.3812 62.6258V63.4251H69.2253V56.9907H73.2699V57.79H70.044V59.7633H72.9184V60.5426H70.044V62.6208H73.3812V62.6258Z" fill="black"/>
<path d="M74.9607 56.9907H75.7794V62.6208H78.8808V63.4201H74.9607V56.9857V56.9907Z" fill="black"/>
<path d="M82.5293 56.9907H84.9454C85.5506 56.9907 86.0889 57.1256 86.5561 57.3954C87.0233 57.6651 87.3882 58.0448 87.6507 58.5294C87.9088 59.014 88.0378 59.5735 88.0378 60.2079C88.0378 60.8424 87.9088 61.3969 87.6507 61.8864C87.3926 62.371 87.0278 62.7507 86.5561 63.0205C86.0889 63.2902 85.5506 63.4251 84.9454 63.4251H82.5293V56.9907ZM84.8965 62.6208C85.3592 62.6208 85.7686 62.5209 86.1201 62.3161C86.4716 62.1113 86.743 61.8315 86.9344 61.4668C87.1257 61.1021 87.2191 60.6825 87.2191 60.2029C87.2191 59.7233 87.1257 59.3037 86.9344 58.939C86.743 58.5743 86.4716 58.2896 86.1201 58.0898C85.7686 57.8899 85.3592 57.785 84.8965 57.785H83.3481V62.6158H84.8965V62.6208Z" fill="black"/>
<path d="M90.5696 63.0704C90.1068 62.7856 89.742 62.391 89.475 61.8914C89.2125 61.3869 89.079 60.8274 89.079 60.2079C89.079 59.5884 89.2125 59.0289 89.475 58.5244C89.7375 58.0248 90.1024 57.6301 90.5696 57.3454C91.0323 57.0606 91.5529 56.9158 92.1314 56.9158C92.7098 56.9158 93.2215 57.0606 93.6842 57.3454C94.147 57.6301 94.5118 58.0248 94.7744 58.5194C95.0369 59.0189 95.1659 59.5784 95.1659 60.2079C95.1659 60.8373 95.0369 61.3969 94.7744 61.8964C94.5118 62.396 94.1514 62.7856 93.6842 63.0704C93.2215 63.3551 92.7009 63.5 92.1314 63.5C91.5618 63.5 91.0323 63.3551 90.5696 63.0704ZM93.266 62.356C93.5997 62.1412 93.8667 61.8465 94.058 61.4718C94.2493 61.0971 94.3472 60.6725 94.3472 60.2079C94.3472 59.7433 94.2493 59.3237 94.058 58.944C93.8622 58.5693 93.5997 58.2696 93.266 58.0598C92.9323 57.845 92.5541 57.7401 92.1314 57.7401C91.7087 57.7401 91.3305 57.845 90.9878 58.0598C90.6452 58.2746 90.3783 58.5693 90.1869 58.944C89.9912 59.3187 89.8977 59.7433 89.8977 60.2079C89.8977 60.6725 89.9956 61.0971 90.1869 61.4718C90.3827 61.8465 90.6497 62.1462 90.9878 62.356C91.3305 62.5708 91.7087 62.6757 92.1314 62.6757C92.5541 62.6757 92.9278 62.5708 93.266 62.356Z" fill="black"/>
<path d="M97.6977 63.0704C97.2349 62.7856 96.8701 62.391 96.6031 61.8914C96.3361 61.3869 96.2071 60.8274 96.2071 60.2079C96.2071 59.5884 96.3406 59.0289 96.6031 58.5244C96.8656 58.0248 97.2305 57.6301 97.6977 57.3454C98.1604 57.0606 98.681 56.9158 99.2595 56.9158C99.8379 56.9158 100.35 57.0606 100.817 57.3454C101.28 57.6301 101.644 58.0248 101.907 58.5194C102.169 59.0189 102.298 59.5784 102.298 60.2079C102.298 60.8373 102.169 61.3969 101.907 61.8964C101.644 62.396 101.284 62.7856 100.817 63.0704C100.354 63.3551 99.8335 63.5 99.2595 63.5C98.6855 63.5 98.1604 63.3551 97.6977 63.0704ZM100.394 62.356C100.728 62.1412 100.995 61.8465 101.186 61.4718C101.377 61.0971 101.475 60.6725 101.475 60.2079C101.475 59.7433 101.377 59.3237 101.186 58.944C100.99 58.5693 100.728 58.2696 100.394 58.0598C100.06 57.845 99.6822 57.7401 99.2595 57.7401C98.8368 57.7401 98.4586 57.845 98.1159 58.0598C97.7733 58.2746 97.5064 58.5693 97.315 58.944C97.1193 59.3187 97.0258 59.7433 97.0258 60.2079C97.0258 60.6725 97.1237 61.0971 97.315 61.4718C97.5064 61.8465 97.7778 62.1462 98.1159 62.356C98.4586 62.5708 98.8368 62.6757 99.2595 62.6757C99.6822 62.6757 100.056 62.5708 100.394 62.356Z" fill="black"/>
<path d="M107.629 63.4251L106.392 61.4518C106.241 61.4618 106.121 61.4718 106.032 61.4718H104.617V63.4301H103.798V56.9957H106.032C106.775 56.9957 107.358 57.1956 107.785 57.5952C108.212 57.9949 108.421 58.5394 108.421 59.2388C108.421 59.7333 108.31 60.158 108.092 60.5077C107.874 60.8574 107.562 61.1121 107.157 61.272L108.514 63.4301H107.625L107.629 63.4251ZM107.197 60.3078C107.469 60.0581 107.607 59.6984 107.607 59.2338C107.607 58.7692 107.469 58.4095 107.197 58.1647C106.926 57.9149 106.53 57.795 106.009 57.795H104.617V60.6875H106.009C106.53 60.6875 106.922 60.5626 107.197 60.3128V60.3078Z" fill="black"/>
<path d="M110.428 63.2702C110.027 63.1204 109.711 62.9255 109.484 62.6857L109.787 61.9714C110.005 62.1912 110.285 62.371 110.628 62.5109C110.971 62.6508 111.318 62.7157 111.678 62.7157C112.154 62.7157 112.506 62.6258 112.741 62.4459C112.977 62.2661 113.093 62.0263 113.093 61.7266C113.093 61.5068 113.031 61.3269 112.902 61.187C112.773 61.0472 112.617 60.9423 112.426 60.8723C112.234 60.8024 111.972 60.7175 111.629 60.6225C111.197 60.5076 110.85 60.3877 110.583 60.2728C110.316 60.1579 110.094 59.9781 109.903 59.7333C109.711 59.4885 109.622 59.1638 109.622 58.7542C109.622 58.4095 109.702 58.0997 109.863 57.825C110.023 57.5502 110.268 57.3304 110.597 57.1656C110.926 57.0007 111.331 56.9158 111.816 56.9158C112.154 56.9158 112.488 56.9657 112.813 57.0606C113.142 57.1606 113.422 57.3004 113.654 57.4853L113.382 58.2196C113.142 58.0498 112.884 57.9199 112.612 57.83C112.341 57.7401 112.074 57.6951 111.812 57.6951C111.349 57.6951 111.002 57.79 110.77 57.9798C110.539 58.1697 110.423 58.4145 110.423 58.7142C110.423 58.934 110.49 59.1139 110.619 59.2537C110.748 59.3936 110.913 59.4985 111.104 59.5735C111.295 59.6484 111.562 59.7333 111.892 59.8182C112.323 59.9331 112.67 60.053 112.933 60.1679C113.195 60.2828 113.418 60.4627 113.609 60.7025C113.8 60.9423 113.889 61.262 113.889 61.6666C113.889 62.0013 113.809 62.3111 113.645 62.5908C113.48 62.8706 113.231 63.0904 112.902 63.2502C112.568 63.4101 112.159 63.495 111.674 63.495C111.242 63.495 110.828 63.4201 110.428 63.2702Z" fill="black"/>
<path d="M121.445 61.8165H118.401L117.769 63.4251H116.928L119.522 56.9907H120.332L122.935 63.4251H122.076L121.445 61.8165ZM121.16 61.0821L119.923 57.9299L118.686 61.0821H121.155H121.16Z" fill="black"/>
<path d="M128.969 56.9907V63.4251H128.297L124.862 58.6293V63.4251H124.043V56.9907H124.715L128.15 61.7865V56.9907H128.969Z" fill="black"/>
<path d="M130.94 56.9907H133.356C133.961 56.9907 134.5 57.1256 134.967 57.3954C135.434 57.6651 135.799 58.0448 136.061 58.5294C136.319 59.014 136.448 59.5735 136.448 60.2079C136.448 60.8424 136.319 61.3969 136.061 61.8864C135.803 62.371 135.438 62.7507 134.967 63.0205C134.5 63.2902 133.961 63.4251 133.356 63.4251H130.94V56.9907ZM133.307 62.6208C133.77 62.6208 134.179 62.5209 134.531 62.3161C134.882 62.1162 135.154 61.8315 135.345 61.4668C135.536 61.1021 135.63 60.6825 135.63 60.2029C135.63 59.7233 135.536 59.3037 135.345 58.939C135.154 58.5743 134.882 58.2896 134.531 58.0898C134.179 57.8899 133.77 57.785 133.307 57.785H131.759V62.6158H133.307V62.6208Z" fill="black"/>
<path d="M141.227 57.79V60.0331H144.102V60.8224H141.227V63.4251H140.408V56.9907H144.453V57.79H141.227Z" fill="black"/>
<path d="M149.686 63.4251L148.449 61.4518C148.297 61.4618 148.177 61.4718 148.088 61.4718H146.673V63.4301H145.855V56.9957H148.088C148.831 56.9957 149.414 57.1956 149.841 57.5952C150.269 57.9949 150.478 58.5394 150.478 59.2388C150.478 59.7333 150.366 60.158 150.148 60.5077C149.93 60.8574 149.619 61.1121 149.214 61.272L150.571 63.4301H149.681L149.686 63.4251ZM149.254 60.3078C149.525 60.0581 149.663 59.6984 149.663 59.2338C149.663 58.7692 149.525 58.4095 149.254 58.1647C148.983 57.9149 148.587 57.795 148.066 57.795H146.673V60.6875H148.066C148.587 60.6875 148.978 60.5626 149.254 60.3128V60.3078Z" fill="black"/>
<path d="M155.71 61.8165H152.667L152.035 63.4251H151.194L153.788 56.9907H154.598L157.201 63.4251H156.342L155.71 61.8165ZM155.426 61.0821L154.189 57.9299L152.952 61.0821H155.421H155.426Z" fill="black"/>
<path d="M163.617 63.4251L163.608 58.7392L161.539 62.6458H161.161L159.092 58.7692V63.4301H158.304V56.9957H158.976L161.366 61.5168L163.724 56.9957H164.396L164.405 63.4301H163.617V63.4251Z" fill="black"/>
<path d="M170.532 62.6258V63.4251H166.376V56.9907H170.42V57.79H167.194V59.7633H170.069V60.5426H167.194V62.6208H170.532V62.6258Z" fill="black"/>
<path d="M172.534 63.2702C172.133 63.1204 171.817 62.9255 171.591 62.6857L171.893 61.9714C172.111 62.1912 172.391 62.371 172.734 62.5109C173.077 62.6508 173.424 62.7157 173.784 62.7157C174.26 62.7157 174.612 62.6258 174.848 62.4459C175.083 62.2661 175.199 62.0263 175.199 61.7266C175.199 61.5068 175.137 61.3269 175.008 61.187C174.879 61.0472 174.723 60.9423 174.532 60.8723C174.34 60.8024 174.078 60.7175 173.735 60.6225C173.304 60.5076 172.957 60.3877 172.69 60.2728C172.423 60.1579 172.2 59.9781 172.009 59.7333C171.817 59.4885 171.728 59.1638 171.728 58.7542C171.728 58.4095 171.809 58.0997 171.969 57.825C172.129 57.5502 172.374 57.3304 172.703 57.1656C173.032 57.0007 173.437 56.9158 173.922 56.9158C174.26 56.9158 174.594 56.9657 174.919 57.0606C175.248 57.1606 175.528 57.3004 175.76 57.4853L175.488 58.2196C175.248 58.0498 174.99 57.9199 174.719 57.83C174.447 57.7401 174.18 57.6951 173.918 57.6951C173.455 57.6951 173.108 57.79 172.876 57.9798C172.645 58.1697 172.529 58.4145 172.529 58.7142C172.529 58.934 172.596 59.1139 172.725 59.2537C172.854 59.3936 173.019 59.4985 173.21 59.5735C173.402 59.6484 173.668 59.7333 173.998 59.8182C174.429 59.9331 174.776 60.053 175.039 60.1679C175.301 60.2828 175.524 60.4627 175.715 60.7025C175.907 60.9423 175.996 61.262 175.996 61.6666C175.996 62.0013 175.915 62.3111 175.751 62.5908C175.586 62.8706 175.337 63.0904 175.008 63.2502C174.674 63.4101 174.265 63.495 173.78 63.495C173.348 63.495 172.934 63.4201 172.534 63.2702Z" fill="black"/>
</g>
<defs>
<clipPath id="clip0_46_2145">
<rect width="176" height="63" fill="white" transform="translate(0 0.5)"/>
</clipPath>
</defs>
</svg>
