<svg width="176" height="65" viewBox="0 0 176 65" fill="none" xmlns="http://www.w3.org/2000/svg">
<g clip-path="url(#clip0_46_2188)">
<path d="M0 0H176V65H0V0Z" fill="#003A7D"/>
<path d="M17.8647 40.3396V25.3218H24.3819V31.477H28.2923V25.3161H34.803V40.3396H28.2923V34.2522H24.3819V40.3396H17.8647ZM82.9119 40.3396V32.2174L88.5028 40.7466L94.5239 32.4435V40.3396H100.929V25.3218H95.7943L90.7326 32.2966L85.6776 25.3218H80.1197V40.3396H82.9119ZM127.547 40.3396V33.0992L135.057 40.3396H139.463V25.3218H136.704V32.9918L128.004 25.3218H123.987V40.334H127.547V40.3396ZM146.735 40.3396V33.0935L154.251 40.334H158.658V25.3218H155.899V32.9918L147.198 25.3218H143.175V40.3396H146.735ZM65.5037 40.3396V33.6587L70.5654 40.3396H78.3068L72.6165 33.4892C73.7316 33.1994 74.6886 32.5784 75.3146 31.7385C75.9405 30.8986 76.194 29.8951 76.0294 28.9093C75.8648 27.9236 75.2929 27.0207 74.417 26.3638C73.5411 25.7069 72.419 25.3393 71.2535 25.3274H58.8277V40.3396H65.5037ZM65.5037 32.4266V27.6957H69.4141V32.4548L65.5037 32.4266ZM102.589 40.3396H105.646L106.652 38.2596H113.93L114.909 40.3509H122.188L115.571 25.3331H109.616L102.589 40.3396ZM112.845 35.8179H107.691L110.337 30.2109L112.845 35.8179ZM40.083 25.2766C40.0817 24.9739 39.9754 24.6783 39.7776 24.4271C39.5798 24.176 39.2993 23.9805 38.9715 23.8655C38.6438 23.7504 38.2835 23.7209 37.9361 23.7806C37.5887 23.8404 37.2698 23.9867 37.0197 24.2011C36.7696 24.4156 36.5995 24.6885 36.5308 24.9855C36.4622 25.2824 36.4981 25.5901 36.634 25.8697C36.7699 26.1493 36.9997 26.3881 37.2944 26.5562C37.5891 26.7243 37.9356 26.814 38.2899 26.814C38.7661 26.8125 39.2221 26.6498 39.5582 26.3617C39.8943 26.0735 40.083 25.6833 40.083 25.2766ZM57.286 25.2766C57.2847 24.9739 57.1784 24.6783 56.9806 24.4271C56.7828 24.176 56.5023 23.9805 56.1745 23.8655C55.8468 23.7504 55.4865 23.7209 55.1391 23.7806C54.7917 23.8404 54.4728 23.9867 54.2227 24.2011C53.9726 24.4156 53.8025 24.6885 53.7338 24.9855C53.6652 25.2824 53.7011 25.5901 53.837 25.8697C53.9729 26.1493 54.2027 26.3881 54.4974 26.5562C54.7922 26.7243 55.1386 26.814 55.4929 26.814C55.9691 26.8125 56.4252 26.6498 56.7612 26.3617C57.0973 26.0735 57.286 25.6833 57.286 25.2766ZM56.1149 33.0201C56.0914 34.5728 55.5309 36.0849 54.504 37.3663C53.4771 38.6476 52.0295 39.6409 50.3434 40.2213C48.6573 40.8016 46.808 40.9431 45.028 40.6279C43.2481 40.3127 41.6169 39.5549 40.3398 38.4499C39.0627 37.3448 38.1966 35.9418 37.8505 34.4173C37.5045 32.8929 37.6938 31.315 38.3948 29.8822C39.0957 28.4495 40.277 27.2258 41.79 26.365C43.303 25.5043 45.0802 25.045 46.898 25.0448C48.1168 25.0448 49.3235 25.2512 50.4482 25.6522C51.573 26.0531 52.5935 26.6407 53.4507 27.3808C54.3078 28.1209 54.9847 28.9989 55.442 29.964C55.8993 30.9291 56.128 31.962 56.1149 33.0031M48.8367 38.1579V27.6335H44.8668V38.1579H48.8367Z" fill="#F39B07"/>
</g>
<defs>
<clipPath id="clip0_46_2188">
<rect width="176" height="65" fill="white"/>
</clipPath>
</defs>
</svg>
