<svg xmlns="http://www.w3.org/2000/svg" version="1.1" xmlns:xlink="http://www.w3.org/1999/xlink" xmlns:svgjs="http://svgjs.dev/svgjs" width="1440" height="560" preserveAspectRatio="none" viewBox="0 0 1440 560"><g mask="url(&quot;#SvgjsMask1052&quot;)" fill="none"><rect width="1440" height="560" x="0" y="0" fill="url(&quot;#SvgjsLinearGradient1053&quot;)"></rect><path d="M1440 0L1122.18 0L1440 222.67z" fill="rgba(255, 255, 255, .1)"></path><path d="M1122.18 0L1440 222.67L1440 223.39999999999998L764.5 0z" fill="rgba(255, 255, 255, .075)"></path><path d="M764.5 0L1440 223.39999999999998L1440 402.64L673.49 0z" fill="rgba(255, 255, 255, .05)"></path><path d="M673.49 0L1440 402.64L1440 473.09999999999997L553.57 0z" fill="rgba(255, 255, 255, .025)"></path><path d="M0 560L480.65 560L0 421.08000000000004z" fill="rgba(0, 0, 0, .1)"></path><path d="M0 421.08000000000004L480.65 560L833.28 560L0 217.63000000000005z" fill="rgba(0, 0, 0, .075)"></path><path d="M0 217.63L833.28 560L1206.42 560L0 122.56z" fill="rgba(0, 0, 0, .05)"></path><path d="M0 122.56L1206.42 560L1257.3300000000002 560L0 95.96000000000001z" fill="rgba(0, 0, 0, .025)"></path></g><defs><mask id="SvgjsMask1052"><rect width="1440" height="560" fill="#ffffff"></rect></mask><linearGradient x1="15.28%" y1="-39.29%" x2="84.72%" y2="139.29%" gradientUnits="userSpaceOnUse" id="SvgjsLinearGradient1053"><stop stop-color="#0e2a47" offset="0"></stop><stop stop-color="rgba(12, 59, 143, 1)" offset="1"></stop></linearGradient></defs></svg>