<svg xmlns="http://www.w3.org/2000/svg" version="1.1" xmlns:xlink="http://www.w3.org/1999/xlink" xmlns:svgjs="http://svgjs.dev/svgjs" width="1440" height="560" preserveAspectRatio="none" viewBox="0 0 1440 560"><g mask="url(&quot;#SvgjsMask2713&quot;)" fill="none"><path d="M4.62 230.52L87.76 278.52L87.76 374.52L4.62 422.52L-78.52 374.52L-78.52 278.52zM87.76 374.52L170.9 422.52L170.9 518.52L87.76 566.52L4.62 518.52L4.62 422.52zM4.62 518.52L87.76 566.52L87.76 662.52L4.62 710.52L-78.52 662.52L-78.52 566.52zM170.9 -57.48L254.04 -9.48L254.04 86.52L170.9 134.52L87.76 86.52L87.76 -9.48zM254.04 374.52L337.18 422.52L337.18 518.52L254.04 566.52L170.9 518.52L170.9 422.52zM503.46 -57.48L586.61 -9.48L586.61 86.52L503.46 134.52L420.32 86.52L420.32 -9.48zM586.61 86.52L669.75 134.52L669.75 230.52L586.61 278.52L503.46 230.52L503.46 134.52zM503.46 230.52L586.61 278.52L586.61 374.52L503.46 422.52L420.32 374.52L420.32 278.52zM752.89 86.52L836.03 134.52L836.03 230.52L752.89 278.52L669.75 230.52L669.75 134.52zM669.75 230.52L752.89 278.52L752.89 374.52L669.75 422.52L586.61 374.52L586.61 278.52zM1002.31 -57.48L1085.45 -9.48L1085.45 86.52L1002.31 134.52L919.17 86.52L919.17 -9.48zM1085.45 86.52L1168.59 134.52L1168.59 230.52L1085.45 278.52L1002.31 230.52L1002.31 134.52zM1002.31 518.52L1085.45 566.52L1085.45 662.52L1002.31 710.52L919.17 662.52L919.17 566.52zM1334.87 -57.48L1418.01 -9.48L1418.01 86.52L1334.87 134.52L1251.73 86.52L1251.73 -9.48zM1418.01 86.52L1501.15 134.52L1501.15 230.52L1418.01 278.52L1334.87 230.52L1334.87 134.52zM1334.87 230.52L1418.01 278.52L1418.01 374.52L1334.87 422.52L1251.73 374.52L1251.73 278.52zM1418.01 374.52L1501.15 422.52L1501.15 518.52L1418.01 566.52L1334.87 518.52L1334.87 422.52z" stroke="url(&quot;#SvgjsLinearGradient2714&quot;)" stroke-width="2"></path></g><defs><mask id="SvgjsMask2713"><rect width="1440" height="560" fill="#ffffff"></rect></mask><linearGradient x1="720" y1="0" x2="720" y2="560" gradientUnits="userSpaceOnUse" id="SvgjsLinearGradient2714"><stop stop-color="rgba(215, 224, 239, 1)" offset="0.33"></stop><stop stop-color="rgba(21, 70, 156, 1)" offset="1"></stop></linearGradient></defs></svg>