<svg xmlns="http://www.w3.org/2000/svg" version="1.1" xmlns:xlink="http://www.w3.org/1999/xlink" xmlns:svgjs="http://svgjs.dev/svgjs" width="1440" height="560" preserveAspectRatio="none" viewBox="0 0 1440 560"><g mask="url(&quot;#SvgjsMask2707&quot;)" fill="none"><path d="M1.7 269.47L45 294.47L45 344.47L1.7 369.47L-41.6 344.47L-41.6 294.47zM1.7 419.47L45 444.47L45 494.47L1.7 519.47L-41.6 494.47L-41.6 444.47zM88.31 -30.53L131.61 -5.53L131.61 44.47L88.31 69.47L45 44.47L45 -5.53zM88.31 269.47L131.61 294.47L131.61 344.47L88.31 369.47L45 344.47L45 294.47zM218.21 194.47L261.51 219.47L261.51 269.47L218.21 294.47L174.91 269.47L174.91 219.47zM218.21 494.47L261.51 519.47L261.51 569.47L218.21 594.47L174.91 569.47L174.91 519.47zM261.51 269.47L304.82 294.47L304.82 344.47L261.51 369.47L218.21 344.47L218.21 294.47zM304.82 344.47L348.12 369.47L348.12 419.47L304.82 444.47L261.51 419.47L261.51 369.47zM521.33 119.47L564.63 144.47L564.63 194.47L521.33 219.47L478.03 194.47L478.03 144.47zM737.84 494.47L781.15 519.47L781.15 569.47L737.84 594.47L694.54 569.47L694.54 519.47zM781.15 119.47L824.45 144.47L824.45 194.47L781.15 219.47L737.84 194.47L737.84 144.47zM911.05 194.47L954.36 219.47L954.36 269.47L911.05 294.47L867.75 269.47L867.75 219.47zM954.36 -30.53L997.66 -5.53L997.66 44.47L954.36 69.47L911.05 44.47L911.05 -5.53zM954.36 419.47L997.66 444.47L997.66 494.47L954.36 519.47L911.05 494.47L911.05 444.47zM997.66 494.47L1040.96 519.47L1040.96 569.47L997.66 594.47L954.36 569.47L954.36 519.47zM1084.26 494.47L1127.57 519.47L1127.57 569.47L1084.26 594.47L1040.96 569.47L1040.96 519.47zM1257.47 44.47L1300.78 69.47L1300.78 119.47L1257.47 144.47L1214.17 119.47L1214.17 69.47zM1387.38 -30.53L1430.68 -5.53L1430.68 44.47L1387.38 69.47L1344.08 44.47L1344.08 -5.53zM1387.38 269.47L1430.68 294.47L1430.68 344.47L1387.38 369.47L1344.08 344.47L1344.08 294.47z" stroke="url(&quot;#SvgjsLinearGradient2708&quot;)" stroke-width="2"></path></g><defs><mask id="SvgjsMask2707"><rect width="1440" height="560" fill="#ffffff"></rect></mask><linearGradient x1="1219.9679999999998" y1="-220.02399999999997" x2="220.03199999999998" y2="780.024" gradientUnits="userSpaceOnUse" id="SvgjsLinearGradient2708"><stop stop-color="rgba(231, 235, 244, 1)" offset="0.01"></stop><stop stop-color="rgba(210, 225, 255, 1)" offset="1"></stop></linearGradient></defs></svg>