<svg width="160" height="91" viewBox="0 0 160 91" fill="none" xmlns="http://www.w3.org/2000/svg">
<path d="M64.3915 59.3073V14.3037H76.4086V59.3073H64.3915ZM67.966 59.3073V48.7079H95.983V59.3073H67.966ZM71.4724 41.5594V31.453H95.132V41.5594H71.4724ZM67.966 24.7975V14.3037H95.6766V24.7975H67.966Z" fill="#0A0E39"/>
<path d="M4.12231 73.9241V80.4356H2.44096V73.9241H4.12231ZM2.33624 72.227C2.33624 71.9743 2.42157 71.7656 2.59223 71.6011C2.76288 71.4366 2.99171 71.3544 3.27873 71.3544C3.56186 71.3544 3.78875 71.4366 3.95941 71.6011C4.13394 71.7656 4.22121 71.9743 4.22121 72.227C4.22121 72.4798 4.13394 72.6884 3.95941 72.8529C3.78875 73.0174 3.56186 73.0996 3.27873 73.0996C2.99171 73.0996 2.76288 73.0174 2.59223 72.8529C2.42157 72.6884 2.33624 72.4798 2.33624 72.227ZM7.18248 75.2722V80.4356H5.50114V73.9241H7.07777L7.18248 75.2722ZM6.94977 76.9512H6.48434C6.48434 76.4978 6.5367 76.0806 6.64143 75.6994C6.75003 75.3142 6.90711 74.9813 7.11267 74.7005C7.32211 74.4156 7.58004 74.1949 7.88644 74.0384C8.19285 73.882 8.54771 73.8037 8.95112 73.8037C9.23035 73.8037 9.48635 73.8478 9.71903 73.9361C9.9518 74.0204 10.1515 74.1548 10.3183 74.3393C10.4889 74.5199 10.6208 74.7566 10.7139 75.0494C10.8069 75.3384 10.8535 75.6854 10.8535 76.0906V80.4356H9.17801V76.2832C9.17801 75.9863 9.1392 75.7576 9.06167 75.5971C8.98406 75.4366 8.8735 75.3243 8.73001 75.2601C8.59044 75.1959 8.42168 75.1638 8.22388 75.1638C8.00668 75.1638 7.81663 75.2099 7.65372 75.3022C7.49471 75.3945 7.36284 75.5229 7.25811 75.6873C7.15339 75.8478 7.07583 76.0364 7.0254 76.253C6.97498 76.4697 6.94977 76.7024 6.94977 76.9512ZM10.6965 76.7526L10.0972 76.8308C10.0972 76.4055 10.1476 76.0103 10.2485 75.6452C10.3532 75.2802 10.5064 74.9592 10.7081 74.6823C10.9137 74.4055 11.1677 74.1909 11.4702 74.0384C11.7727 73.882 12.1218 73.8037 12.5174 73.8037C12.82 73.8037 13.0953 73.8499 13.3435 73.9421C13.5918 74.0304 13.8032 74.1729 13.9777 74.3694C14.1561 74.562 14.2919 74.8147 14.3849 75.1277C14.4819 75.4407 14.5304 75.8238 14.5304 76.2772V80.4356H12.8491V76.2772C12.8491 75.9763 12.8103 75.7475 12.7327 75.5911C12.6589 75.4306 12.5504 75.3203 12.4069 75.2601C12.2673 75.1959 12.1005 75.1638 11.9065 75.1638C11.7049 75.1638 11.5284 75.2059 11.3772 75.2902C11.2258 75.3704 11.0998 75.4827 10.9989 75.6272C10.8981 75.7716 10.8225 75.9402 10.7721 76.1327C10.7217 76.3213 10.6965 76.5279 10.6965 76.7526ZM19.2253 78.9672V76.0665C19.2253 75.8579 19.1924 75.6793 19.1264 75.5309C19.0606 75.3784 18.9578 75.2601 18.8181 75.1758C18.6824 75.0916 18.5059 75.0494 18.2887 75.0494C18.1025 75.0494 17.9416 75.0836 17.8058 75.1517C17.6701 75.216 17.5653 75.3103 17.4916 75.4346C17.4179 75.555 17.3812 75.6974 17.3812 75.8619H15.7056C15.7056 75.585 15.7676 75.3222 15.8918 75.0735C16.0159 74.8248 16.1962 74.6062 16.4328 74.4176C16.6694 74.225 16.9506 74.0745 17.2764 73.9662C17.6061 73.8579 17.9745 73.8037 18.3818 73.8037C18.8705 73.8037 19.3049 73.888 19.685 74.0565C20.0651 74.225 20.3637 74.4777 20.5809 74.8147C20.802 75.1517 20.9126 75.5731 20.9126 76.0786V78.8649C20.9126 79.2219 20.9338 79.5148 20.9766 79.7436C21.0192 79.9682 21.0812 80.1648 21.1627 80.3333V80.4356H19.4698C19.3882 80.2591 19.3262 80.0384 19.2835 79.7736C19.2447 79.5048 19.2253 79.236 19.2253 78.9672ZM19.4464 76.4697L19.4581 77.4507H18.5214C18.3003 77.4507 18.1083 77.4767 17.9454 77.5288C17.7825 77.5811 17.6487 77.6553 17.5441 77.7516C17.4393 77.8438 17.3618 77.9521 17.3113 78.0765C17.2647 78.2009 17.2415 78.3373 17.2415 78.4858C17.2415 78.6342 17.2744 78.7686 17.3404 78.889C17.4064 79.0053 17.5013 79.0976 17.6255 79.1658C17.7496 79.23 17.895 79.2621 18.0618 79.2621C18.3139 79.2621 18.5331 79.2099 18.7192 79.1057C18.9054 79.0013 19.0489 78.8729 19.1498 78.7205C19.2544 78.568 19.3087 78.4236 19.3127 78.2872L19.7548 79.0214C19.6927 79.1859 19.6074 79.3564 19.4988 79.5329C19.3941 79.7094 19.2603 79.876 19.0974 80.0324C18.9344 80.1849 18.7386 80.3112 18.5098 80.4116C18.2809 80.5078 18.0094 80.5559 17.6953 80.5559C17.2958 80.5559 16.9332 80.4737 16.6074 80.3092C16.2854 80.1407 16.0294 79.91 15.8394 79.6171C15.6532 79.3203 15.5601 78.9833 15.5601 78.6061C15.5601 78.2651 15.6222 77.9622 15.7464 77.6974C15.8704 77.4326 16.0527 77.2099 16.2932 77.0294C16.5375 76.8448 16.842 76.7064 17.2066 76.6142C17.5712 76.5179 17.9939 76.4697 18.4749 76.4697H19.4464ZM26.1893 73.9241H27.7077V80.2189C27.7077 80.8127 27.5797 81.3162 27.3238 81.7295C27.0716 82.1467 26.7187 82.4616 26.2649 82.6743C25.8111 82.891 25.2836 82.9993 24.6825 82.9993C24.4188 82.9993 24.1395 82.9632 23.8447 82.891C23.5538 82.8187 23.2746 82.7064 23.0069 82.5539C22.7432 82.4015 22.5221 82.2089 22.3437 81.9762L23.0826 80.9532C23.2765 81.1858 23.5015 81.3664 23.7574 81.4948C24.0134 81.6272 24.2966 81.6934 24.6069 81.6934C24.9094 81.6934 25.1653 81.6352 25.3748 81.5189C25.5842 81.4065 25.7452 81.24 25.8577 81.0194C25.9702 80.8027 26.0264 80.5399 26.0264 80.231V75.4286L26.1893 73.9241ZM21.9539 77.2581V77.1317C21.9539 76.6342 22.0121 76.1829 22.1285 75.7777C22.2487 75.3684 22.4174 75.0174 22.6346 74.7245C22.8557 74.4316 23.1233 74.2049 23.4375 74.0444C23.7516 73.8839 24.1065 73.8037 24.5021 73.8037C24.921 73.8037 25.2721 73.8839 25.5551 74.0444C25.8383 74.2049 26.071 74.4336 26.2533 74.7305C26.4355 75.0234 26.5772 75.3704 26.678 75.7716C26.7827 76.1688 26.8641 76.6041 26.9224 77.0775V77.3544C26.8641 77.8077 26.7769 78.229 26.6606 78.6181C26.5442 79.0073 26.3909 79.3484 26.2009 79.6413C26.0109 79.9301 25.7743 80.1548 25.4911 80.3153C25.2119 80.4757 24.8784 80.5559 24.4905 80.5559C24.1026 80.5559 23.7516 80.4737 23.4375 80.3092C23.1272 80.1447 22.8615 79.9141 22.6404 79.6171C22.4194 79.3203 22.2487 78.9712 22.1285 78.57C22.0121 78.1688 21.9539 77.7315 21.9539 77.2581ZM23.6294 77.1317V77.2581C23.6294 77.5269 23.6547 77.7776 23.7051 78.0103C23.7555 78.243 23.8331 78.4496 23.9378 78.6302C24.0464 78.8067 24.1802 78.9452 24.3392 79.0454C24.5021 79.1417 24.6941 79.1899 24.9152 79.1899C25.2216 79.1899 25.4718 79.1237 25.6657 78.9913C25.8596 78.8548 26.0051 78.6683 26.102 78.4316C26.199 78.1949 26.2552 77.9221 26.2708 77.6131V76.8247C26.2629 76.572 26.23 76.3453 26.1719 76.1448C26.1137 75.9402 26.0322 75.7656 25.9275 75.6211C25.8228 75.4767 25.687 75.3644 25.5202 75.2841C25.3535 75.2039 25.1556 75.1638 24.9269 75.1638C24.7058 75.1638 24.5138 75.216 24.3509 75.3203C24.1919 75.4206 24.058 75.559 23.9494 75.7355C23.8447 75.9121 23.7652 76.1206 23.7109 76.3614C23.6566 76.5981 23.6294 76.8549 23.6294 77.1317ZM31.9082 80.5559C31.4195 80.5559 30.9812 80.4757 30.5934 80.3153C30.2055 80.1507 29.8759 79.924 29.6044 79.6352C29.3367 79.3463 29.1312 79.0114 28.9876 78.6302C28.8441 78.245 28.7724 77.8358 28.7724 77.4025V77.1617C28.7724 76.6683 28.8403 76.217 28.9761 75.8078C29.1118 75.3985 29.3057 75.0434 29.5578 74.7425C29.8138 74.4416 30.1241 74.211 30.4886 74.0505C30.8532 73.886 31.2644 73.8037 31.722 73.8037C32.1681 73.8037 32.5637 73.88 32.9089 74.0324C33.2541 74.1848 33.543 74.4015 33.7757 74.6823C34.0123 74.9632 34.1908 75.3002 34.3109 75.6934C34.4312 76.0825 34.4913 76.5158 34.4913 76.9932V77.7155H29.488V76.56H32.8449V76.4276C32.8449 76.1868 32.8022 75.9722 32.7169 75.7836C32.6355 75.5911 32.5113 75.4386 32.3446 75.3263C32.1778 75.214 31.9645 75.1578 31.7046 75.1578C31.4835 75.1578 31.2935 75.2079 31.1344 75.3082C30.9755 75.4085 30.8455 75.5489 30.7446 75.7295C30.6477 75.9101 30.574 76.1227 30.5235 76.3674C30.477 76.6081 30.4538 76.8729 30.4538 77.1617V77.4025C30.4538 77.6633 30.4886 77.904 30.5584 78.1247C30.6321 78.3454 30.7349 78.5359 30.8669 78.6964C31.0026 78.8569 31.1655 78.9813 31.3555 79.0695C31.5494 79.1578 31.7686 79.2019 32.0129 79.2019C32.3155 79.2019 32.5966 79.1417 32.8565 79.0214C33.1202 78.897 33.3471 78.7105 33.5372 78.4617L34.3517 79.3764C34.2198 79.573 34.0395 79.7616 33.8106 79.9422C33.5857 80.1226 33.3142 80.2711 32.9961 80.3874C32.6781 80.4998 32.3155 80.5559 31.9082 80.5559ZM37.0861 75.3142V80.4356H35.4105V73.9241H36.9813L37.0861 75.3142ZM36.8418 76.9512H36.388C36.388 76.4697 36.4481 76.0364 36.5683 75.6512C36.6885 75.2621 36.8572 74.9311 37.0744 74.6583C37.2916 74.3814 37.5496 74.1708 37.8482 74.0264C38.1507 73.8779 38.4881 73.8037 38.8605 73.8037C39.1553 73.8037 39.4248 73.8478 39.6692 73.9361C39.9135 74.0243 40.1229 74.1648 40.2975 74.3574C40.4759 74.55 40.6117 74.8047 40.7047 75.1217C40.8018 75.4386 40.8502 75.8258 40.8502 76.2832V80.4356H39.163V76.2772C39.163 75.9882 39.1242 75.7636 39.0467 75.6031C38.9691 75.4427 38.8547 75.3303 38.7035 75.2661C38.5561 75.1979 38.3738 75.1638 38.1566 75.1638C37.9316 75.1638 37.7357 75.2099 37.569 75.3022C37.406 75.3945 37.2703 75.5229 37.1617 75.6873C37.057 75.8478 36.9775 76.0364 36.9232 76.253C36.8689 76.4697 36.8418 76.7024 36.8418 76.9512ZM46.9589 79.7014L48.6286 73.9241H50.4263L47.8955 81.4166C47.8412 81.581 47.7676 81.7575 47.6745 81.9461C47.5853 82.1347 47.4631 82.3132 47.308 82.4817C47.1567 82.6543 46.9647 82.7947 46.7321 82.903C46.5032 83.0113 46.222 83.0655 45.8884 83.0655C45.7294 83.0655 45.5995 83.0554 45.4986 83.0354C45.3978 83.0153 45.2776 82.9872 45.1379 82.9511V81.6813C45.1806 81.6813 45.2252 81.6813 45.2717 81.6813C45.3183 81.6853 45.3629 81.6874 45.4056 81.6874C45.6266 81.6874 45.8069 81.6613 45.9466 81.6091C46.0863 81.557 46.1987 81.4767 46.2841 81.3684C46.3693 81.2641 46.4372 81.1276 46.4876 80.9591L46.9589 79.7014ZM46.2607 73.9241L47.628 78.6422L47.8665 80.4778L46.7262 80.6041L44.463 73.9241H46.2607ZM56.9597 80.5559C56.471 80.5559 56.0327 80.4757 55.6449 80.3153C55.2571 80.1507 54.9274 79.924 54.6559 79.6352C54.3882 79.3463 54.1827 79.0114 54.0392 78.6302C53.8957 78.245 53.824 77.8358 53.824 77.4025V77.1617C53.824 76.6683 53.8918 76.217 54.0275 75.8078C54.1633 75.3985 54.3572 75.0434 54.6093 74.7425C54.8653 74.4416 55.1756 74.211 55.5402 74.0505C55.9048 73.886 56.3159 73.8037 56.7736 73.8037C57.2196 73.8037 57.6152 73.88 57.9604 74.0324C58.3056 74.1848 58.5945 74.4015 58.8273 74.6823C59.0639 74.9632 59.2423 75.3002 59.3625 75.6934C59.4828 76.0825 59.5429 76.5158 59.5429 76.9932V77.7155H54.5395V76.56H57.8964V76.4276C57.8964 76.1868 57.8538 75.9722 57.7684 75.7836C57.6869 75.5911 57.5629 75.4386 57.3961 75.3263C57.2293 75.214 57.016 75.1578 56.7561 75.1578C56.535 75.1578 56.345 75.2079 56.186 75.3082C56.0269 75.4085 55.897 75.5489 55.7961 75.7295C55.6992 75.9101 55.6255 76.1227 55.5751 76.3674C55.5286 76.6081 55.5053 76.8729 55.5053 77.1617V77.4025C55.5053 77.6633 55.5402 77.904 55.61 78.1247C55.6837 78.3454 55.7865 78.5359 55.9184 78.6964C56.0541 78.8569 56.217 78.9813 56.407 79.0695C56.601 79.1578 56.8201 79.2019 57.0645 79.2019C57.3669 79.2019 57.6482 79.1417 57.9081 79.0214C58.1718 78.897 58.3987 78.7105 58.5887 78.4617L59.4032 79.3764C59.2714 79.573 59.091 79.7616 58.8622 79.9422C58.6372 80.1226 58.3658 80.2711 58.0477 80.3874C57.7297 80.4998 57.3669 80.5559 56.9597 80.5559ZM63.9004 78.6362C63.9004 78.5119 63.8655 78.3995 63.7957 78.2992C63.7258 78.1989 63.596 78.1066 63.4059 78.0224C63.2197 77.9341 62.9502 77.8539 62.5972 77.7817C62.2792 77.7094 61.9824 77.6192 61.7071 77.5108C61.4355 77.3985 61.199 77.2641 60.9973 77.1076C60.7995 76.9512 60.6444 76.7666 60.5319 76.5539C60.4194 76.3373 60.3632 76.0906 60.3632 75.8137C60.3632 75.5409 60.4194 75.2841 60.5319 75.0434C60.6482 74.8027 60.8131 74.5901 61.0264 74.4055C61.2436 74.217 61.5074 74.0706 61.8176 73.9662C62.1318 73.8579 62.4847 73.8037 62.8765 73.8037C63.4234 73.8037 63.8927 73.894 64.2844 74.0745C64.68 74.2551 64.9825 74.5038 65.192 74.8208C65.4052 75.1337 65.512 75.4907 65.512 75.892H63.8364C63.8364 75.7235 63.8015 75.5731 63.7317 75.4407C63.6658 75.3042 63.561 75.1979 63.4175 75.1217C63.2779 75.0414 63.0956 75.0013 62.8706 75.0013C62.6845 75.0013 62.5235 75.0354 62.3878 75.1037C62.2521 75.1678 62.1473 75.256 62.0736 75.3684C62.0038 75.4767 61.9689 75.5971 61.9689 75.7295C61.9689 75.8298 61.9883 75.9201 62.027 76.0003C62.0698 76.0765 62.1376 76.1468 62.2307 76.211C62.3238 76.2751 62.444 76.3353 62.5914 76.3914C62.7427 76.4436 62.9288 76.4918 63.1499 76.5359C63.6037 76.6322 64.009 76.7585 64.3658 76.9151C64.7227 77.0675 65.0058 77.2761 65.2152 77.5409C65.4246 77.8017 65.5294 78.1447 65.5294 78.57C65.5294 78.8589 65.4674 79.1237 65.3432 79.3644C65.2191 79.6051 65.0407 79.8157 64.808 79.9963C64.5753 80.1728 64.2961 80.3112 63.9702 80.4116C63.6483 80.5078 63.2857 80.5559 62.8823 80.5559C62.2967 80.5559 61.8001 80.4477 61.3929 80.231C60.9896 80.0144 60.6831 79.7395 60.4737 79.4066C60.2681 79.0695 60.1653 78.7245 60.1653 78.3714H61.7536C61.7614 78.6082 61.8195 78.7987 61.9281 78.9431C62.0407 79.0876 62.1822 79.1918 62.3528 79.2561C62.5274 79.3203 62.7155 79.3523 62.9172 79.3523C63.1343 79.3523 63.3148 79.3223 63.4583 79.2621C63.6018 79.1979 63.7103 79.1137 63.7841 79.0093C63.8616 78.901 63.9004 78.7767 63.9004 78.6362ZM68.2928 75.1758V82.9391H66.6173V73.9241H68.1707L68.2928 75.1758ZM72.2781 77.1076V77.234C72.2781 77.7074 72.2238 78.1468 72.1152 78.552C72.0104 78.9571 71.8553 79.3102 71.6498 79.6111C71.4441 79.908 71.1882 80.1407 70.8818 80.3092C70.5793 80.4737 70.2302 80.5559 69.8346 80.5559C69.4506 80.5559 69.1171 80.4757 68.8339 80.3153C68.5508 80.1548 68.3122 79.9301 68.1184 79.6413C67.9283 79.3484 67.775 79.0093 67.6587 78.6242C67.5424 78.239 67.4532 77.8258 67.3911 77.3845V77.0535C67.4532 76.58 67.5424 76.1468 67.6587 75.7535C67.775 75.3564 67.9283 75.0133 68.1184 74.7245C68.3122 74.4316 68.5488 74.2049 68.8281 74.0444C69.1112 73.8839 69.4429 73.8037 69.8229 73.8037C70.2224 73.8037 70.5734 73.882 70.876 74.0384C71.1823 74.1949 71.4384 74.4195 71.6439 74.7124C71.8533 75.0053 72.0104 75.3544 72.1152 75.7596C72.2238 76.1648 72.2781 76.6142 72.2781 77.1076ZM70.5967 77.234V77.1076C70.5967 76.8308 70.5734 76.576 70.5269 76.3434C70.4842 76.1066 70.4144 75.9 70.3174 75.7235C70.2244 75.5469 70.1002 75.4105 69.9451 75.3142C69.7938 75.214 69.6096 75.1638 69.3924 75.1638C69.1636 75.1638 68.9677 75.2019 68.8048 75.2781C68.6458 75.3544 68.5159 75.4647 68.415 75.6092C68.3142 75.7535 68.2385 75.9261 68.1881 76.1267C68.1377 76.3273 68.1067 76.5539 68.095 76.8067V77.6432C68.1144 77.9402 68.1687 78.2069 68.2579 78.4436C68.3471 78.6763 68.4848 78.8609 68.671 78.9973C68.8572 79.1337 69.1015 79.2019 69.4041 79.2019C69.6252 79.2019 69.8113 79.1518 69.9626 79.0514C70.1138 78.9471 70.236 78.8047 70.3291 78.6242C70.4261 78.4436 70.4939 78.235 70.5327 77.9983C70.5754 77.7616 70.5967 77.5068 70.5967 77.234ZM76.7171 78.9672V76.0665C76.7171 75.8579 76.6841 75.6793 76.6182 75.5309C76.5522 75.3784 76.4494 75.2601 76.3098 75.1758C76.1741 75.0916 75.9976 75.0494 75.7804 75.0494C75.5942 75.0494 75.4332 75.0836 75.2975 75.1517C75.1618 75.216 75.0571 75.3103 74.9834 75.4346C74.9097 75.555 74.8728 75.6974 74.8728 75.8619H73.1972C73.1972 75.585 73.2594 75.3222 73.3835 75.0735C73.5075 74.8248 73.6879 74.6062 73.9245 74.4176C74.1611 74.225 74.4423 74.0745 74.7681 73.9662C75.0978 73.8579 75.4663 73.8037 75.8735 73.8037C76.3622 73.8037 76.7966 73.888 77.1767 74.0565C77.5567 74.225 77.8554 74.4777 78.0726 74.8147C78.2937 75.1517 78.4042 75.5731 78.4042 76.0786V78.8649C78.4042 79.2219 78.4256 79.5148 78.4682 79.7436C78.5109 79.9682 78.5729 80.1648 78.6544 80.3333V80.4356H76.9614C76.88 80.2591 76.8179 80.0384 76.7752 79.7736C76.7365 79.5048 76.7171 79.236 76.7171 78.9672ZM76.9381 76.4697L76.9498 77.4507H76.0131C75.7921 77.4507 75.6001 77.4767 75.4372 77.5288C75.2743 77.5811 75.1404 77.6553 75.0357 77.7516C74.9309 77.8438 74.8534 77.9521 74.803 78.0765C74.7565 78.2009 74.7332 78.3373 74.7332 78.4858C74.7332 78.6342 74.7662 78.7686 74.8321 78.889C74.898 79.0053 74.9931 79.0976 75.1172 79.1658C75.2412 79.23 75.3867 79.2621 75.5535 79.2621C75.8056 79.2621 76.0247 79.2099 76.2109 79.1057C76.3971 79.0013 76.5406 78.8729 76.6414 78.7205C76.7462 78.568 76.8005 78.4236 76.8043 78.2872L77.2464 79.0214C77.1844 79.1859 77.0991 79.3564 76.9905 79.5329C76.8858 79.7094 76.752 79.876 76.5891 80.0324C76.4262 80.1849 76.2303 80.3112 76.0015 80.4116C75.7727 80.5078 75.5012 80.5559 75.187 80.5559C74.7875 80.5559 74.4248 80.4737 74.099 80.3092C73.7772 80.1407 73.5212 79.91 73.3311 79.6171C73.1449 79.3203 73.0518 78.9833 73.0518 78.6061C73.0518 78.2651 73.1139 77.9622 73.238 77.6974C73.3621 77.4326 73.5444 77.2099 73.7849 77.0294C74.0292 76.8448 74.3337 76.7064 74.6983 76.6142C75.0629 76.5179 75.4856 76.4697 75.9665 76.4697H76.9381ZM82.2963 79.2019C82.5019 79.2019 82.6842 79.1618 82.8432 79.0815C83.0023 78.9973 83.1263 78.8809 83.2155 78.7325C83.3086 78.5801 83.3572 78.4015 83.361 78.1969H84.9377C84.9338 78.6543 84.8155 79.0615 84.5828 79.4185C84.35 79.7716 84.0378 80.0504 83.6461 80.255C83.2544 80.4557 82.8161 80.5559 82.3313 80.5559C81.8425 80.5559 81.4159 80.4717 81.0514 80.3032C80.6906 80.1347 80.39 79.902 80.1496 79.6051C79.9091 79.3042 79.7287 78.9552 79.6085 78.558C79.4883 78.1568 79.4281 77.7275 79.4281 77.2701V77.0956C79.4281 76.6342 79.4883 76.2049 79.6085 75.8078C79.7287 75.4065 79.9091 75.0575 80.1496 74.7606C80.39 74.4597 80.6906 74.225 81.0514 74.0565C81.4121 73.888 81.8348 73.8037 82.3196 73.8037C82.8355 73.8037 83.2873 73.906 83.6752 74.1106C84.0669 74.3153 84.3733 74.6081 84.5944 74.9893C84.8194 75.3664 84.9338 75.8137 84.9377 76.3313H83.361C83.3572 76.1146 83.3126 75.9181 83.2272 75.7416C83.1458 75.565 83.0255 75.4245 82.8665 75.3203C82.7114 75.2119 82.5194 75.1578 82.2905 75.1578C82.0462 75.1578 81.8464 75.2119 81.6913 75.3203C81.5361 75.4245 81.4159 75.569 81.3306 75.7535C81.2452 75.9341 81.1852 76.1407 81.1503 76.3734C81.1192 76.6021 81.1037 76.8428 81.1037 77.0956V77.2701C81.1037 77.5229 81.1192 77.7656 81.1503 77.9983C81.1812 78.231 81.2395 78.4376 81.3247 78.6181C81.414 78.7987 81.5361 78.9411 81.6913 79.0454C81.8464 79.1498 82.0481 79.2019 82.2963 79.2019ZM87.6774 73.9241V80.4356H85.9966V73.9241H87.6774ZM85.8919 72.227C85.8919 71.9743 85.977 71.7656 86.1481 71.6011C86.3183 71.4366 86.5472 71.3544 86.834 71.3544C87.1174 71.3544 87.3447 71.4366 87.5149 71.6011C87.6893 71.7656 87.777 71.9743 87.777 72.227C87.777 72.4798 87.6893 72.6884 87.5149 72.8529C87.3447 73.0174 87.1174 73.0996 86.834 73.0996C86.5472 73.0996 86.3183 73.0174 86.1481 72.8529C85.977 72.6884 85.8919 72.4798 85.8919 72.227ZM88.7949 77.2461V77.1197C88.7949 76.6422 88.8604 76.2029 88.9923 75.8017C89.1242 75.3965 89.3166 75.0455 89.5685 74.7485C89.8204 74.4517 90.131 74.221 90.4995 74.0565C90.8681 73.888 91.291 73.8037 91.7676 73.8037C92.2451 73.8037 92.6698 73.888 93.0417 74.0565C93.4144 74.221 93.7268 74.4517 93.9787 74.7485C94.2349 75.0455 94.4281 75.3965 94.56 75.8017C94.6919 76.2029 94.7583 76.6422 94.7583 77.1197V77.2461C94.7583 77.7194 94.6919 78.1587 94.56 78.564C94.4281 78.9652 94.2349 79.3162 93.9787 79.6171C93.7268 79.9141 93.4161 80.1447 93.0476 80.3092C92.6791 80.4737 92.2561 80.5559 91.7795 80.5559C91.3021 80.5559 90.8774 80.4737 90.5055 80.3092C90.137 80.1447 89.8246 79.9141 89.5685 79.6171C89.3166 79.3162 89.1242 78.9652 88.9923 78.564C88.8604 78.1587 88.7949 77.7194 88.7949 77.2461ZM90.4706 77.1197V77.2461C90.4706 77.5188 90.4936 77.7736 90.5404 78.0103C90.5864 78.247 90.6604 78.4557 90.7617 78.6362C90.8663 78.8128 91.0017 78.9511 91.1685 79.0514C91.3353 79.1518 91.5387 79.2019 91.7795 79.2019C92.0119 79.2019 92.2119 79.1518 92.3787 79.0514C92.5455 78.9511 92.6791 78.8128 92.7804 78.6362C92.8808 78.4557 92.9549 78.247 93.0008 78.0103C93.0519 77.7736 93.0766 77.5188 93.0766 77.2461V77.1197C93.0766 76.8549 93.0519 76.6061 93.0008 76.3734C92.9549 76.1367 92.8791 75.9281 92.7744 75.7475C92.6732 75.563 92.5395 75.4186 92.3727 75.3142C92.2059 75.2099 92.0042 75.1578 91.7676 75.1578C91.531 75.1578 91.3293 75.2099 91.1625 75.3142C91 75.4186 90.8663 75.563 90.7617 75.7475C90.6604 75.9281 90.5864 76.1367 90.5404 76.3734C90.4936 76.6061 90.4706 76.8549 90.4706 77.1197ZM99.1915 78.6362C99.1915 78.5119 99.1566 78.3995 99.0868 78.2992C99.017 78.1989 98.8868 78.1066 98.697 78.0224C98.5106 77.9341 98.2408 77.8539 97.8885 77.7817C97.5702 77.7094 97.2732 77.6192 96.9983 77.5108C96.7268 77.3985 96.4902 77.2641 96.2885 77.1076C96.0902 76.9512 95.9353 76.7666 95.8229 76.5539C95.7106 76.3373 95.6544 76.0906 95.6544 75.8137C95.6544 75.5409 95.7106 75.2841 95.8229 75.0434C95.9395 74.8027 96.1038 74.5901 96.3174 74.4055C96.5344 74.217 96.7983 74.0706 97.1089 73.9662C97.4229 73.8579 97.7753 73.8037 98.1676 73.8037C98.714 73.8037 99.1838 73.894 99.5753 74.0745C99.971 74.2551 100.273 74.5038 100.483 74.8208C100.696 75.1337 100.803 75.4907 100.803 75.892H99.1276C99.1276 75.7235 99.0927 75.5731 99.0229 75.4407C98.9566 75.3042 98.8519 75.1979 98.7081 75.1217C98.5685 75.0414 98.3863 75.0013 98.1617 75.0013C97.9753 75.0013 97.8144 75.0354 97.6783 75.1037C97.5429 75.1678 97.4383 75.256 97.3642 75.3684C97.2944 75.4767 97.2595 75.5971 97.2595 75.7295C97.2595 75.8298 97.2791 75.9201 97.3183 76.0003C97.3608 76.0765 97.4289 76.1468 97.5217 76.211C97.6144 76.2751 97.7353 76.3353 97.8825 76.3914C98.0332 76.4436 98.2195 76.4918 98.4408 76.5359C98.8944 76.6322 99.2995 76.7585 99.657 76.9151C100.014 77.0675 100.297 77.2761 100.506 77.5409C100.716 77.8017 100.82 78.1447 100.82 78.57C100.82 78.8589 100.758 79.1237 100.634 79.3644C100.51 79.6051 100.332 79.8157 100.099 79.9963C99.8663 80.1728 99.5872 80.3112 99.2612 80.4116C98.9395 80.5078 98.5761 80.5559 98.1736 80.5559C97.5872 80.5559 97.091 80.4477 96.6842 80.231C96.2808 80.0144 95.9744 79.7395 95.7642 79.4066C95.5591 79.0695 95.4561 78.7245 95.4561 78.3714H97.0442C97.0519 78.6082 97.1106 78.7987 97.2187 78.9431C97.3319 79.0876 97.4732 79.1918 97.6434 79.2561C97.8187 79.3203 98.0068 79.3523 98.2085 79.3523C98.4255 79.3523 98.6059 79.3223 98.7489 79.2621C98.8927 79.1979 99.0008 79.1137 99.0749 79.0093C99.1523 78.901 99.1915 78.7767 99.1915 78.6362ZM108.279 78.6362C108.279 78.5119 108.244 78.3995 108.174 78.2992C108.104 78.1989 107.974 78.1066 107.784 78.0224C107.598 77.9341 107.328 77.8539 106.975 77.7817C106.658 77.7094 106.361 77.6192 106.085 77.5108C105.814 77.3985 105.577 77.2641 105.375 77.1076C105.178 76.9512 105.023 76.7666 104.911 76.5539C104.797 76.3373 104.741 76.0906 104.741 75.8137C104.741 75.5409 104.797 75.2841 104.911 75.0434C105.026 74.8027 105.191 74.5901 105.405 74.4055C105.622 74.217 105.886 74.0706 106.196 73.9662C106.51 73.8579 106.863 73.8037 107.254 73.8037C107.802 73.8037 108.271 73.894 108.663 74.0745C109.059 74.2551 109.361 74.5038 109.57 74.8208C109.784 75.1337 109.89 75.4907 109.89 75.892H108.214C108.214 75.7235 108.18 75.5731 108.11 75.4407C108.044 75.3042 107.94 75.1979 107.796 75.1217C107.656 75.0414 107.474 75.0013 107.249 75.0013C107.063 75.0013 106.902 75.0354 106.766 75.1037C106.631 75.1678 106.526 75.256 106.452 75.3684C106.382 75.4767 106.347 75.5971 106.347 75.7295C106.347 75.8298 106.367 75.9201 106.405 76.0003C106.448 76.0765 106.516 76.1468 106.609 76.211C106.702 76.2751 106.822 76.3353 106.969 76.3914C107.121 76.4436 107.307 76.4918 107.528 76.5359C107.982 76.6322 108.387 76.7585 108.744 76.9151C109.101 77.0675 109.384 77.2761 109.593 77.5409C109.803 77.8017 109.908 78.1447 109.908 78.57C109.908 78.8589 109.846 79.1237 109.722 79.3644C109.597 79.6051 109.419 79.8157 109.186 79.9963C108.954 80.1728 108.674 80.3112 108.349 80.4116C108.026 80.5078 107.664 80.5559 107.26 80.5559C106.675 80.5559 106.179 80.4477 105.771 80.231C105.368 80.0144 105.061 79.7395 104.852 79.4066C104.647 79.0695 104.544 78.7245 104.544 78.3714H106.132C106.14 78.6082 106.198 78.7987 106.306 78.9431C106.419 79.0876 106.561 79.1918 106.731 79.2561C106.905 79.3203 107.094 79.3523 107.295 79.3523C107.512 79.3523 107.693 79.3223 107.837 79.2621C107.98 79.1979 108.088 79.1137 108.163 79.0093C108.24 78.901 108.279 78.7767 108.279 78.6362ZM111.077 79.5991C111.077 79.3423 111.163 79.1277 111.333 78.9552C111.507 78.7826 111.739 78.6964 112.026 78.6964C112.312 78.6964 112.541 78.7826 112.712 78.9552C112.887 79.1277 112.974 79.3423 112.974 79.5991C112.974 79.8559 112.887 80.0705 112.712 80.243C112.541 80.4155 112.312 80.5018 112.026 80.5018C111.739 80.5018 111.507 80.4155 111.333 80.243C111.163 80.0705 111.077 79.8559 111.077 79.5991ZM117.849 78.9672V76.0665C117.849 75.8579 117.816 75.6793 117.75 75.5309C117.684 75.3784 117.581 75.2601 117.442 75.1758C117.306 75.0916 117.129 75.0494 116.912 75.0494C116.726 75.0494 116.565 75.0836 116.43 75.1517C116.294 75.216 116.189 75.3103 116.116 75.4346C116.042 75.555 116.005 75.6974 116.005 75.8619H114.329C114.329 75.585 114.391 75.3222 114.516 75.0735C114.639 74.8248 114.82 74.6062 115.056 74.4176C115.293 74.225 115.574 74.0745 115.9 73.9662C116.23 73.8579 116.598 73.8037 117.005 73.8037C117.494 73.8037 117.928 73.888 118.309 74.0565C118.688 74.225 118.987 74.4777 119.204 74.8147C119.426 75.1517 119.536 75.5731 119.536 76.0786V78.8649C119.536 79.2219 119.557 79.5148 119.6 79.7436C119.643 79.9682 119.705 80.1648 119.786 80.3333V80.4356H118.094C118.012 80.2591 117.95 80.0384 117.907 79.7736C117.868 79.5048 117.849 79.236 117.849 78.9672ZM118.07 76.4697L118.082 77.4507H117.145C116.924 77.4507 116.732 77.4767 116.569 77.5288C116.406 77.5811 116.272 77.6553 116.168 77.7516C116.063 77.8438 115.985 77.9521 115.935 78.0765C115.888 78.2009 115.865 78.3373 115.865 78.4858C115.865 78.6342 115.898 78.7686 115.964 78.889C116.03 79.0053 116.125 79.0976 116.249 79.1658C116.374 79.23 116.519 79.2621 116.685 79.2621C116.938 79.2621 117.157 79.2099 117.343 79.1057C117.529 79.0013 117.672 78.8729 117.774 78.7205C117.878 78.568 117.933 78.4236 117.936 78.2872L118.379 79.0214C118.317 79.1859 118.231 79.3564 118.123 79.5329C118.018 79.7094 117.884 79.876 117.721 80.0324C117.558 80.1849 117.363 80.3112 117.134 80.4116C116.905 80.5078 116.633 80.5559 116.319 80.5559C115.919 80.5559 115.557 80.4737 115.231 80.3092C114.909 80.1407 114.653 79.91 114.463 79.6171C114.277 79.3203 114.184 78.9833 114.184 78.6061C114.184 78.2651 114.246 77.9622 114.37 77.6974C114.494 77.4326 114.677 77.2099 114.917 77.0294C115.161 76.8448 115.465 76.7064 115.831 76.6142C116.195 76.5179 116.618 76.4697 117.099 76.4697H118.07ZM127.512 79.0153V71.1919H129.2V80.4356H127.681L127.512 79.0153ZM123.533 77.2581V77.1317C123.533 76.6342 123.587 76.1829 123.696 75.7777C123.804 75.3684 123.963 75.0174 124.173 74.7245C124.382 74.4316 124.64 74.2049 124.946 74.0444C125.254 73.8839 125.603 73.8037 125.994 73.8037C126.363 73.8037 126.684 73.8839 126.96 74.0444C127.239 74.2049 127.476 74.4336 127.67 74.7305C127.867 75.0234 128.026 75.3704 128.146 75.7716C128.267 76.1688 128.354 76.6041 128.408 77.0775V77.3544C128.354 77.8077 128.267 78.229 128.146 78.6181C128.026 79.0073 127.867 79.3484 127.67 79.6413C127.476 79.9301 127.239 80.1548 126.96 80.3153C126.681 80.4757 126.355 80.5559 125.982 80.5559C125.591 80.5559 125.242 80.4737 124.935 80.3092C124.632 80.1447 124.377 79.9141 124.167 79.6171C123.962 79.3203 123.804 78.9712 123.696 78.57C123.587 78.1688 123.533 77.7315 123.533 77.2581ZM125.208 77.1317V77.2581C125.208 77.5269 125.228 77.7776 125.266 78.0103C125.31 78.243 125.377 78.4496 125.471 78.6302C125.568 78.8067 125.692 78.9452 125.843 79.0454C125.998 79.1417 126.186 79.1899 126.407 79.1899C126.694 79.1899 126.931 79.1237 127.117 78.9913C127.303 78.8548 127.444 78.6683 127.541 78.4316C127.643 78.1949 127.7 77.9221 127.716 77.6131V76.8247C127.705 76.572 127.67 76.3453 127.611 76.1448C127.557 75.9402 127.476 75.7656 127.367 75.6211C127.262 75.4767 127.13 75.3644 126.971 75.2841C126.816 75.2039 126.632 75.1638 126.419 75.1638C126.202 75.1638 126.015 75.216 125.86 75.3203C125.705 75.4206 125.579 75.559 125.482 75.7355C125.389 75.9121 125.319 76.1206 125.272 76.3614C125.23 76.5981 125.208 76.8549 125.208 77.1317ZM133.406 80.5559C132.917 80.5559 132.479 80.4757 132.091 80.3153C131.703 80.1507 131.374 79.924 131.102 79.6352C130.834 79.3463 130.629 79.0114 130.485 78.6302C130.342 78.245 130.27 77.8358 130.27 77.4025V77.1617C130.27 76.6683 130.338 76.217 130.474 75.8078C130.609 75.3985 130.803 75.0434 131.055 74.7425C131.311 74.4416 131.622 74.211 131.986 74.0505C132.351 73.886 132.762 73.8037 133.22 73.8037C133.666 73.8037 134.061 73.88 134.407 74.0324C134.751 74.1848 135.041 74.4015 135.273 74.6823C135.51 74.9632 135.688 75.3002 135.808 75.6934C135.928 76.0825 135.989 76.5158 135.989 76.9932V77.7155H130.986V76.56H134.343V76.4276C134.343 76.1868 134.3 75.9722 134.214 75.7836C134.133 75.5911 134.009 75.4386 133.843 75.3263C133.676 75.214 133.462 75.1578 133.203 75.1578C132.981 75.1578 132.791 75.2079 132.632 75.3082C132.473 75.4085 132.343 75.5489 132.243 75.7295C132.145 75.9101 132.071 76.1227 132.021 76.3674C131.974 76.6081 131.951 76.8729 131.951 77.1617V77.4025C131.951 77.6633 131.986 77.904 132.056 78.1247C132.13 78.3454 132.232 78.5359 132.364 78.6964C132.5 78.8569 132.663 78.9813 132.854 79.0695C133.047 79.1578 133.266 79.2019 133.511 79.2019C133.813 79.2019 134.094 79.1417 134.354 79.0214C134.618 78.897 134.845 78.7105 135.035 78.4617L135.849 79.3764C135.717 79.573 135.537 79.7616 135.308 79.9422C135.083 80.1226 134.812 80.2711 134.494 80.3874C134.176 80.4998 133.813 80.5559 133.406 80.5559ZM142.511 79.2019C142.717 79.2019 142.899 79.1618 143.058 79.0815C143.217 78.9973 143.34 78.8809 143.43 78.7325C143.523 78.5801 143.572 78.4015 143.575 78.1969H145.152C145.148 78.6543 145.03 79.0615 144.797 79.4185C144.564 79.7716 144.252 80.0504 143.86 80.255C143.469 80.4557 143.031 80.5559 142.545 80.5559C142.057 80.5559 141.631 80.4717 141.265 80.3032C140.905 80.1347 140.604 79.902 140.364 79.6051C140.123 79.3042 139.943 78.9552 139.823 78.558C139.703 78.1568 139.643 77.7275 139.643 77.2701V77.0956C139.643 76.6342 139.703 76.2049 139.823 75.8078C139.943 75.4065 140.123 75.0575 140.364 74.7606C140.604 74.4597 140.905 74.225 141.265 74.0565C141.626 73.888 142.049 73.8037 142.534 73.8037C143.05 73.8037 143.502 73.906 143.889 74.1106C144.282 74.3153 144.588 74.6081 144.808 74.9893C145.034 75.3664 145.148 75.8137 145.152 76.3313H143.575C143.572 76.1146 143.527 75.9181 143.442 75.7416C143.36 75.565 143.24 75.4245 143.081 75.3203C142.926 75.2119 142.734 75.1578 142.505 75.1578C142.26 75.1578 142.061 75.2119 141.905 75.3203C141.751 75.4245 141.631 75.569 141.545 75.7535C141.46 75.9341 141.4 76.1407 141.365 76.3734C141.334 76.6021 141.318 76.8428 141.318 77.0956V77.2701C141.318 77.5229 141.334 77.7656 141.365 77.9983C141.396 78.231 141.454 78.4376 141.54 78.6181C141.628 78.7987 141.751 78.9411 141.905 79.0454C142.061 79.1498 142.263 79.2019 142.511 79.2019ZM146.205 79.5991C146.205 79.3423 146.29 79.1277 146.461 78.9552C146.636 78.7826 146.866 78.6964 147.153 78.6964C147.441 78.6964 147.669 78.7826 147.84 78.9552C148.014 79.1277 148.102 79.3423 148.102 79.5991C148.102 79.8559 148.014 80.0705 147.84 80.243C147.669 80.4155 147.441 80.5018 147.153 80.5018C146.866 80.5018 146.636 80.4155 146.461 80.243C146.29 80.0705 146.205 79.8559 146.205 79.5991ZM151.72 79.1719L153.117 73.9241H154.868L152.745 80.4356H151.685L151.72 79.1719ZM150.761 73.9241L152.163 79.1778L152.191 80.4356H151.127L149.003 73.9241H150.761ZM154.839 79.5991C154.839 79.3423 154.924 79.1277 155.094 78.9552C155.269 78.7826 155.5 78.6964 155.787 78.6964C156.074 78.6964 156.303 78.7826 156.473 78.9552C156.648 79.1277 156.735 79.3423 156.735 79.5991C156.735 79.8559 156.648 80.0705 156.473 80.243C156.303 80.4155 156.074 80.5018 155.787 80.5018C155.5 80.5018 155.269 80.4155 155.094 80.243C154.924 80.0705 154.839 79.8559 154.839 79.5991Z" fill="#0A0E39"/>
<path d="M1.70215 67.2305H154.894" stroke="#DC292A" stroke-width="2"/>
<path d="M157.447 66.7902C157.447 68.4919 156.113 69.8715 154.468 69.8715C152.823 69.8715 151.489 68.4919 151.489 66.7902C151.489 65.0885 152.823 63.709 154.468 63.709C156.113 63.709 157.447 65.0885 157.447 66.7902Z" fill="#DC292A"/>
<path d="M65.2821 20.5478C70.0685 20.5478 73.9487 16.5219 73.9487 11.5557C73.9487 6.58941 70.0685 2.56348 65.2821 2.56348C60.4956 2.56348 56.6154 6.58941 56.6154 11.5557C56.6154 16.5219 60.4956 20.5478 65.2821 20.5478Z" fill="#DC292A" stroke="white" stroke-width="2"/>
</svg>
