<svg width="156" height="82" viewBox="0 0 156 82" fill="none" xmlns="http://www.w3.org/2000/svg">
<g clip-path="url(#clip0_183_290)">
<path d="M62.3915 58.3073V13.3037H74.4085V58.3073H62.3915ZM65.966 58.3073V47.7079H93.983V58.3073H65.966ZM69.4724 40.5594V30.453H93.1319V40.5594H69.4724ZM65.966 23.7975V13.3037H93.6766V23.7975H65.966Z" fill="#F4F5FF"/>
<path d="M2.12231 72.9241V79.4356H0.440958V72.9241H2.12231ZM0.336243 71.227C0.336243 70.9743 0.42157 70.7656 0.592226 70.6011C0.762881 70.4366 0.991715 70.3544 1.27873 70.3544C1.56186 70.3544 1.78875 70.4366 1.95941 70.6011C2.13394 70.7656 2.22121 70.9743 2.22121 71.227C2.22121 71.4798 2.13394 71.6884 1.95941 71.8529C1.78875 72.0174 1.56186 72.0996 1.27873 72.0996C0.991715 72.0996 0.762881 72.0174 0.592226 71.8529C0.42157 71.6884 0.336243 71.4798 0.336243 71.227ZM5.18248 74.2722V79.4356H3.50114V72.9241H5.07777L5.18248 74.2722ZM4.94977 75.9512H4.48434C4.48434 75.4978 4.5367 75.0806 4.64143 74.6994C4.75003 74.3142 4.90711 73.9813 5.11267 73.7005C5.32211 73.4156 5.58004 73.1949 5.88644 73.0384C6.19285 72.882 6.54771 72.8037 6.95112 72.8037C7.23035 72.8037 7.48635 72.8478 7.71903 72.9361C7.9518 73.0204 8.15154 73.1548 8.31827 73.3393C8.48891 73.5199 8.62082 73.7566 8.71393 74.0494C8.80695 74.3384 8.8535 74.6854 8.8535 75.0906V79.4356H7.17801V75.2832C7.17801 74.9863 7.1392 74.7576 7.06167 74.5971C6.98406 74.4366 6.8735 74.3243 6.73001 74.2601C6.59044 74.1959 6.42168 74.1638 6.22388 74.1638C6.00668 74.1638 5.81663 74.2099 5.65372 74.3022C5.49471 74.3945 5.36284 74.5229 5.25811 74.6873C5.15339 74.8478 5.07583 75.0364 5.0254 75.253C4.97498 75.4697 4.94977 75.7024 4.94977 75.9512ZM8.69648 75.7526L8.09725 75.8308C8.09725 75.4055 8.14763 75.0103 8.24848 74.6452C8.35316 74.2802 8.50644 73.9592 8.70805 73.6823C8.91367 73.4055 9.16771 73.1909 9.47018 73.0384C9.77274 72.882 10.1218 72.8037 10.5174 72.8037C10.82 72.8037 11.0953 72.8499 11.3435 72.9421C11.5918 73.0304 11.8032 73.1729 11.9777 73.3694C12.1561 73.562 12.2919 73.8147 12.3849 74.1277C12.4819 74.4407 12.5304 74.8238 12.5304 75.2772V79.4356H10.8491V75.2772C10.8491 74.9763 10.8103 74.7475 10.7327 74.5911C10.6589 74.4306 10.5504 74.3203 10.4069 74.2601C10.2673 74.1959 10.1005 74.1638 9.90652 74.1638C9.70491 74.1638 9.5284 74.2059 9.37716 74.2902C9.22584 74.3704 9.0998 74.4827 8.99895 74.6272C8.8981 74.7716 8.82252 74.9402 8.77205 75.1327C8.72167 75.3213 8.69648 75.5279 8.69648 75.7526ZM17.2253 77.9672V75.0665C17.2253 74.8579 17.1924 74.6793 17.1264 74.5309C17.0606 74.3784 16.9578 74.2601 16.8181 74.1758C16.6824 74.0916 16.5059 74.0494 16.2887 74.0494C16.1025 74.0494 15.9416 74.0836 15.8058 74.1517C15.6701 74.216 15.5653 74.3103 15.4916 74.4346C15.4179 74.555 15.3812 74.6974 15.3812 74.8619H13.7056C13.7056 74.585 13.7676 74.3222 13.8918 74.0735C14.0159 73.8248 14.1962 73.6062 14.4328 73.4176C14.6694 73.225 14.9506 73.0745 15.2764 72.9662C15.6061 72.8579 15.9745 72.8037 16.3818 72.8037C16.8705 72.8037 17.3049 72.888 17.685 73.0565C18.0651 73.225 18.3637 73.4777 18.5809 73.8147C18.802 74.1517 18.9126 74.5731 18.9126 75.0786V77.8649C18.9126 78.2219 18.9338 78.5148 18.9766 78.7436C19.0192 78.9682 19.0812 79.1648 19.1627 79.3333V79.4356H17.4698C17.3882 79.2591 17.3262 79.0384 17.2835 78.7736C17.2447 78.5048 17.2253 78.236 17.2253 77.9672ZM17.4464 75.4697L17.4581 76.4507H16.5214C16.3003 76.4507 16.1083 76.4767 15.9454 76.5288C15.7825 76.5811 15.6487 76.6553 15.5441 76.7516C15.4393 76.8438 15.3618 76.9521 15.3113 77.0765C15.2647 77.2009 15.2415 77.3373 15.2415 77.4858C15.2415 77.6342 15.2744 77.7686 15.3404 77.889C15.4064 78.0053 15.5013 78.0976 15.6255 78.1658C15.7496 78.23 15.895 78.2621 16.0618 78.2621C16.3139 78.2621 16.5331 78.2099 16.7192 78.1057C16.9054 78.0013 17.0489 77.8729 17.1498 77.7205C17.2544 77.568 17.3087 77.4236 17.3127 77.2872L17.7548 78.0214C17.6927 78.1859 17.6074 78.3564 17.4988 78.5329C17.3941 78.7094 17.2603 78.876 17.0974 79.0324C16.9344 79.1849 16.7386 79.3112 16.5098 79.4116C16.2809 79.5078 16.0094 79.5559 15.6953 79.5559C15.2958 79.5559 14.9332 79.4737 14.6074 79.3092C14.2854 79.1407 14.0294 78.91 13.8394 78.6171C13.6532 78.3203 13.5601 77.9833 13.5601 77.6061C13.5601 77.2651 13.6222 76.9622 13.7464 76.6974C13.8704 76.4326 14.0527 76.2099 14.2932 76.0294C14.5375 75.8448 14.842 75.7064 15.2066 75.6142C15.5712 75.5179 15.9939 75.4697 16.4749 75.4697H17.4464ZM24.1893 72.9241H25.7077V79.2189C25.7077 79.8127 25.5797 80.3162 25.3238 80.7295C25.0716 81.1467 24.7187 81.4616 24.2649 81.6743C23.8111 81.891 23.2836 81.9993 22.6825 81.9993C22.4188 81.9993 22.1395 81.9632 21.8447 81.891C21.5538 81.8187 21.2746 81.7064 21.0069 81.5539C20.7432 81.4015 20.5221 81.2089 20.3437 80.9762L21.0826 79.9532C21.2765 80.1858 21.5015 80.3664 21.7574 80.4948C22.0134 80.6272 22.2966 80.6934 22.6069 80.6934C22.9094 80.6934 23.1653 80.6352 23.3748 80.5189C23.5842 80.4065 23.7452 80.24 23.8577 80.0194C23.9702 79.8027 24.0264 79.5399 24.0264 79.231V74.4286L24.1893 72.9241ZM19.9539 76.2581V76.1317C19.9539 75.6342 20.0121 75.1829 20.1285 74.7777C20.2487 74.3684 20.4174 74.0174 20.6346 73.7245C20.8557 73.4316 21.1233 73.2049 21.4375 73.0444C21.7516 72.8839 22.1065 72.8037 22.5021 72.8037C22.921 72.8037 23.2721 72.8839 23.5551 73.0444C23.8383 73.2049 24.071 73.4336 24.2533 73.7305C24.4355 74.0234 24.5772 74.3704 24.678 74.7716C24.7827 75.1688 24.8641 75.6041 24.9224 76.0775V76.3544C24.8641 76.8077 24.7769 77.229 24.6606 77.6181C24.5442 78.0073 24.3909 78.3484 24.2009 78.6413C24.0109 78.9301 23.7743 79.1548 23.4911 79.3153C23.2119 79.4757 22.8784 79.5559 22.4905 79.5559C22.1026 79.5559 21.7516 79.4737 21.4375 79.3092C21.1272 79.1447 20.8615 78.9141 20.6404 78.6171C20.4194 78.3203 20.2487 77.9712 20.1285 77.57C20.0121 77.1688 19.9539 76.7315 19.9539 76.2581ZM21.6294 76.1317V76.2581C21.6294 76.5269 21.6547 76.7776 21.7051 77.0103C21.7555 77.243 21.8331 77.4496 21.9378 77.6302C22.0464 77.8067 22.1802 77.9452 22.3392 78.0454C22.5021 78.1417 22.6941 78.1899 22.9152 78.1899C23.2216 78.1899 23.4718 78.1237 23.6657 77.9913C23.8596 77.8548 24.0051 77.6683 24.102 77.4316C24.199 77.1949 24.2552 76.9221 24.2708 76.6131V75.8247C24.2629 75.572 24.23 75.3453 24.1719 75.1448C24.1137 74.9402 24.0322 74.7656 23.9275 74.6211C23.8228 74.4767 23.687 74.3644 23.5202 74.2841C23.3535 74.2039 23.1556 74.1638 22.9269 74.1638C22.7058 74.1638 22.5138 74.216 22.3509 74.3203C22.1919 74.4206 22.058 74.559 21.9494 74.7355C21.8447 74.9121 21.7652 75.1206 21.7109 75.3614C21.6566 75.5981 21.6294 75.8549 21.6294 76.1317ZM29.9082 79.5559C29.4195 79.5559 28.9812 79.4757 28.5934 79.3153C28.2055 79.1507 27.8759 78.924 27.6044 78.6352C27.3367 78.3463 27.1312 78.0114 26.9876 77.6302C26.8441 77.245 26.7724 76.8358 26.7724 76.4025V76.1617C26.7724 75.6683 26.8403 75.217 26.9761 74.8078C27.1118 74.3985 27.3057 74.0434 27.5578 73.7425C27.8138 73.4416 28.1241 73.211 28.4886 73.0505C28.8532 72.886 29.2644 72.8037 29.722 72.8037C30.1681 72.8037 30.5637 72.88 30.9089 73.0324C31.2541 73.1848 31.543 73.4015 31.7757 73.6823C32.0123 73.9632 32.1908 74.3002 32.3109 74.6934C32.4312 75.0825 32.4913 75.5158 32.4913 75.9932V76.7155H27.488V75.56H30.8449V75.4276C30.8449 75.1868 30.8022 74.9722 30.7169 74.7836C30.6355 74.5911 30.5113 74.4386 30.3446 74.3263C30.1778 74.214 29.9645 74.1578 29.7046 74.1578C29.4835 74.1578 29.2935 74.2079 29.1344 74.3082C28.9755 74.4085 28.8455 74.5489 28.7446 74.7295C28.6477 74.9101 28.574 75.1227 28.5235 75.3674C28.477 75.6081 28.4538 75.8729 28.4538 76.1617V76.4025C28.4538 76.6633 28.4886 76.904 28.5584 77.1247C28.6321 77.3454 28.7349 77.5359 28.8669 77.6964C29.0026 77.8569 29.1655 77.9813 29.3555 78.0695C29.5494 78.1578 29.7686 78.2019 30.0129 78.2019C30.3155 78.2019 30.5966 78.1417 30.8565 78.0214C31.1202 77.897 31.3471 77.7105 31.5372 77.4617L32.3517 78.3764C32.2198 78.573 32.0395 78.7616 31.8106 78.9422C31.5857 79.1226 31.3142 79.2711 30.9961 79.3874C30.6781 79.4998 30.3155 79.5559 29.9082 79.5559ZM35.0861 74.3142V79.4356H33.4105V72.9241H34.9813L35.0861 74.3142ZM34.8418 75.9512H34.388C34.388 75.4697 34.4481 75.0364 34.5683 74.6512C34.6885 74.2621 34.8572 73.9311 35.0744 73.6583C35.2916 73.3814 35.5496 73.1708 35.8482 73.0264C36.1507 72.8779 36.4881 72.8037 36.8605 72.8037C37.1553 72.8037 37.4248 72.8478 37.6692 72.9361C37.9135 73.0243 38.1229 73.1648 38.2975 73.3574C38.4759 73.55 38.6117 73.8047 38.7047 74.1217C38.8018 74.4386 38.8502 74.8258 38.8502 75.2832V79.4356H37.163V75.2772C37.163 74.9882 37.1242 74.7636 37.0467 74.6031C36.9691 74.4427 36.8547 74.3303 36.7035 74.2661C36.5561 74.1979 36.3738 74.1638 36.1566 74.1638C35.9316 74.1638 35.7357 74.2099 35.569 74.3022C35.406 74.3945 35.2703 74.5229 35.1617 74.6873C35.057 74.8478 34.9775 75.0364 34.9232 75.253C34.8689 75.4697 34.8418 75.7024 34.8418 75.9512ZM44.9589 78.7014L46.6286 72.9241H48.4263L45.8955 80.4166C45.8412 80.581 45.7676 80.7575 45.6745 80.9461C45.5853 81.1347 45.4631 81.3132 45.308 81.4817C45.1567 81.6543 44.9647 81.7947 44.7321 81.903C44.5032 82.0113 44.222 82.0655 43.8884 82.0655C43.7294 82.0655 43.5995 82.0554 43.4986 82.0354C43.3978 82.0153 43.2776 81.9872 43.1379 81.9511V80.6813C43.1806 80.6813 43.2252 80.6813 43.2717 80.6813C43.3183 80.6853 43.3629 80.6874 43.4056 80.6874C43.6266 80.6874 43.8069 80.6613 43.9466 80.6091C44.0863 80.557 44.1987 80.4767 44.2841 80.3684C44.3693 80.2641 44.4372 80.1276 44.4876 79.9591L44.9589 78.7014ZM44.2607 72.9241L45.628 77.6422L45.8665 79.4778L44.7262 79.6041L42.463 72.9241H44.2607ZM54.9597 79.5559C54.471 79.5559 54.0327 79.4757 53.6449 79.3153C53.2571 79.1507 52.9274 78.924 52.6559 78.6352C52.3882 78.3463 52.1827 78.0114 52.0392 77.6302C51.8957 77.245 51.824 76.8358 51.824 76.4025V76.1617C51.824 75.6683 51.8918 75.217 52.0275 74.8078C52.1633 74.3985 52.3572 74.0434 52.6093 73.7425C52.8653 73.4416 53.1756 73.211 53.5402 73.0505C53.9048 72.886 54.3159 72.8037 54.7736 72.8037C55.2196 72.8037 55.6152 72.88 55.9604 73.0324C56.3056 73.1848 56.5945 73.4015 56.8273 73.6823C57.0639 73.9632 57.2423 74.3002 57.3625 74.6934C57.4828 75.0825 57.5429 75.5158 57.5429 75.9932V76.7155H52.5395V75.56H55.8964V75.4276C55.8964 75.1868 55.8538 74.9722 55.7684 74.7836C55.6869 74.5911 55.5629 74.4386 55.3961 74.3263C55.2293 74.214 55.016 74.1578 54.7561 74.1578C54.535 74.1578 54.345 74.2079 54.186 74.3082C54.0269 74.4085 53.897 74.5489 53.7961 74.7295C53.6992 74.9101 53.6255 75.1227 53.5751 75.3674C53.5286 75.6081 53.5053 75.8729 53.5053 76.1617V76.4025C53.5053 76.6633 53.5402 76.904 53.61 77.1247C53.6837 77.3454 53.7865 77.5359 53.9184 77.6964C54.0541 77.8569 54.217 77.9813 54.407 78.0695C54.601 78.1578 54.8201 78.2019 55.0645 78.2019C55.3669 78.2019 55.6482 78.1417 55.9081 78.0214C56.1718 77.897 56.3987 77.7105 56.5887 77.4617L57.4032 78.3764C57.2714 78.573 57.091 78.7616 56.8622 78.9422C56.6372 79.1226 56.3658 79.2711 56.0477 79.3874C55.7297 79.4998 55.3669 79.5559 54.9597 79.5559ZM61.9004 77.6362C61.9004 77.5119 61.8655 77.3995 61.7957 77.2992C61.7258 77.1989 61.596 77.1066 61.4059 77.0224C61.2197 76.9341 60.9502 76.8539 60.5972 76.7817C60.2792 76.7094 59.9824 76.6192 59.7071 76.5108C59.4355 76.3985 59.199 76.2641 58.9973 76.1076C58.7995 75.9512 58.6444 75.7666 58.5319 75.5539C58.4194 75.3373 58.3632 75.0906 58.3632 74.8137C58.3632 74.5409 58.4194 74.2841 58.5319 74.0434C58.6482 73.8027 58.8131 73.5901 59.0264 73.4055C59.2436 73.217 59.5074 73.0706 59.8176 72.9662C60.1318 72.8579 60.4847 72.8037 60.8765 72.8037C61.4234 72.8037 61.8927 72.894 62.2844 73.0745C62.68 73.2551 62.9825 73.5038 63.192 73.8208C63.4052 74.1337 63.512 74.4907 63.512 74.892H61.8364C61.8364 74.7235 61.8015 74.5731 61.7317 74.4407C61.6658 74.3042 61.561 74.1979 61.4175 74.1217C61.2779 74.0414 61.0956 74.0013 60.8706 74.0013C60.6845 74.0013 60.5235 74.0354 60.3878 74.1037C60.2521 74.1678 60.1473 74.256 60.0736 74.3684C60.0038 74.4767 59.9689 74.5971 59.9689 74.7295C59.9689 74.8298 59.9883 74.9201 60.027 75.0003C60.0698 75.0765 60.1376 75.1468 60.2307 75.211C60.3238 75.2751 60.444 75.3353 60.5914 75.3914C60.7427 75.4436 60.9288 75.4918 61.1499 75.5359C61.6037 75.6322 62.009 75.7585 62.3658 75.9151C62.7227 76.0675 63.0058 76.2761 63.2152 76.5409C63.4246 76.8017 63.5294 77.1447 63.5294 77.57C63.5294 77.8589 63.4674 78.1237 63.3432 78.3644C63.2191 78.6051 63.0407 78.8157 62.808 78.9963C62.5753 79.1728 62.2961 79.3112 61.9702 79.4116C61.6483 79.5078 61.2857 79.5559 60.8823 79.5559C60.2967 79.5559 59.8001 79.4477 59.3929 79.231C58.9896 79.0144 58.6831 78.7395 58.4737 78.4066C58.2681 78.0695 58.1653 77.7245 58.1653 77.3714H59.7536C59.7614 77.6082 59.8195 77.7987 59.9281 77.9431C60.0407 78.0876 60.1822 78.1918 60.3528 78.2561C60.5274 78.3203 60.7155 78.3523 60.9172 78.3523C61.1343 78.3523 61.3148 78.3223 61.4583 78.2621C61.6018 78.1979 61.7103 78.1137 61.7841 78.0093C61.8616 77.901 61.9004 77.7767 61.9004 77.6362ZM66.2928 74.1758V81.9391H64.6173V72.9241H66.1707L66.2928 74.1758ZM70.2781 76.1076V76.234C70.2781 76.7074 70.2238 77.1468 70.1152 77.552C70.0104 77.9571 69.8553 78.3102 69.6498 78.6111C69.4441 78.908 69.1882 79.1407 68.8818 79.3092C68.5793 79.4737 68.2302 79.5559 67.8346 79.5559C67.4506 79.5559 67.1171 79.4757 66.8339 79.3153C66.5508 79.1548 66.3122 78.9301 66.1184 78.6413C65.9283 78.3484 65.775 78.0093 65.6587 77.6242C65.5424 77.239 65.4532 76.8258 65.3911 76.3845V76.0535C65.4532 75.58 65.5424 75.1468 65.6587 74.7535C65.775 74.3564 65.9283 74.0133 66.1184 73.7245C66.3122 73.4316 66.5488 73.2049 66.8281 73.0444C67.1112 72.8839 67.4429 72.8037 67.8229 72.8037C68.2224 72.8037 68.5734 72.882 68.876 73.0384C69.1823 73.1949 69.4384 73.4195 69.6439 73.7124C69.8533 74.0053 70.0104 74.3544 70.1152 74.7596C70.2238 75.1648 70.2781 75.6142 70.2781 76.1076ZM68.5967 76.234V76.1076C68.5967 75.8308 68.5734 75.576 68.5269 75.3434C68.4842 75.1066 68.4144 74.9 68.3174 74.7235C68.2244 74.5469 68.1002 74.4105 67.9451 74.3142C67.7938 74.214 67.6096 74.1638 67.3924 74.1638C67.1636 74.1638 66.9677 74.2019 66.8048 74.2781C66.6458 74.3544 66.5159 74.4647 66.415 74.6092C66.3142 74.7535 66.2385 74.9261 66.1881 75.1267C66.1377 75.3273 66.1067 75.5539 66.095 75.8067V76.6432C66.1144 76.9402 66.1687 77.2069 66.2579 77.4436C66.3471 77.6763 66.4848 77.8609 66.671 77.9973C66.8572 78.1337 67.1015 78.2019 67.4041 78.2019C67.6252 78.2019 67.8113 78.1518 67.9626 78.0514C68.1138 77.9471 68.236 77.8047 68.3291 77.6242C68.4261 77.4436 68.4939 77.235 68.5327 76.9983C68.5754 76.7616 68.5967 76.5068 68.5967 76.234ZM74.7171 77.9672V75.0665C74.7171 74.8579 74.6841 74.6793 74.6182 74.5309C74.5522 74.3784 74.4494 74.2601 74.3098 74.1758C74.1741 74.0916 73.9976 74.0494 73.7804 74.0494C73.5942 74.0494 73.4332 74.0836 73.2975 74.1517C73.1618 74.216 73.0571 74.3103 72.9834 74.4346C72.9097 74.555 72.8728 74.6974 72.8728 74.8619H71.1972C71.1972 74.585 71.2594 74.3222 71.3835 74.0735C71.5075 73.8248 71.6879 73.6062 71.9245 73.4176C72.1611 73.225 72.4423 73.0745 72.7681 72.9662C73.0978 72.8579 73.4663 72.8037 73.8735 72.8037C74.3622 72.8037 74.7966 72.888 75.1767 73.0565C75.5567 73.225 75.8554 73.4777 76.0726 73.8147C76.2937 74.1517 76.4042 74.5731 76.4042 75.0786V77.8649C76.4042 78.2219 76.4256 78.5148 76.4682 78.7436C76.5109 78.9682 76.5729 79.1648 76.6544 79.3333V79.4356H74.9614C74.88 79.2591 74.8179 79.0384 74.7752 78.7736C74.7365 78.5048 74.7171 78.236 74.7171 77.9672ZM74.9381 75.4697L74.9498 76.4507H74.0131C73.7921 76.4507 73.6001 76.4767 73.4372 76.5288C73.2743 76.5811 73.1404 76.6553 73.0357 76.7516C72.9309 76.8438 72.8534 76.9521 72.803 77.0765C72.7565 77.2009 72.7332 77.3373 72.7332 77.4858C72.7332 77.6342 72.7662 77.7686 72.8321 77.889C72.898 78.0053 72.9931 78.0976 73.1172 78.1658C73.2412 78.23 73.3867 78.2621 73.5535 78.2621C73.8056 78.2621 74.0247 78.2099 74.2109 78.1057C74.3971 78.0013 74.5406 77.8729 74.6414 77.7205C74.7462 77.568 74.8005 77.4236 74.8043 77.2872L75.2464 78.0214C75.1844 78.1859 75.0991 78.3564 74.9905 78.5329C74.8858 78.7094 74.752 78.876 74.5891 79.0324C74.4262 79.1849 74.2303 79.3112 74.0015 79.4116C73.7727 79.5078 73.5012 79.5559 73.187 79.5559C72.7875 79.5559 72.4248 79.4737 72.099 79.3092C71.7772 79.1407 71.5212 78.91 71.3311 78.6171C71.1449 78.3203 71.0518 77.9833 71.0518 77.6061C71.0518 77.2651 71.1139 76.9622 71.238 76.6974C71.3621 76.4326 71.5444 76.2099 71.7849 76.0294C72.0292 75.8448 72.3337 75.7064 72.6983 75.6142C73.0629 75.5179 73.4856 75.4697 73.9665 75.4697H74.9381ZM80.2963 78.2019C80.5019 78.2019 80.6842 78.1618 80.8432 78.0815C81.0023 77.9973 81.1263 77.8809 81.2155 77.7325C81.3086 77.5801 81.3572 77.4015 81.361 77.1969H82.9377C82.9338 77.6543 82.8155 78.0615 82.5828 78.4185C82.35 78.7716 82.0378 79.0504 81.6461 79.255C81.2544 79.4557 80.8161 79.5559 80.3313 79.5559C79.8425 79.5559 79.4159 79.4717 79.0514 79.3032C78.6906 79.1347 78.39 78.902 78.1496 78.6051C77.9091 78.3042 77.7287 77.9552 77.6085 77.558C77.4883 77.1568 77.4281 76.7275 77.4281 76.2701V76.0956C77.4281 75.6342 77.4883 75.2049 77.6085 74.8078C77.7287 74.4065 77.9091 74.0575 78.1496 73.7606C78.39 73.4597 78.6906 73.225 79.0514 73.0565C79.4121 72.888 79.8348 72.8037 80.3196 72.8037C80.8355 72.8037 81.2873 72.906 81.6752 73.1106C82.0669 73.3153 82.3733 73.6081 82.5944 73.9893C82.8194 74.3664 82.9338 74.8137 82.9377 75.3313H81.361C81.3572 75.1146 81.3126 74.9181 81.2272 74.7416C81.1458 74.565 81.0255 74.4245 80.8665 74.3203C80.7114 74.2119 80.5194 74.1578 80.2905 74.1578C80.0462 74.1578 79.8464 74.2119 79.6913 74.3203C79.5361 74.4245 79.4159 74.569 79.3306 74.7535C79.2452 74.9341 79.1852 75.1407 79.1503 75.3734C79.1192 75.6021 79.1037 75.8428 79.1037 76.0956V76.2701C79.1037 76.5229 79.1192 76.7656 79.1503 76.9983C79.1812 77.231 79.2395 77.4376 79.3247 77.6181C79.414 77.7987 79.5361 77.9411 79.6913 78.0454C79.8464 78.1498 80.0481 78.2019 80.2963 78.2019ZM85.6774 72.9241V79.4356H83.9966V72.9241H85.6774ZM83.8919 71.227C83.8919 70.9743 83.977 70.7656 84.1481 70.6011C84.3183 70.4366 84.5472 70.3544 84.834 70.3544C85.1174 70.3544 85.3447 70.4366 85.5149 70.6011C85.6893 70.7656 85.777 70.9743 85.777 71.227C85.777 71.4798 85.6893 71.6884 85.5149 71.8529C85.3447 72.0174 85.1174 72.0996 84.834 72.0996C84.5472 72.0996 84.3183 72.0174 84.1481 71.8529C83.977 71.6884 83.8919 71.4798 83.8919 71.227ZM86.7949 76.2461V76.1197C86.7949 75.6422 86.8604 75.2029 86.9923 74.8017C87.1242 74.3965 87.3166 74.0455 87.5685 73.7485C87.8204 73.4517 88.131 73.221 88.4995 73.0565C88.8681 72.888 89.291 72.8037 89.7676 72.8037C90.2451 72.8037 90.6698 72.888 91.0417 73.0565C91.4144 73.221 91.7268 73.4517 91.9787 73.7485C92.2349 74.0455 92.4281 74.3965 92.56 74.8017C92.6919 75.2029 92.7583 75.6422 92.7583 76.1197V76.2461C92.7583 76.7194 92.6919 77.1587 92.56 77.564C92.4281 77.9652 92.2349 78.3162 91.9787 78.6171C91.7268 78.9141 91.4161 79.1447 91.0476 79.3092C90.6791 79.4737 90.2561 79.5559 89.7795 79.5559C89.3021 79.5559 88.8774 79.4737 88.5055 79.3092C88.137 79.1447 87.8246 78.9141 87.5685 78.6171C87.3166 78.3162 87.1242 77.9652 86.9923 77.564C86.8604 77.1587 86.7949 76.7194 86.7949 76.2461ZM88.4706 76.1197V76.2461C88.4706 76.5188 88.4936 76.7736 88.5404 77.0103C88.5864 77.247 88.6604 77.4557 88.7617 77.6362C88.8663 77.8128 89.0017 77.9511 89.1685 78.0514C89.3353 78.1518 89.5387 78.2019 89.7795 78.2019C90.0119 78.2019 90.2119 78.1518 90.3787 78.0514C90.5455 77.9511 90.6791 77.8128 90.7804 77.6362C90.8808 77.4557 90.9549 77.247 91.0008 77.0103C91.0519 76.7736 91.0766 76.5188 91.0766 76.2461V76.1197C91.0766 75.8549 91.0519 75.6061 91.0008 75.3734C90.9549 75.1367 90.8791 74.9281 90.7744 74.7475C90.6732 74.563 90.5395 74.4186 90.3727 74.3142C90.2059 74.2099 90.0042 74.1578 89.7676 74.1578C89.531 74.1578 89.3293 74.2099 89.1625 74.3142C89 74.4186 88.8663 74.563 88.7617 74.7475C88.6604 74.9281 88.5864 75.1367 88.5404 75.3734C88.4936 75.6061 88.4706 75.8549 88.4706 76.1197ZM97.1915 77.6362C97.1915 77.5119 97.1566 77.3995 97.0868 77.2992C97.017 77.1989 96.8868 77.1066 96.697 77.0224C96.5106 76.9341 96.2408 76.8539 95.8885 76.7817C95.5702 76.7094 95.2732 76.6192 94.9983 76.5108C94.7268 76.3985 94.4902 76.2641 94.2885 76.1076C94.0902 75.9512 93.9353 75.7666 93.8229 75.5539C93.7106 75.3373 93.6544 75.0906 93.6544 74.8137C93.6544 74.5409 93.7106 74.2841 93.8229 74.0434C93.9395 73.8027 94.1038 73.5901 94.3174 73.4055C94.5344 73.217 94.7983 73.0706 95.1089 72.9662C95.4229 72.8579 95.7753 72.8037 96.1676 72.8037C96.714 72.8037 97.1838 72.894 97.5753 73.0745C97.971 73.2551 98.2732 73.5038 98.4825 73.8208C98.6961 74.1337 98.8025 74.4907 98.8025 74.892H97.1276C97.1276 74.7235 97.0927 74.5731 97.0229 74.4407C96.9566 74.3042 96.8519 74.1979 96.7081 74.1217C96.5685 74.0414 96.3863 74.0013 96.1617 74.0013C95.9753 74.0013 95.8144 74.0354 95.6783 74.1037C95.5429 74.1678 95.4383 74.256 95.3642 74.3684C95.2944 74.4767 95.2595 74.5971 95.2595 74.7295C95.2595 74.8298 95.2791 74.9201 95.3183 75.0003C95.3608 75.0765 95.4289 75.1468 95.5217 75.211C95.6144 75.2751 95.7353 75.3353 95.8825 75.3914C96.0332 75.4436 96.2195 75.4918 96.4408 75.5359C96.8944 75.6322 97.2995 75.7585 97.657 75.9151C98.0136 76.0675 98.297 76.2761 98.5064 76.5409C98.7157 76.8017 98.8204 77.1447 98.8204 77.57C98.8204 77.8589 98.7583 78.1237 98.634 78.3644C98.5098 78.6051 98.3319 78.8157 98.0987 78.9963C97.8663 79.1728 97.5872 79.3112 97.2612 79.4116C96.9395 79.5078 96.5761 79.5559 96.1736 79.5559C95.5872 79.5559 95.091 79.4477 94.6842 79.231C94.2808 79.0144 93.9744 78.7395 93.7642 78.4066C93.5591 78.0695 93.4561 77.7245 93.4561 77.3714H95.0442C95.0519 77.6082 95.1106 77.7987 95.2187 77.9431C95.3319 78.0876 95.4732 78.1918 95.6434 78.2561C95.8187 78.3203 96.0068 78.3523 96.2085 78.3523C96.4255 78.3523 96.6059 78.3223 96.7489 78.2621C96.8927 78.1979 97.0008 78.1137 97.0749 78.0093C97.1523 77.901 97.1915 77.7767 97.1915 77.6362ZM106.279 77.6362C106.279 77.5119 106.244 77.3995 106.174 77.2992C106.104 77.1989 105.974 77.1066 105.784 77.0224C105.598 76.9341 105.328 76.8539 104.975 76.7817C104.658 76.7094 104.361 76.6192 104.085 76.5108C103.814 76.3985 103.577 76.2641 103.375 76.1076C103.178 75.9512 103.023 75.7666 102.911 75.5539C102.797 75.3373 102.741 75.0906 102.741 74.8137C102.741 74.5409 102.797 74.2841 102.911 74.0434C103.026 73.8027 103.191 73.5901 103.405 73.4055C103.622 73.217 103.886 73.0706 104.196 72.9662C104.51 72.8579 104.863 72.8037 105.254 72.8037C105.802 72.8037 106.271 72.894 106.663 73.0745C107.059 73.2551 107.361 73.5038 107.57 73.8208C107.784 74.1337 107.89 74.4907 107.89 74.892H106.214C106.214 74.7235 106.18 74.5731 106.11 74.4407C106.044 74.3042 105.94 74.1979 105.796 74.1217C105.656 74.0414 105.474 74.0013 105.249 74.0013C105.063 74.0013 104.902 74.0354 104.766 74.1037C104.631 74.1678 104.526 74.256 104.452 74.3684C104.382 74.4767 104.347 74.5971 104.347 74.7295C104.347 74.8298 104.367 74.9201 104.405 75.0003C104.448 75.0765 104.516 75.1468 104.609 75.211C104.702 75.2751 104.822 75.3353 104.969 75.3914C105.121 75.4436 105.307 75.4918 105.528 75.5359C105.982 75.6322 106.387 75.7585 106.744 75.9151C107.101 76.0675 107.384 76.2761 107.593 76.5409C107.803 76.8017 107.908 77.1447 107.908 77.57C107.908 77.8589 107.846 78.1237 107.722 78.3644C107.597 78.6051 107.419 78.8157 107.186 78.9963C106.954 79.1728 106.674 79.3112 106.349 79.4116C106.026 79.5078 105.664 79.5559 105.26 79.5559C104.675 79.5559 104.179 79.4477 103.771 79.231C103.368 79.0144 103.061 78.7395 102.852 78.4066C102.647 78.0695 102.544 77.7245 102.544 77.3714H104.132C104.14 77.6082 104.198 77.7987 104.306 77.9431C104.419 78.0876 104.561 78.1918 104.731 78.2561C104.905 78.3203 105.094 78.3523 105.295 78.3523C105.512 78.3523 105.693 78.3223 105.837 78.2621C105.98 78.1979 106.088 78.1137 106.163 78.0093C106.24 77.901 106.279 77.7767 106.279 77.6362ZM109.077 78.5991C109.077 78.3423 109.163 78.1277 109.333 77.9552C109.507 77.7826 109.739 77.6964 110.026 77.6964C110.312 77.6964 110.541 77.7826 110.712 77.9552C110.887 78.1277 110.974 78.3423 110.974 78.5991C110.974 78.8559 110.887 79.0705 110.712 79.243C110.541 79.4155 110.312 79.5018 110.026 79.5018C109.739 79.5018 109.507 79.4155 109.333 79.243C109.163 79.0705 109.077 78.8559 109.077 78.5991ZM115.849 77.9672V75.0665C115.849 74.8579 115.816 74.6793 115.75 74.5309C115.684 74.3784 115.581 74.2601 115.442 74.1758C115.306 74.0916 115.129 74.0494 114.912 74.0494C114.726 74.0494 114.565 74.0836 114.43 74.1517C114.294 74.216 114.189 74.3103 114.116 74.4346C114.042 74.555 114.005 74.6974 114.005 74.8619H112.329C112.329 74.585 112.391 74.3222 112.516 74.0735C112.639 73.8248 112.82 73.6062 113.056 73.4176C113.293 73.225 113.574 73.0745 113.9 72.9662C114.23 72.8579 114.598 72.8037 115.005 72.8037C115.494 72.8037 115.928 72.888 116.309 73.0565C116.688 73.225 116.987 73.4777 117.204 73.8147C117.426 74.1517 117.536 74.5731 117.536 75.0786V77.8649C117.536 78.2219 117.557 78.5148 117.6 78.7436C117.643 78.9682 117.705 79.1648 117.786 79.3333V79.4356H116.094C116.012 79.2591 115.95 79.0384 115.907 78.7736C115.868 78.5048 115.849 78.236 115.849 77.9672ZM116.07 75.4697L116.082 76.4507H115.145C114.924 76.4507 114.732 76.4767 114.569 76.5288C114.406 76.5811 114.272 76.6553 114.168 76.7516C114.063 76.8438 113.985 76.9521 113.935 77.0765C113.888 77.2009 113.865 77.3373 113.865 77.4858C113.865 77.6342 113.898 77.7686 113.964 77.889C114.03 78.0053 114.125 78.0976 114.249 78.1658C114.374 78.23 114.519 78.2621 114.685 78.2621C114.938 78.2621 115.157 78.2099 115.343 78.1057C115.529 78.0013 115.672 77.8729 115.774 77.7205C115.878 77.568 115.933 77.4236 115.936 77.2872L116.379 78.0214C116.317 78.1859 116.231 78.3564 116.123 78.5329C116.018 78.7094 115.884 78.876 115.721 79.0324C115.558 79.1849 115.363 79.3112 115.134 79.4116C114.905 79.5078 114.633 79.5559 114.319 79.5559C113.919 79.5559 113.557 79.4737 113.231 79.3092C112.909 79.1407 112.653 78.91 112.463 78.6171C112.277 78.3203 112.184 77.9833 112.184 77.6061C112.184 77.2651 112.246 76.9622 112.37 76.6974C112.494 76.4326 112.677 76.2099 112.917 76.0294C113.161 75.8448 113.465 75.7064 113.831 75.6142C114.195 75.5179 114.618 75.4697 115.099 75.4697H116.07ZM125.512 78.0153V70.1919H127.2V79.4356H125.681L125.512 78.0153ZM121.533 76.2581V76.1317C121.533 75.6342 121.587 75.1829 121.696 74.7777C121.804 74.3684 121.963 74.0174 122.173 73.7245C122.382 73.4316 122.64 73.2049 122.946 73.0444C123.254 72.8839 123.603 72.8037 123.994 72.8037C124.363 72.8037 124.684 72.8839 124.96 73.0444C125.239 73.2049 125.476 73.4336 125.67 73.7305C125.867 74.0234 126.026 74.3704 126.146 74.7716C126.267 75.1688 126.354 75.6041 126.408 76.0775V76.3544C126.354 76.8077 126.267 77.229 126.146 77.6181C126.026 78.0073 125.867 78.3484 125.67 78.6413C125.476 78.9301 125.239 79.1548 124.96 79.3153C124.681 79.4757 124.355 79.5559 123.982 79.5559C123.591 79.5559 123.242 79.4737 122.935 79.3092C122.632 79.1447 122.377 78.9141 122.167 78.6171C121.962 78.3203 121.804 77.9712 121.696 77.57C121.587 77.1688 121.533 76.7315 121.533 76.2581ZM123.208 76.1317V76.2581C123.208 76.5269 123.228 76.7776 123.266 77.0103C123.31 77.243 123.377 77.4496 123.471 77.6302C123.568 77.8067 123.692 77.9452 123.843 78.0454C123.998 78.1417 124.186 78.1899 124.407 78.1899C124.694 78.1899 124.931 78.1237 125.117 77.9913C125.303 77.8548 125.444 77.6683 125.541 77.4316C125.643 77.1949 125.7 76.9221 125.716 76.6131V75.8247C125.705 75.572 125.67 75.3453 125.611 75.1448C125.557 74.9402 125.476 74.7656 125.367 74.6211C125.262 74.4767 125.13 74.3644 124.971 74.2841C124.816 74.2039 124.632 74.1638 124.419 74.1638C124.202 74.1638 124.015 74.216 123.86 74.3203C123.705 74.4206 123.579 74.559 123.482 74.7355C123.389 74.9121 123.319 75.1206 123.272 75.3614C123.23 75.5981 123.208 75.8549 123.208 76.1317ZM131.406 79.5559C130.917 79.5559 130.479 79.4757 130.091 79.3153C129.703 79.1507 129.374 78.924 129.102 78.6352C128.834 78.3463 128.629 78.0114 128.485 77.6302C128.342 77.245 128.27 76.8358 128.27 76.4025V76.1617C128.27 75.6683 128.338 75.217 128.474 74.8078C128.609 74.3985 128.803 74.0434 129.055 73.7425C129.311 73.4416 129.622 73.211 129.986 73.0505C130.351 72.886 130.762 72.8037 131.22 72.8037C131.666 72.8037 132.061 72.88 132.407 73.0324C132.751 73.1848 133.041 73.4015 133.273 73.6823C133.51 73.9632 133.688 74.3002 133.808 74.6934C133.928 75.0825 133.989 75.5158 133.989 75.9932V76.7155H128.986V75.56H132.343V75.4276C132.343 75.1868 132.3 74.9722 132.214 74.7836C132.133 74.5911 132.009 74.4386 131.843 74.3263C131.676 74.214 131.462 74.1578 131.203 74.1578C130.981 74.1578 130.791 74.2079 130.632 74.3082C130.473 74.4085 130.343 74.5489 130.243 74.7295C130.145 74.9101 130.071 75.1227 130.021 75.3674C129.974 75.6081 129.951 75.8729 129.951 76.1617V76.4025C129.951 76.6633 129.986 76.904 130.056 77.1247C130.13 77.3454 130.232 77.5359 130.364 77.6964C130.5 77.8569 130.663 77.9813 130.854 78.0695C131.047 78.1578 131.266 78.2019 131.511 78.2019C131.813 78.2019 132.094 78.1417 132.354 78.0214C132.618 77.897 132.845 77.7105 133.035 77.4617L133.849 78.3764C133.717 78.573 133.537 78.7616 133.308 78.9422C133.083 79.1226 132.812 79.2711 132.494 79.3874C132.176 79.4998 131.813 79.5559 131.406 79.5559ZM140.511 78.2019C140.717 78.2019 140.899 78.1618 141.058 78.0815C141.217 77.9973 141.34 77.8809 141.43 77.7325C141.523 77.5801 141.572 77.4015 141.575 77.1969H143.152C143.148 77.6543 143.03 78.0615 142.797 78.4185C142.564 78.7716 142.252 79.0504 141.86 79.255C141.469 79.4557 141.031 79.5559 140.545 79.5559C140.057 79.5559 139.631 79.4717 139.265 79.3032C138.905 79.1347 138.604 78.902 138.364 78.6051C138.123 78.3042 137.943 77.9552 137.823 77.558C137.703 77.1568 137.643 76.7275 137.643 76.2701V76.0956C137.643 75.6342 137.703 75.2049 137.823 74.8078C137.943 74.4065 138.123 74.0575 138.364 73.7606C138.604 73.4597 138.905 73.225 139.265 73.0565C139.626 72.888 140.049 72.8037 140.534 72.8037C141.05 72.8037 141.502 72.906 141.889 73.1106C142.282 73.3153 142.588 73.6081 142.808 73.9893C143.034 74.3664 143.148 74.8137 143.152 75.3313H141.575C141.572 75.1146 141.527 74.9181 141.442 74.7416C141.36 74.565 141.24 74.4245 141.081 74.3203C140.926 74.2119 140.734 74.1578 140.505 74.1578C140.26 74.1578 140.061 74.2119 139.905 74.3203C139.751 74.4245 139.631 74.569 139.545 74.7535C139.46 74.9341 139.4 75.1407 139.365 75.3734C139.334 75.6021 139.318 75.8428 139.318 76.0956V76.2701C139.318 76.5229 139.334 76.7656 139.365 76.9983C139.396 77.231 139.454 77.4376 139.54 77.6181C139.628 77.7987 139.751 77.9411 139.905 78.0454C140.061 78.1498 140.263 78.2019 140.511 78.2019ZM144.205 78.5991C144.205 78.3423 144.29 78.1277 144.461 77.9552C144.636 77.7826 144.866 77.6964 145.153 77.6964C145.441 77.6964 145.669 77.7826 145.84 77.9552C146.014 78.1277 146.102 78.3423 146.102 78.5991C146.102 78.8559 146.014 79.0705 145.84 79.243C145.669 79.4155 145.441 79.5018 145.153 79.5018C144.866 79.5018 144.636 79.4155 144.461 79.243C144.29 79.0705 144.205 78.8559 144.205 78.5991ZM149.72 78.1719L151.117 72.9241H152.868L150.745 79.4356H149.685L149.72 78.1719ZM148.761 72.9241L150.163 78.1778L150.191 79.4356H149.127L147.003 72.9241H148.761ZM152.839 78.5991C152.839 78.3423 152.924 78.1277 153.094 77.9552C153.269 77.7826 153.5 77.6964 153.787 77.6964C154.074 77.6964 154.303 77.7826 154.473 77.9552C154.648 78.1277 154.735 78.3423 154.735 78.5991C154.735 78.8559 154.648 79.0705 154.473 79.243C154.303 79.4155 154.074 79.5018 153.787 79.5018C153.5 79.5018 153.269 79.4155 153.094 79.243C152.924 79.0705 152.839 78.8559 152.839 78.5991Z" fill="#F4F5FF"/>
<path d="M-0.297852 66.2305H152.894" stroke="#DC292A" stroke-width="2"/>
<path d="M155.447 65.7902C155.447 67.4919 154.113 68.8715 152.468 68.8715C150.823 68.8715 149.489 67.4919 149.489 65.7902C149.489 64.0885 150.823 62.709 152.468 62.709C154.113 62.709 155.447 64.0885 155.447 65.7902Z" fill="#DC292A"/>
<path d="M63.2821 19.5478C68.0685 19.5478 71.9487 15.5219 71.9487 10.5557C71.9487 5.58941 68.0685 1.56348 63.2821 1.56348C58.4956 1.56348 54.6154 5.58941 54.6154 10.5557C54.6154 15.5219 58.4956 19.5478 63.2821 19.5478Z" fill="#DC292A" stroke="#0A0E39" stroke-width="2"/>
</g>
<defs>
<clipPath id="clip0_183_290">
<rect width="156" height="82" fill="white"/>
</clipPath>
</defs>
</svg>
