<svg width="40" height="41" viewBox="0 0 40 41" fill="none" xmlns="http://www.w3.org/2000/svg">
<g clip-path="url(#clip0_41_192)">
<path d="M20.0526 40.0484C30.9737 40.0484 39.8421 31.18 39.8421 20.259C39.8684 9.3116 31 0.443176 20.0526 0.443176C9.10526 0.443176 0.263153 9.3116 0.263153 20.259C0.263153 31.18 9.13157 40.0484 20.0526 40.0484Z" fill="#BE0F34"/>
<path d="M20.0526 36.3642C28.9474 36.3642 36.1842 29.1537 36.1842 20.2326C36.1842 11.3116 28.9737 4.12738 20.0526 4.12738C11.1579 4.12738 3.94736 11.3379 3.94736 20.259C3.94736 29.18 11.1579 36.3642 20.0526 36.3642Z" fill="white"/>
<path d="M10.3947 9.62738H14.0526V21.3905C14.0526 22.1274 14.2895 22.7853 15.3158 22.7853C16.2632 22.7853 16.5526 21.9432 16.5526 21.2853V9.62738H20.2105V20.9169C20.2105 23.5484 19.0263 25.6011 15.2895 25.6011C12.1842 25.6011 10.3947 24.1274 10.3947 20.9169V9.62738Z" fill="#BE0F34"/>
<path d="M21.6579 30.8642V15.2589H25.3158V27.7326H29.7895V30.8642H21.6579Z" fill="#BE0F34"/>
</g>
<defs>
<clipPath id="clip0_41_192">
<rect width="40" height="40" fill="white" transform="translate(0 0.179993)"/>
</clipPath>
</defs>
</svg>
