<svg width="88" height="32" viewBox="0 0 88 32" fill="none" xmlns="http://www.w3.org/2000/svg">
<g clip-path="url(#clip0_41_273)">
<mask id="mask0_41_273" style="mask-type:luminance" maskUnits="userSpaceOnUse" x="-352" y="-485" width="501" height="623">
<path d="M-351.6 -484.818H148.868V137.713H-351.6V-484.818Z" fill="white"/>
</mask>
<g mask="url(#mask0_41_273)">
<path d="M9.76816 22.7767H13.4955L14.1595 20.998H16.1434L16.0158 22.7767H19.7154L19.7742 11.4273H14.8137L9.76816 22.7767ZM16.8614 13.4938H16.8876L16.3765 18.805H14.9421L16.8614 13.4938Z" fill="#231F20"/>
<path d="M22.6544 11.4273H27.3336L27.843 18.2956H27.8692L29.3968 11.4273H32.4814L29.9553 22.7767H25.3039L24.7282 16.0853H24.702L23.2129 22.7767H20.1291L22.6544 11.4273Z" fill="#231F20"/>
<path d="M37.8311 14.5423C37.9121 14.1768 37.9497 13.8907 37.8876 13.6848C37.8254 13.478 37.6373 13.3664 37.2612 13.3664C36.8735 13.3664 36.526 13.7799 36.4295 14.2083C35.9601 16.3234 41.2813 15.0674 40.3646 19.1854C39.6956 22.1895 37.6103 23.1288 35.3182 23.1288C32.999 23.1288 30.6946 22.7626 31.5802 19.5037H35.1309C35.0467 19.9478 34.9927 20.3141 35.0401 20.5845C35.0892 20.8392 35.2299 20.9971 35.5373 20.9971C36.0198 20.9971 36.4638 20.568 36.5881 20.0115C37.1467 17.4993 31.7675 19.1374 32.6923 14.9872C33.3008 12.2534 35.0091 11.0767 37.7453 11.0767C41.1758 11.0767 41.583 12.6826 41.1692 14.5423H37.8311Z" fill="#231F20"/>
<path d="M43.1326 11.4273H46.752L44.2276 22.7767H40.6082L43.1326 11.4273Z" fill="#231F20"/>
<path d="M2.93578 19.9344C2.93578 10.3402 16.1458 2.56331 32.4405 2.56331C41.1398 2.56331 48.9576 4.78068 54.3572 8.30757C48.9894 3.70226 39.9876 0.679996 29.7844 0.679996C13.336 0.679996 3.05176e-05 8.53159 3.05176e-05 18.2154C3.05176e-05 23.6272 4.16569 28.4644 10.7094 31.68C5.8838 28.5886 2.93578 24.4643 2.93578 19.9344Z" fill="#0075BF"/>
<path d="M19.6262 29.4108H20.3009L20.5936 28.7576H21.4482L21.4523 29.4108H22.1269L21.9593 26.3241H21.1587L19.6262 29.4108ZM21.4359 26.8601H21.4449L21.449 28.2475H20.8185L21.4359 26.8601Z" fill="#231F20"/>
<path d="M22.8482 27.0849H23.4419L23.3895 27.3231H23.3985C23.603 27.1109 23.8148 27.0244 24.0756 27.0244C24.3594 27.0244 24.5368 27.158 24.5516 27.3962H24.5606C24.7094 27.1502 24.9621 27.0244 25.254 27.0244C25.6637 27.0244 25.8027 27.2704 25.703 27.7208L25.3292 29.4108H24.7086L25.0684 27.7853C25.1109 27.5911 25.0676 27.4826 24.8926 27.4826C24.6947 27.4826 24.5393 27.6123 24.4804 27.8804L24.1419 29.4108H23.5212L23.881 27.7853C23.9235 27.5911 23.8802 27.4826 23.7044 27.4826C23.5065 27.4826 23.3519 27.6123 23.293 27.8804L22.9545 29.4108H22.3338L22.8482 27.0849Z" fill="#231F20"/>
<path d="M27.7392 28.3386L27.7686 28.2042C27.9265 27.4913 27.8684 27.0244 27.1439 27.0244C26.3073 27.0244 26.053 27.6037 25.9156 28.2262C25.7872 28.8055 25.676 29.4713 26.5755 29.4713C27.1602 29.4713 27.4971 29.1686 27.6394 28.6278H27.0817C26.9819 28.9132 26.8634 29.0649 26.6565 29.0649C26.4275 29.0649 26.4103 28.7968 26.47 28.5241L26.5117 28.3386H27.7392ZM26.5894 27.9841L26.6099 27.8929C26.6573 27.6768 26.7841 27.4307 27.0318 27.4307C27.2878 27.4307 27.2886 27.6296 27.224 27.9841H26.5894Z" fill="#231F20"/>
<path d="M28.3403 27.0849H28.9339L28.8653 27.3962H28.8742C29.0492 27.1714 29.2578 27.0244 29.5137 27.0244C29.5497 27.0244 29.5898 27.0291 29.6241 27.033L29.4982 27.6037C29.436 27.599 29.3698 27.5951 29.3068 27.5951C29.091 27.5951 28.8244 27.7035 28.7557 28.0148L28.4466 29.4108H27.8259L28.3403 27.0849Z" fill="#231F20"/>
<path d="M30.0363 26.2895H30.6569L30.5441 26.7996H29.9234L30.0363 26.2895ZM29.8604 27.0849H30.4811L29.9667 29.4108H29.3461L29.8604 27.0849Z" fill="#231F20"/>
<path d="M31.8966 27.9236C31.9465 27.6988 31.9547 27.4567 31.7208 27.4567C31.415 27.4567 31.3087 27.7161 31.1893 28.2521C31.0625 28.8267 31.0642 29.0649 31.343 29.0649C31.5499 29.0649 31.6816 28.8967 31.765 28.5202H32.3579C32.2237 29.1301 31.8827 29.4713 31.2261 29.4713C30.6054 29.4713 30.3633 29.182 30.5702 28.2482C30.7812 27.2924 31.2498 27.0244 31.8206 27.0244C32.3922 27.0244 32.6114 27.3749 32.4903 27.9236H31.8966Z" fill="#231F20"/>
<path d="M33.3948 27.7986L33.4087 27.7334C33.4496 27.5526 33.5747 27.4307 33.7644 27.4307C33.9705 27.4307 34.0286 27.5392 33.9893 27.7168C33.9542 27.8717 33.8765 27.9409 33.681 27.9888L33.3106 28.0792C32.8575 28.1916 32.6343 28.3692 32.5378 28.8055C32.4691 29.1168 32.5435 29.4713 32.9753 29.4713C33.2721 29.4713 33.4611 29.4107 33.6581 29.1686H33.6679C33.6688 29.2464 33.6663 29.3376 33.69 29.4107H34.2837C34.251 29.2771 34.2592 29.1773 34.3074 28.9611L34.5781 27.7381C34.6705 27.3183 34.5961 27.0244 33.8585 27.0244C33.3907 27.0244 32.9679 27.2059 32.8502 27.742L32.8379 27.7986H33.3948ZM33.7702 28.7065C33.7129 28.9611 33.475 29.0649 33.3081 29.0649C33.1421 29.0649 33.107 28.9179 33.1454 28.741C33.192 28.5335 33.3171 28.4164 33.5804 28.3645C33.6598 28.3472 33.7726 28.3087 33.8707 28.2482L33.7702 28.7065Z" fill="#231F20"/>
<path d="M35.1628 27.0849H35.7565L35.696 27.3577H35.7049C35.8865 27.1282 36.1343 27.0244 36.3951 27.0244C36.7819 27.0244 36.9659 27.228 36.8645 27.6862L36.4835 29.4108H35.8628L36.2177 27.8065C36.2692 27.5738 36.2087 27.4826 36.0239 27.4826C35.8121 27.4826 35.6673 27.6084 35.6101 27.8678L35.2691 29.4108H34.6484L35.1628 27.0849Z" fill="#231F20"/>
<path d="M39.4241 26.3241L39.739 28.4377H39.7488L40.2157 26.3241H40.8094L40.1274 29.4108H39.389L39.0758 27.2492H39.0668L38.5884 29.4108H37.9955L38.6775 26.3241H39.4241Z" fill="#231F20"/>
<path d="M41.4685 27.7986L41.4824 27.7334C41.5225 27.5526 41.6484 27.4307 41.8381 27.4307C42.0442 27.4307 42.1014 27.5392 42.063 27.7168C42.0278 27.8717 41.9502 27.9409 41.7547 27.9888L41.3843 28.0792C40.932 28.1916 40.708 28.3692 40.6115 28.8055C40.5428 29.1168 40.6172 29.4713 41.049 29.4713C41.3458 29.4713 41.5347 29.4107 41.7318 29.1686H41.7408C41.7424 29.2464 41.74 29.3376 41.7645 29.4107H42.3574C42.3239 29.2771 42.3329 29.1773 42.3811 28.9611L42.6518 27.7381C42.7442 27.3183 42.669 27.0244 41.9313 27.0244C41.4644 27.0244 41.0416 27.2059 40.9231 27.742L40.9108 27.7986H41.4685ZM41.843 28.7065C41.7866 28.9611 41.5486 29.0649 41.3818 29.0649C41.215 29.0649 41.1798 28.9179 41.2199 28.741C41.2649 28.5335 41.3908 28.4164 41.6541 28.3645C41.7335 28.3472 41.8463 28.3087 41.9444 28.2482L41.843 28.7065Z" fill="#231F20"/>
<path d="M43.5186 26.4192H44.1393L43.9921 27.0849H44.3519L44.262 27.4913H43.9022L43.6241 28.7497C43.584 28.9313 43.6078 29.0044 43.7877 29.0044C43.8375 29.0044 43.8883 29.0005 43.9291 28.9957L43.8375 29.4108C43.6993 29.4241 43.571 29.4367 43.427 29.4367C42.9413 29.4367 42.8832 29.2944 42.9871 28.8228L43.2815 27.4913H42.9666L43.0566 27.0849H43.3714L43.5186 26.4192Z" fill="#231F20"/>
<path d="M44.7657 26.2895H45.3864L45.2736 26.7996H44.6529L44.7657 26.2895ZM44.5899 27.0849H45.2106L44.6954 29.4108H44.0755L44.5899 27.0849Z" fill="#231F20"/>
<path d="M45.3087 28.2482C45.1296 29.0563 45.2425 29.4847 45.9915 29.4721C46.7022 29.4721 47.0399 29.0437 47.2157 28.2482C47.3948 27.4402 47.282 27.0118 46.5321 27.0244C45.8223 27.0244 45.4845 27.4528 45.3087 28.2482ZM45.9294 28.2482C46.0341 27.7727 46.1371 27.4308 46.4429 27.4308C46.6948 27.4308 46.7226 27.6689 46.5951 28.2482C46.4667 28.8275 46.3334 29.0657 46.0815 29.0657C45.7757 29.0657 45.8239 28.7238 45.9294 28.2482Z" fill="#231F20"/>
<path d="M47.8054 27.0849H48.399L48.3385 27.3577H48.3475C48.5291 27.1282 48.7769 27.0244 49.0377 27.0244C49.4245 27.0244 49.6085 27.228 49.5079 27.6862L49.126 29.4108H48.5054L48.8603 27.8065C48.9118 27.5738 48.8504 27.4826 48.6665 27.4826C48.4547 27.4826 48.3099 27.6084 48.2535 27.8678L47.9117 29.4108H47.291L47.8054 27.0849Z" fill="#231F20"/>
<path d="M50.4499 27.7986L50.4638 27.7334C50.5047 27.5526 50.6299 27.4307 50.8188 27.4307C51.0256 27.4307 51.0829 27.5392 51.0436 27.7168C51.0093 27.8717 50.9316 27.9409 50.7362 27.9888L50.3649 28.0792C49.9135 28.1916 49.6894 28.3692 49.5929 28.8055C49.5242 29.1168 49.5987 29.4713 50.0304 29.4713C50.3273 29.4713 50.5162 29.4107 50.7133 29.1686H50.7223C50.7231 29.2464 50.7214 29.3376 50.7452 29.4107H51.3397C51.3061 29.2771 51.3143 29.1773 51.3626 28.9611L51.6324 27.7381C51.7256 27.3183 51.6512 27.0244 50.9136 27.0244C50.4459 27.0244 50.0231 27.2059 49.9045 27.742L49.8922 27.7986H50.4499ZM50.8245 28.7065C50.7689 28.9611 50.5301 29.0649 50.3633 29.0649C50.1973 29.0649 50.1621 28.9179 50.2005 28.741C50.2471 28.5335 50.3714 28.4164 50.6348 28.3645C50.7157 28.3472 50.8277 28.3087 50.9259 28.2482L50.8245 28.7065Z" fill="#231F20"/>
<path d="M52.4085 26.3241H53.0292L52.3464 29.4108H51.7257L52.4085 26.3241Z" fill="#231F20"/>
<path d="M54.6148 28.4463L54.5944 28.5375C54.5306 28.8267 54.5756 29.013 54.9174 29.013C55.1153 29.013 55.3304 28.8912 55.3876 28.6318C55.4498 28.3512 55.3246 28.2474 54.9288 28.1044C54.3957 27.9149 54.1806 27.6854 54.2943 27.1706C54.4276 26.57 54.8773 26.2635 55.489 26.2635C56.0647 26.2635 56.4302 26.5009 56.2994 27.0935L56.2806 27.18H55.6591C55.7237 26.8899 55.6583 26.7217 55.4105 26.7217C55.1177 26.7217 55.0024 26.8986 54.9616 27.0802C54.9198 27.2704 54.9526 27.3867 55.202 27.4991L55.6558 27.7074C56.0966 27.9102 56.1694 28.1484 56.086 28.5241C55.942 29.1773 55.4628 29.4713 54.762 29.4713C54.0285 29.4713 53.8134 29.1427 53.9394 28.572L53.9672 28.4463H54.6148Z" fill="#231F20"/>
<path d="M56.9928 26.4192H57.6135L57.4663 27.0849H57.8261L57.7362 27.4913H57.3763L57.0983 28.7497C57.0574 28.9313 57.082 29.0044 57.2619 29.0044C57.3117 29.0044 57.3616 29.0005 57.4042 28.9957L57.3117 29.4108C57.1735 29.4241 57.0452 29.4367 56.9012 29.4367C56.4155 29.4367 56.3566 29.2944 56.4613 28.8228L56.7557 27.4913H56.4408L56.5308 27.0849H56.8456L56.9928 26.4192Z" fill="#231F20"/>
<path d="M58.4378 27.7986L58.4517 27.7334C58.4926 27.5526 58.6177 27.4307 58.8066 27.4307C59.0135 27.4307 59.0708 27.5392 59.0315 27.7168C58.9972 27.8717 58.9195 27.9409 58.724 27.9888L58.3528 28.0792C57.9014 28.1916 57.6773 28.3692 57.5808 28.8055C57.5121 29.1168 57.5865 29.4713 58.0183 29.4713C58.3151 29.4713 58.5041 29.4107 58.7011 29.1686H58.7101C58.7118 29.2464 58.7093 29.3376 58.7338 29.4107H59.3267C59.294 29.2771 59.3022 29.1773 59.3496 28.9611L59.6203 27.7381C59.7135 27.3183 59.6391 27.0244 58.9015 27.0244C58.4337 27.0244 58.0109 27.2059 57.8924 27.742L57.8801 27.7986H58.4378ZM58.8123 28.7065C58.7559 28.9611 58.5171 29.0649 58.3511 29.0649C58.1843 29.0649 58.15 28.9179 58.1892 28.741C58.235 28.5335 58.3593 28.4164 58.6234 28.3645C58.7036 28.3472 58.8148 28.3087 58.9137 28.2482L58.8123 28.7065Z" fill="#231F20"/>
<path d="M60.2058 27.0849H60.7987L60.7398 27.3577H60.748C60.9295 27.1282 61.1773 27.0244 61.4382 27.0244C61.8242 27.0244 62.009 27.228 61.9076 27.6862L61.5265 29.4108H60.9058L61.2599 27.8065C61.3123 27.5738 61.2517 27.4826 61.0669 27.4826C60.8551 27.4826 60.7104 27.6084 60.6531 27.8678L60.3121 29.4108H59.6906L60.2058 27.0849Z" fill="#231F20"/>
<path d="M63.1808 29.4107H63.7753L64.4573 26.324H63.8367L63.6208 27.301H63.6118C63.5218 27.1155 63.3844 27.0244 63.1506 27.0244C62.6427 27.0244 62.3295 27.3828 62.1382 28.2474C61.9468 29.1128 62.1022 29.4713 62.61 29.4713C62.8529 29.4713 63.0443 29.3801 63.2266 29.1639H63.2356L63.1808 29.4107ZM62.7589 28.2474C62.8709 27.742 62.9821 27.4826 63.252 27.4826C63.5259 27.4826 63.5226 27.742 63.4114 28.2474C63.2994 28.7536 63.1882 29.013 62.9134 29.013C62.6436 29.013 62.6476 28.7536 62.7589 28.2474Z" fill="#231F20"/>
<path d="M65.0985 27.7986L65.1124 27.7334C65.1524 27.5526 65.2784 27.4307 65.4673 27.4307C65.6742 27.4307 65.7314 27.5392 65.6921 27.7168C65.6578 27.8717 65.5801 27.9409 65.3847 27.9888L65.0134 28.0792C64.562 28.1916 64.3379 28.3692 64.2414 28.8055C64.1728 29.1168 64.2472 29.4713 64.6789 29.4713C64.9758 29.4713 65.1647 29.4107 65.3618 29.1686H65.3708C65.3716 29.2464 65.37 29.3376 65.3937 29.4107H65.9874C65.9546 29.2771 65.9628 29.1773 66.0103 28.9611L66.2809 27.7381C66.3733 27.3183 66.2989 27.0244 65.5621 27.0244C65.0944 27.0244 64.6716 27.2059 64.553 27.742L64.5407 27.7986H65.0985ZM65.473 28.7065C65.4166 28.9611 65.1778 29.0649 65.0118 29.0649C64.845 29.0649 64.8106 28.9179 64.8499 28.741C64.8957 28.5335 65.02 28.4164 65.2841 28.3645C65.3634 28.3472 65.4754 28.3087 65.5744 28.2482L65.473 28.7065Z" fill="#231F20"/>
<path d="M66.8665 27.0849H67.4601L67.3915 27.3962H67.4004C67.5763 27.1714 67.784 27.0244 68.0399 27.0244C68.0759 27.0244 68.116 27.0291 68.1511 27.033L68.0244 27.6037C67.9631 27.599 67.896 27.5951 67.833 27.5951C67.618 27.5951 67.3506 27.7035 67.2819 28.0148L66.9728 29.4108H66.3521L66.8665 27.0849Z" fill="#231F20"/>
<path d="M69.0916 29.4107H69.6853L70.3673 26.324H69.7466L69.5307 27.301H69.5217C69.4326 27.1155 69.296 27.0244 69.0613 27.0244C68.5527 27.0244 68.2403 27.3828 68.049 28.2474C67.8576 29.1128 68.0122 29.4713 68.52 29.4713C68.7637 29.4713 68.9542 29.3801 69.1366 29.1639H69.1456L69.0916 29.4107ZM68.6688 28.2474C68.7809 27.742 68.8921 27.4826 69.1619 27.4826C69.4367 27.4826 69.4334 27.742 69.3214 28.2474C69.2094 28.7536 69.0981 29.013 68.8234 29.013C68.5543 29.013 68.5576 28.7536 68.6688 28.2474Z" fill="#231F20"/>
<path d="M70.7213 28.6499L70.7042 28.7277C70.6592 28.9305 70.7426 29.0649 70.9536 29.0649C71.1425 29.0649 71.2889 28.9737 71.3289 28.7882C71.3625 28.6365 71.2742 28.5681 71.1629 28.5241L70.7598 28.3732C70.4441 28.2568 70.3141 28.0533 70.3869 27.7247C70.4719 27.3403 70.7933 27.0244 71.4312 27.0244C71.9938 27.0244 72.2056 27.2665 72.1124 27.6854L72.0919 27.7813H71.5342C71.5857 27.5471 71.5399 27.4307 71.3371 27.4307C71.1793 27.4307 71.0256 27.5172 70.9896 27.6815C70.9642 27.7939 71.0067 27.889 71.1997 27.9534L71.5456 28.0745C71.9096 28.2003 72.011 28.3905 71.9333 28.7403C71.8261 29.2292 71.3944 29.4713 70.8726 29.4713C70.1751 29.4713 70.0467 29.1773 70.1456 28.7316L70.1636 28.6499H70.7213Z" fill="#231F20"/>
<path d="M73.2245 29.4108L73.9073 26.3241H74.555L73.8722 29.4108H73.2245Z" fill="#231F20"/>
<path d="M74.8502 27.0849H75.4431L75.3834 27.3577H75.3924C75.5731 27.1282 75.8217 27.0244 76.0817 27.0244C76.4685 27.0244 76.6533 27.228 76.5519 27.6862L76.1709 29.4108H75.5494L75.9043 27.8065C75.9558 27.5738 75.8953 27.4826 75.7105 27.4826C75.4995 27.4826 75.3547 27.6084 75.2975 27.8678L74.9565 29.4108H74.3358L74.8502 27.0849Z" fill="#231F20"/>
<path d="M77.207 28.6499L77.1898 28.7277C77.1449 28.9305 77.2274 29.0649 77.4392 29.0649C77.6281 29.0649 77.7737 28.9737 77.8154 28.7882C77.8489 28.6365 77.7606 28.5681 77.6486 28.5241L77.2454 28.3732C76.9298 28.2568 76.7989 28.0533 76.8717 27.7247C76.9568 27.3403 77.279 27.0244 77.9176 27.0244C78.4794 27.0244 78.6912 27.2665 78.5988 27.6854L78.5776 27.7813H78.0199C78.0714 27.5471 78.0256 27.4307 77.8228 27.4307C77.6658 27.4307 77.5112 27.5172 77.4752 27.6815C77.4499 27.7939 77.4924 27.889 77.6846 27.9534L78.0313 28.0745C78.3944 28.2003 78.4966 28.3905 78.4197 28.7403C78.311 29.2292 77.88 29.4713 77.3583 29.4713C76.6607 29.4713 76.5332 29.1773 76.6313 28.7316L76.6493 28.6499H77.207Z" fill="#231F20"/>
<path d="M79.3773 26.4192H79.998L79.8508 27.0849H80.2106L80.1207 27.4913H79.7609L79.4828 28.7497C79.4428 28.9313 79.4665 29.0044 79.6464 29.0044C79.6963 29.0044 79.7462 29.0005 79.7887 28.9957L79.6963 29.4108C79.5581 29.4241 79.4297 29.4367 79.2858 29.4367C78.8 29.4367 78.7411 29.2944 78.8458 28.8228L79.141 27.4913H78.8254L78.9153 27.0849H79.2301L79.3773 26.4192Z" fill="#231F20"/>
<path d="M80.6253 26.2895H81.2451L81.1323 26.7996H80.5116L80.6253 26.2895ZM80.4486 27.0849H81.0693L80.5549 29.4108H79.9343L80.4486 27.0849Z" fill="#231F20"/>
<path d="M81.7881 26.4192H82.4088L82.2616 27.0849H82.6206L82.5314 27.4913H82.1716L81.8928 28.7497C81.8527 28.9313 81.8772 29.0044 82.0571 29.0044C82.107 29.0044 82.1569 29.0005 82.1986 28.9957L82.107 29.4108C81.9688 29.4241 81.8404 29.4367 81.6965 29.4367C81.2108 29.4367 81.1519 29.2944 81.2557 28.8228L81.551 27.4913H81.2361L81.3261 27.0849H81.6409L81.7881 26.4192Z" fill="#231F20"/>
<path d="M83.6247 29.138H83.6157C83.435 29.3667 83.1864 29.4713 82.9264 29.4713C82.5387 29.4713 82.3547 29.2677 82.4561 28.8094L82.8372 27.0849H83.4579L83.103 28.6884C83.0515 28.9218 83.1128 29.013 83.2968 29.013C83.5086 29.013 83.6533 28.8872 83.7098 28.6278L84.0516 27.0849H84.6723L84.1587 29.4107H83.565L83.6247 29.138Z" fill="#231F20"/>
<path d="M85.3682 26.4192H85.9889L85.8409 27.0849H86.2007L86.1116 27.4913H85.7517L85.4737 28.7497C85.4336 28.9313 85.4573 29.0044 85.6373 29.0044C85.6863 29.0044 85.737 29.0005 85.7787 28.9957L85.6863 29.4108C85.5489 29.4241 85.4205 29.4367 85.2766 29.4367C84.7909 29.4367 84.732 29.2944 84.8358 28.8228L85.1311 27.4913H84.8162L84.9062 27.0849H85.221L85.3682 26.4192Z" fill="#231F20"/>
<path d="M87.3832 27.9841C87.4486 27.6296 87.4469 27.4307 87.1902 27.4307C86.944 27.4307 86.8164 27.6768 86.769 27.8929L86.7486 27.9841H87.3832ZM86.6709 28.3386L86.6292 28.5241C86.5695 28.7968 86.5867 29.0649 86.8164 29.0649C87.0233 29.0649 87.1419 28.914 87.2409 28.6278H87.7986C87.6571 29.1686 87.3202 29.4713 86.7355 29.4713C85.8351 29.4713 85.9472 28.8055 86.0756 28.2262C86.2129 27.6037 86.4673 27.0244 87.3038 27.0244C88.0275 27.0244 88.0856 27.4913 87.9286 28.2042L87.8983 28.3386H86.6709Z" fill="#231F20"/>
</g>
</g>
<defs>
<clipPath id="clip0_41_273">
<rect width="88" height="31" fill="white" transform="translate(3.05176e-05 0.679993)"/>
</clipPath>
</defs>
</svg>
