<svg width="106" height="38" viewBox="0 0 106 38" fill="none" xmlns="http://www.w3.org/2000/svg">
<g clip-path="url(#clip0_566_450)">
<mask id="mask0_566_450" style="mask-type:luminance" maskUnits="userSpaceOnUse" x="-424" y="-579" width="604" height="744">
<path d="M-423.518 -578.965H179.318V164.056H-423.518V-578.965Z" fill="white"/>
</mask>
<g mask="url(#mask0_566_450)">
<path d="M11.7662 26.8735H16.2559L17.0558 24.7505H19.4454L19.2918 26.8735H23.748L23.819 13.3275H17.8438L11.7662 26.8735ZM20.3103 15.7939H20.3418L19.7262 22.133H17.9984L20.3103 15.7939Z" fill="#231F20"/>
<path d="M27.2882 13.3275H32.9245L33.5382 21.5251H33.5697L35.4097 13.3275H39.1253L36.0825 26.8735H30.4797L29.7862 18.887H29.7547L27.961 26.8735H24.2464L27.2882 13.3275Z" fill="#231F20"/>
<path d="M45.5693 17.0455C45.6668 16.6093 45.7121 16.2678 45.6372 16.022C45.5624 15.7752 45.3358 15.642 44.8827 15.642C44.4158 15.642 43.9972 16.1355 43.8809 16.6468C43.3155 19.1714 49.7251 17.6722 48.6209 22.5872C47.8151 26.1728 45.3033 27.2939 42.5423 27.2939C39.7488 27.2939 36.973 26.8568 38.0397 22.9672H42.3167C42.2153 23.4972 42.1503 23.9344 42.2074 24.2571C42.2665 24.5611 42.4359 24.7497 42.8063 24.7497C43.3874 24.7497 43.9223 24.2374 44.072 23.5732C44.7448 20.5749 38.2653 22.53 39.3794 17.5765C40.1122 14.3136 42.17 12.9092 45.4659 12.9092C49.598 12.9092 50.0886 14.8258 49.5902 17.0455H45.5693Z" fill="#231F20"/>
<path d="M51.9552 13.3275H56.3149L53.2741 26.8735H48.9144L51.9552 13.3275Z" fill="#231F20"/>
<path d="M3.53624 23.4811C3.53624 12.03 19.4484 2.74783 39.076 2.74783C49.5547 2.74783 58.9716 5.39437 65.4757 9.60388C59.01 4.10722 48.1668 0.500005 35.8766 0.500005C16.0638 0.500005 0 9.87126 0 21.4294C0 27.8886 5.01772 33.662 12.8999 37.5C7.08726 33.8102 3.53624 28.8877 3.53624 23.4811Z" fill="#0075BF"/>
<path d="M23.6406 34.7915H24.4533L24.8059 34.0119H25.8353L25.8402 34.7915H26.6528L26.4509 31.1074H25.4866L23.6406 34.7915ZM25.8205 31.7472H25.8313L25.8362 33.403H25.0768L25.8205 31.7472Z" fill="#231F20"/>
<path d="M27.5216 32.0155H28.2367L28.1737 32.2998H28.1845C28.4308 32.0465 28.6859 31.9433 29.0001 31.9433C29.3419 31.9433 29.5557 32.1027 29.5734 32.387H29.5843C29.7635 32.0934 30.0679 31.9433 30.4196 31.9433C30.9131 31.9433 31.0805 32.2369 30.9603 32.7745L30.5102 34.7915H29.7626L30.196 32.8514C30.2472 32.6197 30.195 32.4902 29.9842 32.4902C29.7458 32.4902 29.5587 32.645 29.4877 32.9649L29.0799 34.7915H28.3323L28.7657 32.8514C28.8169 32.6197 28.7647 32.4902 28.5529 32.4902C28.3146 32.4902 28.1284 32.645 28.0575 32.9649L27.6497 34.7915H26.902L27.5216 32.0155Z" fill="#231F20"/>
<path d="M33.4131 33.5119L33.4486 33.3515C33.6387 32.5006 33.5687 31.9433 32.696 31.9433C31.6883 31.9433 31.382 32.6347 31.2165 33.3777C31.0618 34.0692 30.9279 34.8638 32.0114 34.8638C32.7157 34.8638 33.1215 34.5026 33.2929 33.8571H32.6211C32.501 34.1977 32.3581 34.3787 32.1089 34.3787C31.8331 34.3787 31.8124 34.0588 31.8843 33.7333L31.9346 33.5119H33.4131ZM32.0281 33.0888L32.0528 32.9799C32.1099 32.722 32.2626 32.4283 32.561 32.4283C32.8694 32.4283 32.8703 32.6657 32.7925 33.0888H32.0281Z" fill="#231F20"/>
<path d="M34.1371 32.0155H34.8522L34.7695 32.387H34.7803C34.9911 32.1187 35.2423 31.9433 35.5506 31.9433C35.5939 31.9433 35.6422 31.9489 35.6836 31.9536L35.5319 32.6347C35.457 32.6291 35.3772 32.6244 35.3014 32.6244C35.0413 32.6244 34.7202 32.7538 34.6375 33.1253L34.2651 34.7915H33.5175L34.1371 32.0155Z" fill="#231F20"/>
<path d="M36.18 31.0661H36.9276L36.7917 31.6749H36.0441L36.18 31.0661ZM35.9682 32.0155H36.7158L36.0963 34.7915H35.3486L35.9682 32.0155Z" fill="#231F20"/>
<path d="M38.4209 33.0165C38.481 32.7482 38.4908 32.4593 38.2091 32.4593C37.8407 32.4593 37.7127 32.7689 37.5689 33.4087C37.4162 34.0945 37.4181 34.3787 37.754 34.3787C38.0033 34.3787 38.1618 34.178 38.2623 33.7286H38.9765C38.8149 34.4566 38.4042 34.8638 37.6132 34.8638C36.8655 34.8638 36.574 34.5185 36.8232 33.404C37.0773 32.2632 37.6417 31.9433 38.3293 31.9433C39.0178 31.9433 39.2818 32.3617 39.136 33.0165H38.4209Z" fill="#231F20"/>
<path d="M40.2255 32.8674L40.2423 32.7895C40.2915 32.5737 40.4422 32.4283 40.6708 32.4283C40.919 32.4283 40.9889 32.5578 40.9416 32.7698C40.8993 32.9546 40.8057 33.0372 40.5703 33.0944L40.1241 33.2023C39.5784 33.3364 39.3095 33.5485 39.1932 34.0692C39.1105 34.4407 39.2001 34.8638 39.7202 34.8638C40.0778 34.8638 40.3053 34.7915 40.5427 34.5026H40.5545C40.5555 34.5955 40.5526 34.7043 40.5811 34.7915H41.2963C41.2569 34.632 41.2667 34.5129 41.3248 34.2549L41.6509 32.7951C41.7622 32.2942 41.6725 31.9433 40.784 31.9433C40.2206 31.9433 39.7113 32.16 39.5695 32.7998L39.5547 32.8674H40.2255ZM40.6777 33.9509C40.6087 34.2549 40.3221 34.3787 40.1211 34.3787C39.9212 34.3787 39.8788 34.2033 39.9251 33.9922C39.9812 33.7445 40.132 33.6048 40.4491 33.5428C40.5447 33.5222 40.6806 33.4762 40.7988 33.404L40.6777 33.9509Z" fill="#231F20"/>
<path d="M42.3551 32.0155H43.0702L42.9974 32.341H43.0082C43.2269 32.0671 43.5253 31.9433 43.8396 31.9433C44.3055 31.9433 44.5271 32.1862 44.405 32.7332L43.9459 34.7915H43.1983L43.6258 32.8767C43.6879 32.599 43.615 32.4902 43.3923 32.4902C43.1372 32.4902 42.9629 32.6403 42.8939 32.9499L42.4832 34.7915H41.7355L42.3551 32.0155Z" fill="#231F20"/>
<path d="M47.4881 31.1074L47.8673 33.6301H47.8792L48.4416 31.1074H49.1567L48.3352 34.7915H47.4458L47.0685 32.2116H47.0577L46.4814 34.7915H45.7673L46.5888 31.1074H47.4881Z" fill="#231F20"/>
<path d="M49.9507 32.8674L49.9674 32.7895C50.0157 32.5737 50.1674 32.4283 50.3959 32.4283C50.6441 32.4283 50.7131 32.5578 50.6668 32.7698C50.6244 32.9546 50.5308 33.0372 50.2954 33.0944L49.8492 33.2023C49.3045 33.3364 49.0346 33.5485 48.9184 34.0692C48.8356 34.4407 48.9252 34.8638 49.4453 34.8638C49.8029 34.8638 50.0304 34.7915 50.2678 34.5026H50.2787C50.2806 34.5955 50.2777 34.7043 50.3072 34.7915H51.0214C50.981 34.632 50.9918 34.5129 51.05 34.2549L51.376 32.7951C51.4873 32.2942 51.3967 31.9433 50.5082 31.9433C49.9457 31.9433 49.4365 32.16 49.2936 32.7998L49.2789 32.8674H49.9507ZM50.4018 33.9509C50.3338 34.2549 50.0472 34.3787 49.8462 34.3787C49.6453 34.3787 49.6029 34.2033 49.6512 33.9922C49.7054 33.7445 49.8571 33.6048 50.1743 33.5428C50.2698 33.5222 50.4057 33.4762 50.5239 33.404L50.4018 33.9509Z" fill="#231F20"/>
<path d="M52.4201 31.2207H53.1678L52.9905 32.0153H53.4239L53.3155 32.5003H52.8821L52.5472 34.0023C52.4989 34.219 52.5275 34.3063 52.7442 34.3063C52.8043 34.3063 52.8654 34.3016 52.9146 34.296L52.8043 34.7913C52.6378 34.8073 52.4832 34.8223 52.3098 34.8223C51.7247 34.8223 51.6548 34.6525 51.7799 34.0896L52.1345 32.5003H51.7552L51.8636 32.0153H52.2428L52.4201 31.2207Z" fill="#231F20"/>
<path d="M53.9223 31.0661H54.6699L54.534 31.6749H53.7864L53.9223 31.0661ZM53.7105 32.0155H54.4582L53.8376 34.7915H53.0909L53.7105 32.0155Z" fill="#231F20"/>
<path d="M54.5764 33.4042C54.3607 34.3686 54.4966 34.8799 55.3989 34.8649C56.2549 34.8649 56.6617 34.3536 56.8735 33.4042C57.0892 32.4398 56.9533 31.9285 56.05 31.9435C55.195 31.9435 54.7882 32.4548 54.5764 33.4042ZM55.324 33.4042C55.4501 32.8366 55.5742 32.4285 55.9426 32.4285C56.246 32.4285 56.2795 32.7128 56.1258 33.4042C55.9712 34.0956 55.8106 34.3799 55.5072 34.3799C55.1388 34.3799 55.197 33.9718 55.324 33.4042Z" fill="#231F20"/>
<path d="M57.5837 32.0155H58.2988L58.2259 32.341H58.2368C58.4554 32.0671 58.7539 31.9433 59.0681 31.9433C59.534 31.9433 59.7557 32.1862 59.6345 32.7332L59.1745 34.7915H58.4269L58.8544 32.8767C58.9164 32.599 58.8426 32.4902 58.6209 32.4902C58.3658 32.4902 58.1915 32.6403 58.1235 32.9499L57.7117 34.7915H56.9641L57.5837 32.0155Z" fill="#231F20"/>
<path d="M60.7692 32.8674L60.7859 32.7895C60.8352 32.5737 60.9859 32.4283 61.2135 32.4283C61.4627 32.4283 61.5316 32.5578 61.4843 32.7698C61.443 32.9546 61.3494 33.0372 61.114 33.0944L60.6668 33.2023C60.123 33.3364 59.8531 33.5485 59.7369 34.0692C59.6542 34.4407 59.7438 34.8638 60.2639 34.8638C60.6214 34.8638 60.849 34.7915 61.0864 34.5026H61.0972C61.0982 34.5955 61.0962 34.7043 61.1248 34.7915H61.8409C61.8005 34.632 61.8104 34.5129 61.8685 34.2549L62.1936 32.7951C62.3058 32.2942 62.2162 31.9433 61.3277 31.9433C60.7643 31.9433 60.255 32.16 60.1122 32.7998L60.0974 32.8674H60.7692ZM61.2203 33.9509C61.1534 34.2549 60.8657 34.3787 60.6648 34.3787C60.4648 34.3787 60.4225 34.2033 60.4688 33.9922C60.5249 33.7445 60.6746 33.6048 60.9918 33.5428C61.0893 33.5222 61.2243 33.4762 61.3425 33.404L61.2203 33.9509Z" fill="#231F20"/>
<path d="M63.1284 31.1074H63.876L63.0535 34.7915H62.3059L63.1284 31.1074Z" fill="#231F20"/>
<path d="M65.786 33.6404L65.7614 33.7492C65.6845 34.0945 65.7387 34.3168 66.1505 34.3168C66.3888 34.3168 66.6479 34.1714 66.7169 33.8618C66.7917 33.5269 66.641 33.4031 66.1643 33.2323C65.522 33.0062 65.263 32.7323 65.3999 32.1178C65.5604 31.401 66.1022 31.0351 66.839 31.0351C67.5325 31.0351 67.9728 31.3185 67.8152 32.0258L67.7925 32.129H67.0439C67.1217 31.7829 67.0429 31.5821 66.7444 31.5821C66.3918 31.5821 66.2529 31.7932 66.2037 32.0099C66.1534 32.2369 66.1928 32.3758 66.4932 32.5099L67.0399 32.7585C67.5709 33.0006 67.6585 33.2849 67.5581 33.7333C67.3847 34.5129 66.8075 34.8638 65.9633 34.8638C65.0797 34.8638 64.8207 34.4716 64.9724 33.7905L65.0059 33.6404H65.786Z" fill="#231F20"/>
<path d="M68.6504 31.2207H69.398L69.2207 32.0153H69.6541L69.5458 32.5003H69.1124L68.7775 34.0023C68.7282 34.219 68.7578 34.3063 68.9745 34.3063C69.0346 34.3063 69.0947 34.3016 69.1459 34.296L69.0346 34.7913C68.8681 34.8073 68.7134 34.8223 68.5401 34.8223C67.955 34.8223 67.8841 34.6525 68.0101 34.0896L68.3647 32.5003H67.9855L68.0939 32.0153H68.4731L68.6504 31.2207Z" fill="#231F20"/>
<path d="M70.391 32.8674L70.4077 32.7895C70.457 32.5737 70.6077 32.4283 70.8352 32.4283C71.0844 32.4283 71.1534 32.5578 71.1061 32.7698C71.0647 32.9546 70.9711 33.0372 70.7357 33.0944L70.2885 33.2023C69.7448 33.3364 69.4749 33.5485 69.3587 34.0692C69.2759 34.4407 69.3656 34.8638 69.8857 34.8638C70.2432 34.8638 70.4708 34.7915 70.7081 34.5026H70.719C70.721 34.5955 70.718 34.7043 70.7475 34.7915H71.4617C71.4223 34.632 71.4321 34.5129 71.4893 34.2549L71.8153 32.7951C71.9276 32.2942 71.838 31.9433 70.9495 31.9433C70.386 31.9433 69.8768 32.16 69.734 32.7998L69.7192 32.8674H70.391ZM70.8421 33.9509C70.7741 34.2549 70.4865 34.3787 70.2866 34.3787C70.0856 34.3787 70.0442 34.2033 70.0915 33.9922C70.1467 33.7445 70.2964 33.6048 70.6146 33.5428C70.7111 33.5222 70.8451 33.4762 70.9643 33.404L70.8421 33.9509Z" fill="#231F20"/>
<path d="M72.5206 32.0155H73.2348L73.1638 32.341H73.1737C73.3924 32.0671 73.6908 31.9433 74.0051 31.9433C74.47 31.9433 74.6926 32.1862 74.5705 32.7332L74.1114 34.7915H73.3638L73.7903 32.8767C73.8534 32.599 73.7805 32.4902 73.5579 32.4902C73.3027 32.4902 73.1284 32.6403 73.0594 32.9499L72.6487 34.7915H71.9001L72.5206 32.0155Z" fill="#231F20"/>
<path d="M76.1041 34.7915H76.8202L77.6418 31.1074H76.8941L76.6341 32.2735H76.6232C76.5149 32.0521 76.3494 31.9433 76.0677 31.9433C75.456 31.9433 75.0787 32.3711 74.8482 33.4031C74.6177 34.436 74.8049 34.8638 75.4166 34.8638C75.7091 34.8638 75.9396 34.7549 76.1593 34.4969H76.1701L76.1041 34.7915ZM75.5959 33.4031C75.7308 32.7998 75.8648 32.4902 76.1898 32.4902C76.5198 32.4902 76.5159 32.7998 76.3819 33.4031C76.247 34.0072 76.113 34.3168 75.782 34.3168C75.457 34.3168 75.4619 34.0072 75.5959 33.4031Z" fill="#231F20"/>
<path d="M78.414 32.8674L78.4308 32.7895C78.4791 32.5737 78.6307 32.4283 78.8583 32.4283C79.1075 32.4283 79.1765 32.5578 79.1292 32.7698C79.0878 32.9546 78.9942 33.0372 78.7588 33.0944L78.3116 33.2023C77.7679 33.3364 77.498 33.5485 77.3817 34.0692C77.299 34.4407 77.3886 34.8638 77.9087 34.8638C78.2663 34.8638 78.4938 34.7915 78.7312 34.5026H78.7421C78.743 34.5955 78.7411 34.7043 78.7696 34.7915H79.4848C79.4454 34.632 79.4552 34.5129 79.5123 34.2549L79.8384 32.7951C79.9497 32.2942 79.8601 31.9433 78.9726 31.9433C78.4091 31.9433 77.8999 32.16 77.757 32.7998L77.7423 32.8674H78.414ZM78.8652 33.9509C78.7972 34.2549 78.5096 34.3787 78.3096 34.3787C78.1087 34.3787 78.0673 34.2033 78.1146 33.9922C78.1698 33.7445 78.3195 33.6048 78.6376 33.5428C78.7332 33.5222 78.8681 33.4762 78.9873 33.404L78.8652 33.9509Z" fill="#231F20"/>
<path d="M80.5437 32.0155H81.2588L81.176 32.387H81.1869C81.3987 32.1187 81.6489 31.9433 81.9572 31.9433C82.0005 31.9433 82.0488 31.9489 82.0911 31.9536L81.9385 32.6347C81.8646 32.6291 81.7838 32.6244 81.708 32.6244C81.4489 32.6244 81.1268 32.7538 81.044 33.1253L80.6717 34.7915H79.9241L80.5437 32.0155Z" fill="#231F20"/>
<path d="M83.2239 34.7915H83.9391L84.7606 31.1074H84.0129L83.7529 32.2735H83.7421C83.6347 32.0521 83.4702 31.9433 83.1875 31.9433C82.5748 31.9433 82.1985 32.3711 81.968 33.4031C81.7375 34.436 81.9237 34.8638 82.5354 34.8638C82.8289 34.8638 83.0585 34.7549 83.2781 34.4969H83.289L83.2239 34.7915ZM82.7147 33.4031C82.8496 32.7998 82.9836 32.4902 83.3087 32.4902C83.6396 32.4902 83.6357 32.7998 83.5007 33.4031C83.3658 34.0072 83.2318 34.3168 82.9009 34.3168C82.5768 34.3168 82.5807 34.0072 82.7147 33.4031Z" fill="#231F20"/>
<path d="M85.187 33.8834L85.1664 33.9763C85.1122 34.2183 85.2127 34.3787 85.4668 34.3787C85.6943 34.3787 85.8707 34.2699 85.9189 34.0485C85.9593 33.8674 85.8529 33.7858 85.719 33.7333L85.2333 33.5532C84.8531 33.4143 84.6965 33.1713 84.7842 32.7792C84.8866 32.3204 85.2737 31.9433 86.042 31.9433C86.7197 31.9433 86.9749 32.2322 86.8626 32.7323L86.8379 32.8467H86.1662C86.2282 32.5672 86.1731 32.4283 85.9288 32.4283C85.7387 32.4283 85.5535 32.5315 85.5101 32.7276C85.4796 32.8617 85.5308 32.9753 85.7633 33.0522L86.18 33.1967C86.6183 33.3468 86.7404 33.5738 86.6469 33.9913C86.5178 34.5748 85.9977 34.8638 85.3693 34.8638C84.529 34.8638 84.3744 34.5129 84.4936 33.981L84.5153 33.8834H85.187Z" fill="#231F20"/>
<path d="M88.2022 34.7915L89.0247 31.1074H89.8049L88.9824 34.7915H88.2022Z" fill="#231F20"/>
<path d="M90.1604 32.0155H90.8746L90.8027 32.341H90.8135C91.0312 32.0671 91.3306 31.9433 91.6439 31.9433C92.1098 31.9433 92.3324 32.1862 92.2103 32.7332L91.7512 34.7915H91.0026L91.4301 32.8767C91.4922 32.599 91.4193 32.4902 91.1967 32.4902C90.9425 32.4902 90.7682 32.6403 90.6992 32.9499L90.2885 34.7915H89.5408L90.1604 32.0155Z" fill="#231F20"/>
<path d="M92.9993 33.8834L92.9786 33.9763C92.9244 34.2183 93.0239 34.3787 93.279 34.3787C93.5066 34.3787 93.6819 34.2699 93.7322 34.0485C93.7725 33.8674 93.6662 33.7858 93.5312 33.7333L93.0456 33.5532C92.6654 33.4143 92.5078 33.1713 92.5954 32.7792C92.6979 32.3204 93.086 31.9433 93.8553 31.9433C94.532 31.9433 94.7871 32.2322 94.6758 32.7323L94.6502 32.8467H93.9784C94.0405 32.5672 93.9853 32.4283 93.741 32.4283C93.5519 32.4283 93.3657 32.5315 93.3224 32.7276C93.2919 32.8617 93.3431 32.9753 93.5746 33.0522L93.9922 33.1967C94.4296 33.3468 94.5527 33.5738 94.4601 33.9913C94.3291 34.5748 93.81 34.8638 93.1815 34.8638C92.3413 34.8638 92.1876 34.5129 92.3058 33.981L92.3275 33.8834H92.9993Z" fill="#231F20"/>
<path d="M95.6136 31.2207H96.3612L96.1839 32.0153H96.6173L96.509 32.5003H96.0755L95.7406 34.0023C95.6924 34.219 95.7209 34.3063 95.9376 34.3063C95.9977 34.3063 96.0578 34.3016 96.109 34.296L95.9977 34.7913C95.8313 34.8073 95.6766 34.8223 95.5032 34.8223C94.9181 34.8223 94.8472 34.6525 94.9733 34.0896L95.3289 32.5003H94.9487L95.057 32.0153H95.4363L95.6136 31.2207Z" fill="#231F20"/>
<path d="M97.1168 31.0661H97.8634L97.7275 31.6749H96.9799L97.1168 31.0661ZM96.904 32.0155H97.6516L97.0321 34.7915H96.2844L96.904 32.0155Z" fill="#231F20"/>
<path d="M98.5174 31.2207H99.2651L99.0878 32.0153H99.5202L99.4128 32.5003H98.9794L98.6435 34.0023C98.5953 34.219 98.6248 34.3063 98.8415 34.3063C98.9016 34.3063 98.9617 34.3016 99.0119 34.296L98.9016 34.7913C98.7351 34.8073 98.5805 34.8223 98.4071 34.8223C97.822 34.8223 97.7511 34.6525 97.8762 34.0896L98.2318 32.5003H97.8525L97.9609 32.0153H98.3401L98.5174 31.2207Z" fill="#231F20"/>
<path d="M100.73 34.466H100.719C100.501 34.739 100.202 34.8638 99.8885 34.8638C99.4216 34.8638 99.2 34.6208 99.3222 34.0738L99.7812 32.0155H100.529L100.101 33.9294C100.039 34.208 100.113 34.3168 100.335 34.3168C100.59 34.3168 100.764 34.1667 100.832 33.8571L101.244 32.0155H101.992L101.373 34.7915H100.658L100.73 34.466Z" fill="#231F20"/>
<path d="M102.83 31.2207H103.577L103.399 32.0153H103.833L103.725 32.5003H103.292L102.957 34.0023C102.909 34.219 102.937 34.3063 103.154 34.3063C103.213 34.3063 103.274 34.3016 103.324 34.296L103.213 34.7913C103.048 34.8073 102.893 34.8223 102.72 34.8223C102.134 34.8223 102.063 34.6525 102.189 34.0896L102.544 32.5003H102.165L102.273 32.0153H102.653L102.83 31.2207Z" fill="#231F20"/>
<path d="M105.257 33.0888C105.336 32.6657 105.334 32.4283 105.024 32.4283C104.728 32.4283 104.574 32.722 104.517 32.9799L104.493 33.0888H105.257ZM104.399 33.5119L104.349 33.7333C104.277 34.0588 104.298 34.3787 104.574 34.3787C104.824 34.3787 104.966 34.1986 105.086 33.8571H105.757C105.587 34.5026 105.181 34.8638 104.477 34.8638C103.392 34.8638 103.527 34.0692 103.682 33.3777C103.847 32.6347 104.154 31.9433 105.161 31.9433C106.033 31.9433 106.103 32.5006 105.914 33.3515L105.878 33.5119H104.399Z" fill="#231F20"/>
</g>
</g>
<defs>
<clipPath id="clip0_566_450">
<rect width="106" height="37" fill="white" transform="translate(0 0.5)"/>
</clipPath>
</defs>
</svg>
