<svg width="76" height="76" viewBox="0 0 76 76" fill="none" xmlns="http://www.w3.org/2000/svg">
<path fill-rule="evenodd" clip-rule="evenodd" d="M29.7742 57.3092H30.4125C30.8651 57.3092 31.2556 57.3155 31.6212 57.0117C31.9375 56.745 32.08 56.336 32.08 55.9331C32.08 55.4931 31.8878 55.1273 31.5282 54.8731C31.175 54.6314 30.7969 54.6314 30.3816 54.6314H28.7823V58.8838H29.7742V57.3092ZM29.7742 55.4062H30.3258C30.5117 55.4062 30.7164 55.4062 30.8713 55.524C31.0077 55.6293 31.0759 55.8028 31.0759 55.9703C31.0759 56.1066 31.0324 56.2432 30.9395 56.3484C30.7659 56.5345 30.5674 56.5345 30.332 56.5345H29.7742V55.4062Z" fill="#231F20"/>
<path fill-rule="evenodd" clip-rule="evenodd" d="M37.9999 51.3166L7.36104 35L37.9999 18.5538L68.5092 35L37.9999 51.3166ZM37.7414 53L72 35L37.8708 17L4 35L37.7414 53Z" fill="#231F20"/>
<path fill-rule="evenodd" clip-rule="evenodd" d="M26.1906 30.7891H33.424V32.985H28.6447V34.5348H33.424V36.7311H28.6447V40.0894H26.1906V30.7891Z" fill="#231F20"/>
<path fill-rule="evenodd" clip-rule="evenodd" d="M44.6619 40.0894L46.7283 32.6622V40.0894H49.1828V30.7891H44.9202L43.2412 37.2477L41.5618 30.7891H37.2992V40.0894H39.7533V32.6622L41.82 40.0894H44.6619Z" fill="#231F20"/>
<path fill-rule="evenodd" clip-rule="evenodd" d="M20.0535 57.2287L20.5059 55.7348L20.9585 57.2287H20.0535ZM19.8117 58.0097H21.1879L21.4483 58.8838H22.5206L21.1879 54.6314H20.0351L18.6712 58.8838H19.5452L19.8117 58.0097Z" fill="#231F20"/>
<path fill-rule="evenodd" clip-rule="evenodd" d="M25.0109 57.3092H25.6493C26.1019 57.3092 26.4925 57.3155 26.8582 57.0117C27.1743 56.745 27.317 56.336 27.317 55.9331C27.317 55.4931 27.1248 55.1273 26.7652 54.8731C26.4118 54.6314 26.0337 54.6314 25.6184 54.6314H24.0191V58.8838H25.0109V57.3092ZM25.0109 55.4062H25.5625C25.7487 55.4062 25.9532 55.4062 26.1083 55.524C26.2445 55.6293 26.3127 55.8028 26.3127 55.9703C26.3127 56.1066 26.2693 56.2432 26.1762 56.3484C26.0027 56.5345 25.8044 56.5345 25.5689 56.5345H25.0109V55.4062Z" fill="#231F20"/>
<path fill-rule="evenodd" clip-rule="evenodd" d="M34.1371 57.2039H34.8623L35.5133 58.8838H36.6167L35.8293 57.0055C36.2882 56.8381 36.5671 56.3917 36.5671 55.9083C36.5671 55.4931 36.375 55.0776 36.0277 54.8484C35.6992 54.6376 35.3149 54.6314 34.9368 54.6314H33.1453V58.8838H34.1371V57.2039ZM34.1371 55.3877H34.6577C34.8439 55.3877 35.1288 55.3629 35.2962 55.4683C35.4387 55.555 35.5381 55.7348 35.5381 55.9022C35.5381 56.0881 35.4513 56.2865 35.2901 56.3857C35.1103 56.491 34.8871 56.4724 34.6826 56.4724H34.1371V55.3877Z" fill="#231F20"/>
<path fill-rule="evenodd" clip-rule="evenodd" d="M39.8944 54.5696C38.6359 54.5696 38.0718 55.6233 38.0718 56.7514C38.0718 57.2845 38.2082 57.8361 38.5181 58.2763C38.8529 58.7474 39.3179 58.9458 39.8944 58.9458C40.4708 58.9458 40.973 58.7102 41.3012 58.2268C41.5742 57.8239 41.7044 57.235 41.7044 56.7514C41.7044 56.237 41.5494 55.6357 41.2455 55.2203C40.9046 54.7554 40.4584 54.5696 39.8944 54.5696ZM39.8944 55.3816C40.2044 55.3816 40.3838 55.5117 40.5079 55.7968C40.632 56.082 40.6629 56.4477 40.6629 56.7576C40.6629 57.0367 40.632 57.3899 40.5327 57.6502C40.4213 57.9663 40.2354 58.1336 39.8944 58.1336C39.1937 58.1336 39.1132 57.2845 39.1132 56.7514C39.1132 56.4849 39.1504 56.1191 39.2496 55.8649C39.3674 55.5551 39.5534 55.3816 39.8944 55.3816Z" fill="#231F20"/>
<path fill-rule="evenodd" clip-rule="evenodd" d="M45.3848 58.8838H44.3124L43.0355 54.6314H44.0955L44.9511 57.6687L45.8314 54.6314H46.668L45.3848 58.8838Z" fill="#231F20"/>
<path fill-rule="evenodd" clip-rule="evenodd" d="M48.7131 55.4557V56.3174H50.3248V57.1171H48.7131V58.0593H50.7586V58.8838H47.7211V54.6314H50.7586V55.4557H48.7131Z" fill="#231F20"/>
<path fill-rule="evenodd" clip-rule="evenodd" d="M53.3495 58.084H53.6843C54.0995 58.084 54.3659 58.0035 54.5955 57.6314C54.7626 57.3587 54.831 57.0302 54.831 56.7143C54.831 56.3795 54.7316 56.0199 54.5271 55.7533C54.2979 55.4557 54.0439 55.4124 53.6905 55.4124H53.3495V58.084ZM52.3575 58.8838V54.6314H53.5912C54.2051 54.6314 54.7316 54.6685 55.1967 55.1087C55.6552 55.5426 55.8535 56.1316 55.8535 56.745C55.8535 57.3155 55.6803 57.8672 55.3019 58.2947C54.8805 58.7598 54.3597 58.8838 53.7586 58.8838H52.3575Z" fill="#231F20"/>
</svg>
