<svg width="41" height="41" viewBox="0 0 41 41" fill="none" xmlns="http://www.w3.org/2000/svg">
<path fill-rule="evenodd" clip-rule="evenodd" d="M15.6415 30.4782H15.982C16.2233 30.4782 16.4316 30.4816 16.6266 30.3195C16.7953 30.1773 16.8713 29.9592 16.8713 29.7443C16.8713 29.5096 16.7688 29.3145 16.577 29.179C16.3886 29.05 16.1869 29.05 15.9655 29.05H15.1125V31.318H15.6415V30.4782ZM15.6415 29.4633H15.9357C16.0349 29.4633 16.144 29.4633 16.2267 29.5261C16.2994 29.5823 16.3358 29.6748 16.3358 29.7641C16.3358 29.8368 16.3126 29.9097 16.263 29.9658C16.1704 30.065 16.0646 30.065 15.939 30.065H15.6415V29.4633Z" fill="#231F20"/>
<path fill-rule="evenodd" clip-rule="evenodd" d="M20.0681 27.2879L3.7409 18.6076L20.0681 9.85836L36.3264 18.6076L20.0681 27.2879ZM19.9304 28.1835L38.1866 18.6076L19.9994 9.03176L1.94982 18.6076L19.9304 28.1835Z" fill="#231F20"/>
<path fill-rule="evenodd" clip-rule="evenodd" d="M13.7303 16.3342H17.5881V17.5054H15.0391V18.332H17.5881V19.5033H15.0391V21.2944H13.7303V16.3342Z" fill="#231F20"/>
<path fill-rule="evenodd" clip-rule="evenodd" d="M23.5816 21.2944L24.6837 17.3332V21.2944H25.9928V16.3342H23.7194L22.8239 19.7788L21.9282 16.3342H19.6549V21.2944H20.9637V17.3332L22.066 21.2944H23.5816Z" fill="#231F20"/>
<path fill-rule="evenodd" clip-rule="evenodd" d="M10.4572 30.4353L10.6985 29.6385L10.9398 30.4353H10.4572ZM10.3282 30.8518H11.0622L11.201 31.318H11.773L11.0622 29.05H10.4473L9.71996 31.318H10.1861L10.3282 30.8518Z" fill="#231F20"/>
<path fill-rule="evenodd" clip-rule="evenodd" d="M13.1011 30.4782H13.4416C13.683 30.4782 13.8913 30.4816 14.0863 30.3195C14.2549 30.1773 14.331 29.9592 14.331 29.7443C14.331 29.5096 14.2285 29.3145 14.0367 29.179C13.8483 29.05 13.6466 29.05 13.4251 29.05H12.5722V31.318H13.1011V30.4782ZM13.1011 29.4633H13.3953C13.4946 29.4633 13.6037 29.4633 13.6864 29.5261C13.759 29.5823 13.7954 29.6748 13.7954 29.7641C13.7954 29.8368 13.7722 29.9097 13.7226 29.9658C13.6301 30.065 13.5243 30.065 13.3987 30.065H13.1011V29.4633Z" fill="#231F20"/>
<path fill-rule="evenodd" clip-rule="evenodd" d="M17.9684 30.4221H18.3552L18.7024 31.318H19.2908L18.8709 30.3162C19.1157 30.227 19.2644 29.9889 19.2644 29.7311C19.2644 29.5096 19.162 29.288 18.9767 29.1658C18.8015 29.0533 18.5966 29.05 18.3949 29.05H17.4394V31.318H17.9684V30.4221ZM17.9684 29.4534H18.2461C18.3454 29.4534 18.4973 29.4402 18.5866 29.4964C18.6626 29.5426 18.7156 29.6385 18.7156 29.7278C18.7156 29.8269 18.6693 29.9328 18.5834 29.9857C18.4874 30.0418 18.3684 30.0319 18.2593 30.0319H17.9684V29.4534Z" fill="#231F20"/>
<path fill-rule="evenodd" clip-rule="evenodd" d="M21.039 29.0171C20.3678 29.0171 20.0669 29.5791 20.0669 30.1807C20.0669 30.465 20.1397 30.7593 20.3049 30.994C20.4835 31.2452 20.7315 31.3511 21.039 31.3511C21.3464 31.3511 21.6142 31.2254 21.7893 30.9676C21.9348 30.7527 22.0043 30.4386 22.0043 30.1807C22.0043 29.9064 21.9216 29.5857 21.7596 29.3641C21.5777 29.1162 21.3398 29.0171 21.039 29.0171ZM21.039 29.4501C21.2043 29.4501 21.3 29.5196 21.3662 29.6716C21.4324 29.8237 21.4489 30.0188 21.4489 30.184C21.4489 30.3329 21.4324 30.5213 21.3794 30.6601C21.32 30.8287 21.2208 30.9179 21.039 30.9179C20.6653 30.9179 20.6223 30.465 20.6223 30.1807C20.6223 30.0386 20.6422 29.8435 20.6951 29.7079C20.7579 29.5427 20.8571 29.4501 21.039 29.4501Z" fill="#231F20"/>
<path fill-rule="evenodd" clip-rule="evenodd" d="M23.9672 31.318H23.3952L22.7142 29.05H23.2796L23.7359 30.67L24.2054 29.05H24.6515L23.9672 31.318Z" fill="#231F20"/>
<path fill-rule="evenodd" clip-rule="evenodd" d="M25.7423 29.4897V29.9493H26.6019V30.3757H25.7423V30.8782H26.8332V31.318H25.2132V29.05H26.8332V29.4897H25.7423Z" fill="#231F20"/>
<path fill-rule="evenodd" clip-rule="evenodd" d="M28.215 30.8915H28.3936C28.615 30.8915 28.7571 30.8485 28.8796 30.6501C28.9687 30.5046 29.0051 30.3294 29.0051 30.1609C29.0051 29.9824 28.9522 29.7906 28.8431 29.6484C28.7208 29.4897 28.5854 29.4666 28.3969 29.4666H28.215V30.8915ZM27.686 31.318V29.05H28.3439C28.6713 29.05 28.9522 29.0698 29.2002 29.3046C29.4447 29.536 29.5505 29.8501 29.5505 30.1773C29.5505 30.4816 29.4581 30.7758 29.2563 31.0038C29.0315 31.2519 28.7538 31.318 28.4332 31.318H27.686Z" fill="#231F20"/>
</svg>
