<svg width="41" height="41" viewBox="0 0 41 41" fill="none" xmlns="http://www.w3.org/2000/svg">
<path fill-rule="evenodd" clip-rule="evenodd" d="M20.354 2.07295C30.3335 2.07295 38.4723 10.2117 38.4723 20.1912C38.4723 30.1709 30.3335 38.3096 20.354 38.3096C10.3743 38.3096 2.23553 30.1709 2.23553 20.1912C2.23553 10.2117 10.3743 2.07295 20.354 2.07295Z" fill="#231F20"/>
<path fill-rule="evenodd" clip-rule="evenodd" d="M20.354 2.75833C29.9533 2.75833 37.7869 10.5917 37.7869 20.1913C37.7869 29.7907 29.9533 37.6243 20.354 37.6243C10.7545 37.6243 2.92094 29.7907 2.92094 20.1913C2.92094 10.5917 10.7545 2.75833 20.354 2.75833Z" fill="white"/>
<path fill-rule="evenodd" clip-rule="evenodd" d="M20.354 3.44866C29.5731 3.44866 37.0966 10.9722 37.0966 20.1913C37.0966 29.4106 29.5731 36.934 20.354 36.934C11.1347 36.934 3.61116 29.4106 3.61116 20.1913C3.61116 10.9722 11.1347 3.44866 20.354 3.44866Z" fill="#231F20"/>
<path fill-rule="evenodd" clip-rule="evenodd" d="M30.4935 31.8167L31.8443 30.511L31.569 30.2309L30.5286 31.2364L28.6927 29.3355L28.3826 29.6307L30.4935 31.8167Z" fill="white"/>
<path fill-rule="evenodd" clip-rule="evenodd" d="M28.6628 33.1973L29.0228 32.9522L27.3271 30.436L26.9669 30.6811L28.6628 33.1973Z" fill="white"/>
<path fill-rule="evenodd" clip-rule="evenodd" d="M27.0919 33.3573C26.8319 33.7175 26.5366 33.9576 26.2065 34.0827C25.5513 34.3328 24.901 34.0426 24.6709 33.4374C24.4358 32.8321 24.721 32.1718 25.4012 31.9117C25.7113 31.7916 26.0616 31.7716 26.4768 31.8266L26.3067 31.3864C26.0016 31.3664 25.6414 31.3815 25.2511 31.5315C24.796 31.7066 24.4758 31.9917 24.2857 32.3919C24.1057 32.7721 24.0855 33.2073 24.2356 33.5874C24.4257 34.0927 24.841 34.4428 25.3711 34.5579C25.6913 34.6229 26.0216 34.5979 26.3467 34.4729C26.6867 34.3428 27.002 34.1177 27.2671 33.8125L27.0919 33.3573Z" fill="white"/>
<path fill-rule="evenodd" clip-rule="evenodd" d="M20.7391 35.6984L21.1694 35.6484L20.8841 33.3073L23.1451 35.4032L23.5302 35.3583L23.1601 32.3469L22.73 32.3969L23.0201 34.738L20.7441 32.642L20.3739 32.6871L20.7391 35.6984Z" fill="white"/>
<path fill-rule="evenodd" clip-rule="evenodd" d="M17.0975 32.1968L16.7573 33.9226C16.6972 34.2528 16.6572 34.5129 16.8073 34.798C16.9974 35.1532 17.3326 35.3883 17.7878 35.4783C18.5581 35.6284 19.1634 35.2682 19.2884 34.6129L19.6637 32.6971L19.2384 32.612L18.8683 34.5129C18.7832 34.9481 18.388 35.1782 17.8678 35.0782C17.5576 35.0181 17.3376 34.8631 17.2025 34.628C17.1024 34.4479 17.1375 34.2528 17.1875 33.9876L17.5177 32.2769L17.0975 32.1968Z" fill="white"/>
<path fill-rule="evenodd" clip-rule="evenodd" d="M13.1806 32.2018C12.9955 32.592 12.9805 33.0122 13.1356 33.4223C13.2856 33.8125 13.5858 34.1377 13.976 34.3178C14.3762 34.5028 14.8014 34.5278 15.2165 34.3878C15.6167 34.2528 15.9319 33.9626 16.107 33.5924C16.292 33.1922 16.307 32.7871 16.152 32.3719C16.002 31.9768 15.6968 31.6565 15.3017 31.4714C14.9114 31.2913 14.4813 31.2664 14.0761 31.4064C13.6758 31.5415 13.3507 31.8316 13.1806 32.2018Z" fill="white"/>
<path fill-rule="evenodd" clip-rule="evenodd" d="M12.1551 32.437C11.7149 32.3869 11.3547 32.2518 11.0797 32.0318C10.5394 31.5916 10.4643 30.8813 10.8745 30.376C11.2847 29.8707 11.9951 29.7907 12.5604 30.246C12.8154 30.456 13.0106 30.7511 13.1706 31.1364L13.4658 30.7712C13.3307 30.496 13.1407 30.191 12.8154 29.9308C12.4354 29.6207 12.0301 29.4856 11.5849 29.5206C11.1696 29.5556 10.7795 29.7557 10.5244 30.0759C10.1842 30.4911 10.0893 31.0312 10.2543 31.5465C10.3593 31.8566 10.5444 32.1268 10.8145 32.3469C11.0997 32.577 11.4498 32.7371 11.845 32.8171L12.1551 32.437Z" fill="white"/>
<path fill-rule="evenodd" clip-rule="evenodd" d="M33.575 24.3282L33.8001 23.3377L33.4098 23.2476L33.2799 23.803L32.7096 23.6679C32.6647 23.4328 32.6696 23.2227 32.7146 23.0176C32.8746 22.3323 33.4799 21.9571 34.1152 22.1072C34.7457 22.2522 35.1306 22.8576 34.9706 23.5628C34.8956 23.888 34.7154 24.1881 34.4354 24.5033L34.8956 24.6083C35.1356 24.2982 35.2906 23.988 35.3659 23.6579C35.4758 23.1776 35.4259 22.7525 35.1958 22.3673C34.9805 22.0071 34.6304 21.752 34.2302 21.6569C33.7051 21.5369 33.1748 21.682 32.7896 22.0571C32.5546 22.2823 32.3944 22.5774 32.3144 22.9325C32.2393 23.2527 32.2443 23.6229 32.3195 24.043L33.575 24.3282Z" fill="white"/>
<path fill-rule="evenodd" clip-rule="evenodd" d="M32.5445 17.9303L32.5845 18.3604L34.9356 18.1555L32.7595 20.3363L32.7896 20.7216L35.816 20.4564L35.781 20.0363L33.43 20.2363L35.6059 18.0404L35.5711 17.6651L32.5445 17.9303Z" fill="white"/>
<path fill-rule="evenodd" clip-rule="evenodd" d="M32.1245 16.4645L32.2443 16.8847L35.1608 16.0445L35.0408 15.6292L32.1245 16.4645Z" fill="white"/>
<path fill-rule="evenodd" clip-rule="evenodd" d="M33.9152 12.9179L33.39 11.9325L30.7086 13.3581L31.2337 14.3437C31.4241 14.7039 31.6391 14.9639 31.9443 15.1241C32.3793 15.3542 32.8948 15.349 33.3599 15.1041C33.8199 14.8538 34.1102 14.4336 34.1653 13.9435C34.2003 13.5934 34.1053 13.2781 33.9152 12.9179Z" fill="white"/>
<path fill-rule="evenodd" clip-rule="evenodd" d="M29.248 11.6373L30.4787 13.053L30.7735 12.7979L29.8232 11.7074L31.8193 9.97154L31.5391 9.64638L29.248 11.6373Z" fill="white"/>
<path fill-rule="evenodd" clip-rule="evenodd" d="M27.7372 10.3019L28.0774 10.572L29.9484 8.18083L29.603 7.91072L27.7372 10.3019Z" fill="white"/>
<path fill-rule="evenodd" clip-rule="evenodd" d="M25.7063 5.75461L24.9911 7.36533C24.856 7.67048 24.756 7.91069 24.841 8.22574C24.9459 8.61584 25.2212 8.921 25.6463 9.1111C26.3616 9.43131 27.0269 9.21626 27.3022 8.601L28.0975 6.82018L27.7022 6.64492L26.9119 8.41605C26.7319 8.81605 26.2966 8.9511 25.8115 8.73605C25.5214 8.6111 25.3412 8.4109 25.2661 8.15069C25.2061 7.95069 25.2812 7.77048 25.3913 7.52554L26.1016 5.93481L25.7063 5.75461Z" fill="white"/>
<path fill-rule="evenodd" clip-rule="evenodd" d="M21.5395 7.88577L22.575 8.06577C23.2102 8.18083 23.6455 7.91567 23.7304 7.43052C23.8005 7.04516 23.6053 6.72021 23.1853 6.53505C23.5003 6.48 23.6803 6.30495 23.7356 5.98969C23.8205 5.49959 23.5453 5.15443 22.9401 5.04928L22.0647 4.89423L21.5395 7.88577Z" fill="white"/>
<path fill-rule="evenodd" clip-rule="evenodd" d="M16.1171 8.51093L16.5372 8.41608L16.0069 6.11484L18.4781 7.96577L18.8533 7.88061L18.1679 4.91938L17.7529 5.01938L18.278 7.3103L15.8018 5.46948L15.4316 5.55464L16.1171 8.51093Z" fill="white"/>
<path fill-rule="evenodd" clip-rule="evenodd" d="M13.8509 9.6814L15.5166 8.83109L15.3366 8.48078L14.056 9.13624L13.6258 8.29068L14.8314 7.67563L14.6563 7.33047L13.4458 7.94573L13.0305 7.12531L14.2761 6.49006L14.096 6.1449L12.4702 6.97521L13.8509 9.6814Z" fill="white"/>
<path fill-rule="evenodd" clip-rule="evenodd" d="M11.79 11.2623L13.2257 10.0617L12.9705 9.76144L11.87 10.687L11.2597 9.96165L12.3002 9.09134L12.0501 8.79113L11.0096 9.66144L10.4194 8.95608L11.4849 8.06082L11.2397 7.76557L9.8391 8.93608L11.79 11.2623Z" fill="white"/>
<path fill-rule="evenodd" clip-rule="evenodd" d="M9.94413 13.4932L10.2193 13.1532L9.16368 12.2977L9.24382 12.1977C9.45896 11.9325 9.70904 11.9476 10.1342 11.9874L11.0797 12.0827L11.4098 11.6773L10.0842 11.5523C9.9091 11.5373 9.76405 11.5274 9.62405 11.5824C9.77403 11.1973 9.69896 10.9171 9.39387 10.667C8.98368 10.3369 8.53345 10.4068 8.14331 10.887L7.58306 11.5824L9.94413 13.4932Z" fill="white"/>
<path fill-rule="evenodd" clip-rule="evenodd" d="M8.25333 13.4482L7.82316 14.3736L8.18834 14.5437L8.42842 14.0284L8.96362 14.2736C8.95364 14.5187 8.90861 14.7187 8.81865 14.9088C8.52347 15.5441 7.84813 15.7892 7.26292 15.5142C6.67263 15.2391 6.42246 14.5688 6.72764 13.9084C6.8677 13.6082 7.10778 13.3532 7.443 13.103L7.01774 12.903C6.71766 13.1531 6.50253 13.4282 6.35747 13.7334C6.15234 14.1837 6.11729 14.6037 6.25743 15.029C6.3925 15.4292 6.68261 15.7542 7.05277 15.9243C7.54304 16.1544 8.09329 16.1193 8.5485 15.8344C8.82356 15.6643 9.04368 15.409 9.19372 15.0789C9.33378 14.7789 9.40387 14.4185 9.41883 13.9934L8.25333 13.4482Z" fill="white"/>
<path fill-rule="evenodd" clip-rule="evenodd" d="M7.92319 18.2954C8.06325 18.3204 8.20331 18.2305 8.22836 18.0853C8.2584 17.9402 8.16337 17.8051 8.02323 17.7802C7.87817 17.7503 7.7431 17.8402 7.71306 17.9853C7.68809 18.1305 7.77813 18.2653 7.92319 18.2954Z" fill="white"/>
<path fill-rule="evenodd" clip-rule="evenodd" d="M7.72811 20.3013C7.95323 20.0762 8.06325 19.8311 8.0883 19.516C8.13325 18.9758 7.82317 18.5905 7.36795 18.5505C6.86271 18.5055 6.63267 18.7457 6.32244 19.1657C6.05737 19.516 5.90725 19.7311 5.67222 19.711C5.46708 19.6961 5.32694 19.501 5.35199 19.2208C5.37205 18.9808 5.49704 18.7756 5.71717 18.5406L5.227 18.5006C5.07187 18.7156 4.98191 18.9307 4.96185 19.1657C4.91185 19.7061 5.227 20.0913 5.68712 20.1313C6.12236 20.1712 6.32743 19.9212 6.69768 19.441C6.93269 19.1309 7.06776 18.9657 7.32292 18.9857C7.56308 19.0057 7.69816 19.2008 7.66811 19.5059C7.64306 19.8011 7.47803 20.0212 7.1578 20.2513L7.72811 20.3013Z" fill="white"/>
<path fill-rule="evenodd" clip-rule="evenodd" d="M7.86818 21.722C8.01824 21.712 8.12333 21.587 8.11335 21.4418C8.10329 21.2968 7.9782 21.1867 7.83323 21.1967C7.68809 21.2068 7.57799 21.3318 7.58797 21.4769C7.60304 21.6219 7.72304 21.732 7.86818 21.722Z" fill="white"/>
<path fill-rule="evenodd" clip-rule="evenodd" d="M5.72714 25.1885L7.443 24.7934C7.76815 24.7183 8.01824 24.6484 8.21838 24.3933C8.46846 24.073 8.5485 23.6729 8.44341 23.2177C8.26846 22.4574 7.69308 22.0522 7.0378 22.2022L5.13688 22.6424L5.23698 23.0627L7.12285 22.6224C7.55302 22.5274 7.92318 22.7975 8.04329 23.3127C8.11335 23.6179 8.06824 23.878 7.90323 24.1031C7.77813 24.2682 7.59306 24.3132 7.32791 24.3732L5.62712 24.7684L5.72714 25.1885Z" fill="white"/>
<path fill-rule="evenodd" clip-rule="evenodd" d="M20.354 8.95109C26.5467 8.95109 31.5942 13.9985 31.5942 20.1912C31.5942 26.3841 26.5467 31.4314 20.354 31.4314C14.161 31.4314 9.11374 26.3841 9.11374 20.1912C9.11374 13.9985 14.161 8.95109 20.354 8.95109Z" fill="white"/>
<path fill-rule="evenodd" clip-rule="evenodd" d="M13.5958 32.407C13.7259 32.1268 13.9561 31.9117 14.2461 31.8067C14.5362 31.7067 14.8514 31.7166 15.1315 31.8466C15.4116 31.9768 15.6217 32.2069 15.7268 32.5019C15.8319 32.7971 15.8218 33.1023 15.6918 33.3874C15.5617 33.6675 15.3316 33.8776 15.0414 33.9827C14.7463 34.0927 14.4362 34.0777 14.151 33.9426C13.8759 33.8126 13.6559 33.5775 13.5558 33.2923C13.4507 33.0022 13.4607 32.6871 13.5958 32.407Z" fill="#231F20"/>
<path fill-rule="evenodd" clip-rule="evenodd" d="M33.55 13.113C33.9152 13.7983 33.7251 14.3837 33.1397 14.6987C32.5546 15.009 31.9643 14.8338 31.5991 14.1484L31.2789 13.5433L33.2298 12.5078L33.55 13.113Z" fill="#231F20"/>
<path fill-rule="evenodd" clip-rule="evenodd" d="M22.1948 6.64001L22.695 6.73012C23.1451 6.81012 23.3401 6.99032 23.2801 7.32043C23.2253 7.64558 23.0051 7.74063 22.5999 7.67053L22.0296 7.57053L22.1948 6.64001Z" fill="#231F20"/>
<path fill-rule="evenodd" clip-rule="evenodd" d="M22.2649 6.2499L22.4199 5.35444L22.83 5.42454C23.1853 5.4897 23.3352 5.63464 23.2801 5.9398C23.2253 6.26495 22.9851 6.38001 22.555 6.30496L22.2649 6.2499Z" fill="#231F20"/>
<path fill-rule="evenodd" clip-rule="evenodd" d="M8.87865 12.0676L8.14331 11.4724L8.3735 11.1922C8.62849 10.8771 8.8536 10.807 9.11875 11.0221C9.3689 11.2223 9.35884 11.4773 9.10875 11.7874L8.87865 12.0676Z" fill="#231F20"/>
<path fill-rule="evenodd" clip-rule="evenodd" d="M22.1197 27.0195C23.9855 25.3887 25.4812 23.1177 27.222 20.1363C27.5923 19.501 27.9274 19.7461 27.5874 20.4014C26.1867 23.0776 24.4309 25.4837 22.4498 27.4846C22.3548 28.0449 22.83 28.3 23.1902 28.285C23.6803 28.265 24.0706 27.7848 24.1857 27.4746C24.936 27.5796 26.1766 27.6347 26.3517 26.8844C26.4166 26.6043 26.3366 26.3342 26.2517 26.089C27.142 25.954 28.2076 25.2836 28.2575 24.3933C28.2725 24.0931 28.0325 23.8429 27.8474 23.6629C28.5478 23.3278 29.603 22.9326 29.463 22.0522C29.4131 21.767 29.0329 21.5569 28.7828 21.3918C29.2729 20.9367 29.9133 20.1864 29.5731 19.616C29.308 19.1709 28.9329 19.1709 28.5678 19.186C28.7979 18.2004 28.9779 17.38 28.3276 17.0499C27.8824 16.8247 27.202 17.2099 27.037 17.8454C26.9469 18.2004 26.6717 18.1004 26.4768 17.9752C25.9216 17.635 25.4513 18.2004 25.2913 18.6406C25.0861 19.2159 25.0612 19.9963 24.9661 20.6015C24.6408 20.5265 24.3709 20.5515 24.1408 20.7015C23.1552 21.3218 23.5803 22.4074 23.5855 23.4128C23.3001 23.3878 22.91 23.4629 22.6999 23.6729C21.7445 24.6133 21.7995 25.8239 22.1197 27.0195Z" fill="#231F20"/>
<path fill-rule="evenodd" clip-rule="evenodd" d="M18.8983 27.3646C16.9974 25.5787 15.0465 23.5729 13.1957 20.5265C12.7954 19.8712 12.4552 20.1213 12.8154 20.8065C14.2711 23.6028 16.4822 25.7638 18.5481 27.8548C18.6532 28.4351 18.158 28.7052 17.7827 28.6902C17.2675 28.6652 16.9774 28.28 16.8574 27.9549C16.0769 28.0699 14.6913 28.185 14.5062 27.3996C14.4412 27.1045 14.5263 26.8244 14.6113 26.5692C13.6808 26.4292 12.4253 25.904 12.3752 24.9735C12.3602 24.6634 12.5504 24.4282 12.7454 24.2431C12.0151 23.888 10.5644 23.5928 10.9146 22.4724C11.0046 22.1822 11.2748 21.9871 11.5349 21.8121C11.0246 21.3368 10.3543 20.7015 10.7445 19.8712C10.8895 19.561 11.3498 19.4361 11.675 19.421C11.4298 18.3954 11.2748 17.5101 11.95 17.1649C12.4153 16.9299 13.1256 17.3051 13.3007 17.9653C13.3957 18.3354 13.6808 18.2305 13.886 18.1004C14.4662 17.7451 14.9564 18.3354 15.1216 18.7956C15.3416 19.3909 15.4817 20.0312 15.5817 20.6665C15.9169 20.5865 16.197 20.6165 16.4421 20.7715C17.4676 21.4168 17.1424 22.6374 17.1325 23.6879C17.4326 23.6629 17.8127 23.7129 18.0328 23.928C19.0283 24.9135 19.2284 26.119 18.8983 27.3646Z" fill="#231F20"/>
<path fill-rule="evenodd" clip-rule="evenodd" d="M20.2689 28.0049L20.1938 24.6933C20.1888 24.3883 20.8041 24.3883 20.8241 24.7234L20.9992 27.9449L21.7395 27.4096C22.0896 27.1595 22.4298 27.5896 22.0946 27.8548L21.4894 28.33C21.3494 28.4401 21.2744 28.5601 21.2544 28.7302C21.2344 28.8553 21.0942 28.9703 20.9692 28.9703H20.1938C20.0188 28.9703 19.9038 28.7302 19.8987 28.5402L18.9233 28.14C18.6131 28.0099 18.9183 27.5547 19.2484 27.6648L20.2689 28.0049Z" fill="#231F20"/>
<path fill-rule="evenodd" clip-rule="evenodd" d="M20.1038 23.958C19.3835 23.5579 18.4981 23.2376 18.0078 22.5323C17.7126 22.1072 17.7077 21.6719 18.0828 21.0367C17.1975 20.6265 16.8973 20.0662 16.9774 19.416C17.0325 18.9408 17.7126 18.6855 18.0979 18.6806C17.6627 17.7602 16.3621 16.5296 17.0524 15.5292C17.2675 15.214 17.6627 14.954 18.0828 15.014C17.4225 14.1837 17.5277 13.5132 17.9729 13.0179C18.368 12.5727 19.0733 12.6078 19.4936 12.7278C19.5536 11.9424 20.0087 11.3523 20.544 11.4272C21.1593 11.5123 21.8296 11.9626 21.6445 12.943C22.0797 13.123 22.6799 13.4781 22.8601 13.9785C23.0251 14.4437 22.8552 15.0189 22.5298 15.4191C22.9451 15.3441 23.2801 15.3791 23.5203 15.7142C23.9906 16.3795 23.4603 17.395 22.97 18.0853C22.8199 18.2954 22.6849 18.6156 22.9352 18.8956C23.1902 19.1909 23.4102 19.601 23.4003 19.9512C23.3653 21.0217 22.6249 20.9867 22.5649 22.2222C22.5199 23.1377 22.0148 23.888 20.7441 24.008L20.5741 16.4946C20.5691 16.1645 19.9888 16.0494 19.9937 16.5647L20.1038 23.958Z" fill="#231F20"/>
</svg>
