<svg width="49" height="48" viewBox="0 0 49 48" fill="none" xmlns="http://www.w3.org/2000/svg">
<path fill-rule="evenodd" clip-rule="evenodd" d="M24.0533 2.27184C36.0288 2.27184 45.7953 12.0384 45.7953 24.0138C45.7953 35.9893 36.0288 45.7559 24.0533 45.7559C12.0777 45.7559 2.31116 35.9893 2.31116 24.0138C2.31116 12.0384 12.0777 2.27184 24.0533 2.27184Z" fill="#231F20"/>
<path fill-rule="evenodd" clip-rule="evenodd" d="M24.0533 3.0939C35.5725 3.0939 44.9728 12.494 44.9728 24.0134C44.9728 35.5328 35.5725 44.9331 24.0533 44.9331C12.5339 44.9331 3.13364 35.5328 3.13364 24.0134C3.13364 12.494 12.5339 3.0939 24.0533 3.0939Z" fill="white"/>
<path fill-rule="evenodd" clip-rule="evenodd" d="M24.0533 3.92255C35.1163 3.92255 44.1445 12.9508 44.1445 24.0137C44.1445 35.0769 35.1163 44.105 24.0533 44.105C12.9901 44.105 3.96191 35.0769 3.96191 24.0137C3.96191 12.9508 12.9901 3.92255 24.0533 3.92255Z" fill="#231F20"/>
<path fill-rule="evenodd" clip-rule="evenodd" d="M36.2208 37.9644L37.8416 36.3976L37.5113 36.0614L36.2628 37.2681L34.0598 34.987L33.6876 35.3412L36.2208 37.9644Z" fill="white"/>
<path fill-rule="evenodd" clip-rule="evenodd" d="M34.0239 39.6211L34.4559 39.3269L32.4211 36.3076L31.9888 36.6017L34.0239 39.6211Z" fill="white"/>
<path fill-rule="evenodd" clip-rule="evenodd" d="M32.1388 39.813C31.8268 40.2452 31.4725 40.5333 31.0763 40.6834C30.29 40.9836 29.5097 40.6354 29.2335 39.9091C28.9515 39.1828 29.2937 38.3903 30.1099 38.0782C30.482 37.9341 30.9024 37.9102 31.4007 37.9762L31.1966 37.4479C30.8304 37.4239 30.3982 37.442 29.9298 37.6221C29.3837 37.8322 28.9995 38.1742 28.7714 38.6545C28.5554 39.1108 28.5311 39.6329 28.7112 40.0891C28.9394 40.6954 29.4377 41.1156 30.0738 41.2537C30.458 41.3317 30.8544 41.3017 31.2446 41.1517C31.6526 40.9956 32.0309 40.7255 32.3491 40.3593L32.1388 39.813Z" fill="white"/>
<path fill-rule="evenodd" clip-rule="evenodd" d="M24.5154 42.6221L25.0318 42.562L24.6895 39.7527L27.4026 42.2678L27.8648 42.2139L27.4207 38.6002L26.9046 38.6603L27.2527 41.4695L24.5214 38.9544L24.0772 39.0084L24.5154 42.6221Z" fill="white"/>
<path fill-rule="evenodd" clip-rule="evenodd" d="M20.1455 38.4205L19.7372 40.4914C19.6651 40.8877 19.6172 41.1999 19.7973 41.5419C20.0254 41.9681 20.4276 42.2503 20.9739 42.3583C21.8982 42.5385 22.6246 42.1061 22.7746 41.3198L23.2249 39.0208L22.7146 38.9188L22.2704 41.1999C22.1684 41.7221 21.6941 41.9982 21.0699 41.8781C20.6977 41.806 20.4336 41.62 20.2715 41.3379C20.1514 41.1218 20.1935 40.8877 20.2535 40.5695L20.6497 38.5166L20.1455 38.4205Z" fill="white"/>
<path fill-rule="evenodd" clip-rule="evenodd" d="M15.4452 38.4261C15.2231 38.8944 15.2052 39.3986 15.3912 39.8907C15.5713 40.359 15.9315 40.7493 16.3996 40.9653C16.88 41.1874 17.3902 41.2174 17.8883 41.0494C18.3686 40.8873 18.7468 40.5391 18.9569 40.0949C19.1789 39.6146 19.197 39.1285 19.0109 38.6303C18.8309 38.1561 18.4647 37.7718 17.9905 37.5497C17.5221 37.3336 17.006 37.3036 16.5198 37.4717C16.0395 37.6338 15.6494 37.9819 15.4452 38.4261Z" fill="white"/>
<path fill-rule="evenodd" clip-rule="evenodd" d="M14.2147 38.7085C13.6864 38.6484 13.2542 38.4863 12.9241 38.2222C12.2758 37.6939 12.1857 36.8416 12.678 36.2352C13.1702 35.6289 14.0227 35.533 14.701 36.0792C15.007 36.3313 15.2412 36.6854 15.4332 37.1477L15.7875 36.7095C15.6254 36.3793 15.3973 36.0132 15.007 35.701C14.5509 35.3289 14.0646 35.1667 13.5304 35.2088C13.0321 35.2507 12.5639 35.4909 12.2578 35.8751C11.8496 36.3733 11.7356 37.0215 11.9337 37.6399C12.0597 38.012 12.2818 38.3362 12.606 38.6003C12.9481 38.8765 13.3683 39.0686 13.8425 39.1646L14.2147 38.7085Z" fill="white"/>
<path fill-rule="evenodd" clip-rule="evenodd" d="M39.9185 28.9778L40.1887 27.7893L39.7203 27.6812L39.5644 28.3476L38.8801 28.1855C38.8261 27.9034 38.8321 27.6513 38.886 27.4051C39.078 26.5828 39.8044 26.1326 40.5667 26.3126C41.3234 26.4867 41.7853 27.2131 41.5933 28.0594C41.5032 28.4496 41.287 28.8098 40.951 29.188L41.5032 29.314C41.7912 28.9419 41.9773 28.5697 42.0676 28.1735C42.1995 27.5972 42.1396 27.087 41.8635 26.6248C41.6052 26.1926 41.185 25.8865 40.7048 25.7724C40.0746 25.6283 39.4382 25.8024 38.9761 26.2526C38.694 26.5227 38.5017 26.877 38.4057 27.3031C38.3157 27.6873 38.3216 28.1315 38.4119 28.6356L39.9185 28.9778Z" fill="white"/>
<path fill-rule="evenodd" clip-rule="evenodd" d="M38.6819 21.3004L38.7299 21.8165L41.5512 21.5706L38.9399 24.1876L38.9761 24.6499L42.6077 24.3317L42.5657 23.8276L39.7445 24.0676L42.3556 21.4325L42.3138 20.9822L38.6819 21.3004Z" fill="white"/>
<path fill-rule="evenodd" clip-rule="evenodd" d="M38.1779 19.5417L38.3216 20.0459L41.8214 19.0377L41.6774 18.5393L38.1779 19.5417Z" fill="white"/>
<path fill-rule="evenodd" clip-rule="evenodd" d="M40.3267 15.2854L39.6966 14.103L36.4788 15.8137L37.109 16.9963C37.3374 17.4286 37.5954 17.7406 37.9616 17.9328C38.4837 18.209 39.1022 18.2028 39.6604 17.9088C40.2124 17.6085 40.5608 17.1042 40.6269 16.5161C40.6689 16.096 40.5549 15.7177 40.3267 15.2854Z" fill="white"/>
<path fill-rule="evenodd" clip-rule="evenodd" d="M34.7261 13.749L36.2029 15.4478L36.5568 15.1417L35.4164 13.8331L37.8117 11.75L37.4754 11.3598L34.7261 13.749Z" fill="white"/>
<path fill-rule="evenodd" clip-rule="evenodd" d="M32.9132 12.1461L33.3215 12.4702L35.5666 9.60085L35.1521 9.27673L32.9132 12.1461Z" fill="white"/>
<path fill-rule="evenodd" clip-rule="evenodd" d="M30.4761 6.68973L29.6178 8.6226C29.4557 8.98878 29.3357 9.27703 29.4377 9.65509C29.5636 10.1232 29.8939 10.4894 30.4041 10.7175C31.2624 11.1018 32.0608 10.8437 32.3911 10.1054L33.3455 7.96841L32.8712 7.75811L31.9228 9.88346C31.7068 10.3635 31.1845 10.5255 30.6023 10.2675C30.2542 10.1175 30.0379 9.87728 29.9479 9.56503C29.8759 9.32503 29.9659 9.10878 30.098 8.81485L30.9504 6.90598L30.4761 6.68973Z" fill="white"/>
<path fill-rule="evenodd" clip-rule="evenodd" d="M25.4759 9.24708L26.7185 9.46308C27.4808 9.60115 28.0031 9.28296 28.1051 8.70078C28.1892 8.23834 27.9549 7.8484 27.4509 7.62622C27.8289 7.56016 28.0449 7.3501 28.1112 6.97179C28.2132 6.38366 27.8829 5.96948 27.1567 5.84329L26.1061 5.65723L25.4759 9.24708Z" fill="white"/>
<path fill-rule="evenodd" clip-rule="evenodd" d="M18.969 9.99707L19.4731 9.88325L18.8368 7.12177L21.8023 9.34288L22.2525 9.2407L21.4301 5.68721L20.9319 5.80721L21.5621 8.55633L18.5907 6.34734L18.1465 6.44952L18.969 9.99707Z" fill="white"/>
<path fill-rule="evenodd" clip-rule="evenodd" d="M16.2496 11.4019L18.2485 10.3815L18.0324 9.96111L16.4957 10.7477L15.9795 9.73299L17.4262 8.99493L17.2161 8.58074L15.7635 9.31905L15.2652 8.33456L16.7599 7.57225L16.5438 7.15806L14.5928 8.15443L16.2496 11.4019Z" fill="white"/>
<path fill-rule="evenodd" clip-rule="evenodd" d="M13.7765 13.2988L15.4994 11.8581L15.1932 11.4978L13.8726 12.6085L13.1402 11.7381L14.3888 10.6937L14.0887 10.3335L12.8401 11.3778L12.1318 10.5314L13.4104 9.4571L13.1162 9.10279L11.4354 10.5074L13.7765 13.2988Z" fill="white"/>
<path fill-rule="evenodd" clip-rule="evenodd" d="M11.5615 15.9761L11.8916 15.5681L10.6249 14.5415L10.7211 14.4215C10.9793 14.1033 11.2794 14.1214 11.7896 14.1691L12.9241 14.2835L13.3203 13.797L11.7296 13.6471C11.5194 13.629 11.3454 13.6171 11.1774 13.6832C11.3574 13.221 11.2673 12.8848 10.9012 12.5847C10.4089 12.1885 9.86867 12.2724 9.40049 12.8487L8.7282 13.6832L11.5615 15.9761Z" fill="white"/>
<path fill-rule="evenodd" clip-rule="evenodd" d="M9.53252 15.9222L9.01632 17.0326L9.45453 17.2367L9.74263 16.6184L10.3849 16.9126C10.3729 17.2068 10.3188 17.4468 10.2109 17.6749C9.85669 18.4372 9.04628 18.7314 8.34402 18.4013C7.63567 18.0713 7.33548 17.2669 7.70169 16.4744C7.86976 16.1142 8.15786 15.8081 8.56012 15.508L8.04981 15.268C7.68971 15.5681 7.43155 15.8982 7.25749 16.2644C7.01133 16.8047 6.96927 17.3087 7.13744 17.8192C7.29953 18.2994 7.64765 18.6893 8.09185 18.8935C8.68017 19.1696 9.34047 19.1275 9.88673 18.7856C10.2168 18.5815 10.4809 18.2752 10.661 17.879C10.8291 17.519 10.9132 17.0865 10.9311 16.5764L9.53252 15.9222Z" fill="white"/>
<path fill-rule="evenodd" clip-rule="evenodd" d="M9.13634 21.7387C9.30441 21.7686 9.47248 21.6607 9.50255 21.4866C9.53859 21.3124 9.42456 21.1503 9.25638 21.1204C9.08232 21.0845 8.92024 21.1924 8.88419 21.3666C8.85422 21.5407 8.96227 21.7026 9.13634 21.7387Z" fill="white"/>
<path fill-rule="evenodd" clip-rule="evenodd" d="M8.90225 24.146C9.17238 23.8759 9.30441 23.5817 9.33447 23.2036C9.38841 22.5554 9.01631 22.093 8.47005 22.045C7.86377 21.991 7.58772 22.2793 7.21544 22.7833C6.89736 23.2036 6.71721 23.4617 6.43517 23.4376C6.18901 23.4197 6.02084 23.1856 6.0509 22.8493C6.07497 22.5613 6.22496 22.3151 6.48911 22.0331L5.90091 21.9851C5.71475 22.2431 5.6068 22.5012 5.58273 22.7833C5.52273 23.4318 5.90091 23.8939 6.45306 23.942C6.97534 23.9899 7.22143 23.6898 7.66573 23.1136C7.94774 22.7415 8.10983 22.5433 8.41601 22.5673C8.70421 22.5913 8.8663 22.8253 8.83025 23.1915C8.80019 23.5457 8.60215 23.8098 8.21788 24.086L8.90225 24.146Z" fill="white"/>
<path fill-rule="evenodd" clip-rule="evenodd" d="M9.07032 25.8503C9.2504 25.8382 9.37651 25.6882 9.36453 25.5141C9.35246 25.34 9.20235 25.208 9.02839 25.22C8.85422 25.2321 8.7221 25.382 8.73408 25.5561C8.75216 25.7302 8.89616 25.8623 9.07032 25.8503Z" fill="white"/>
<path fill-rule="evenodd" clip-rule="evenodd" d="M6.50109 30.0103L8.56012 29.5361C8.9503 29.446 9.2504 29.362 9.49058 29.0559C9.79068 28.6716 9.88672 28.1915 9.76061 27.6452C9.55068 26.7329 8.86022 26.2466 8.07388 26.4267L5.79277 26.9549L5.91289 27.4592L8.17595 26.9309C8.69214 26.8169 9.13634 27.141 9.28046 27.7593C9.36454 28.1255 9.3104 28.4377 9.11239 28.7077C8.96228 28.9058 8.74019 28.9599 8.42201 29.0319L6.38107 29.5061L6.50109 30.0103Z" fill="white"/>
<path fill-rule="evenodd" clip-rule="evenodd" d="M24.0533 10.5256C31.4846 10.5256 37.5415 16.5825 37.5415 24.0138C37.5415 31.4452 31.4846 37.502 24.0533 37.502C16.6217 37.502 10.565 31.4452 10.565 24.0138C10.565 16.5825 16.6217 10.5256 24.0533 10.5256Z" fill="white"/>
<path fill-rule="evenodd" clip-rule="evenodd" d="M15.9435 38.6724C16.0996 38.3361 16.3758 38.0781 16.7238 37.952C17.072 37.832 17.4502 37.844 17.7863 38C18.1224 38.1562 18.3746 38.4323 18.5007 38.7863C18.6268 39.1405 18.6147 39.5067 18.4587 39.8489C18.3026 40.185 18.0265 40.4372 17.6782 40.5632C17.3241 40.6952 16.9519 40.6773 16.6098 40.5152C16.2796 40.3591 16.0156 40.077 15.8954 39.7348C15.7694 39.3867 15.7814 39.0085 15.9435 38.6724Z" fill="#231F20"/>
<path fill-rule="evenodd" clip-rule="evenodd" d="M39.8886 15.5196C40.3267 16.3421 40.0986 17.0445 39.3962 17.4226C38.694 17.7949 37.9856 17.5846 37.5474 16.7622L37.1632 16.036L39.5043 14.7935L39.8886 15.5196Z" fill="#231F20"/>
<path fill-rule="evenodd" clip-rule="evenodd" d="M26.2622 7.75195L26.8625 7.86008C27.4026 7.95608 27.6367 8.17232 27.5647 8.56845C27.4989 8.95863 27.2346 9.07269 26.7484 8.98857L26.0641 8.86857L26.2622 7.75195Z" fill="#231F20"/>
<path fill-rule="evenodd" clip-rule="evenodd" d="M26.3464 7.28392L26.5324 6.20936L27.0246 6.29348C27.4509 6.37167 27.6307 6.54561 27.5647 6.91179C27.4989 7.30198 27.2106 7.44004 26.6945 7.34998L26.3464 7.28392Z" fill="#231F20"/>
<path fill-rule="evenodd" clip-rule="evenodd" d="M10.2829 14.2651L9.40048 13.5508L9.6767 13.2146C9.98269 12.8365 10.2528 12.7524 10.571 13.0105C10.8712 13.2507 10.8591 13.5568 10.559 13.9289L10.2829 14.2651Z" fill="#231F20"/>
<path fill-rule="evenodd" clip-rule="evenodd" d="M26.1722 32.2077C28.4111 30.2507 30.2059 27.5255 32.2949 23.9478C32.7393 23.1855 33.1413 23.4796 32.7333 24.2659C31.0526 27.4774 28.9455 30.3647 26.5683 32.7658C26.4542 33.4382 27.0245 33.7443 27.4568 33.7263C28.0449 33.7023 28.5133 33.126 28.6514 32.7538C29.5517 32.8798 31.0405 32.946 31.2505 32.0456C31.3285 31.7094 31.2325 31.3853 31.1305 31.0911C32.1989 30.9291 33.4776 30.1246 33.5375 29.0562C33.5555 28.696 33.2675 28.3958 33.0453 28.1798C33.8858 27.7776 35.1521 27.3034 34.9841 26.2469C34.9243 25.9047 34.468 25.6526 34.1679 25.4544C34.756 24.9083 35.5245 24.0079 35.1163 23.3235C34.7981 22.7894 34.348 22.7894 33.9098 22.8074C34.1859 21.6248 34.4019 20.6403 33.6216 20.2441C33.0874 19.974 32.2709 20.4361 32.073 21.1987C31.9648 21.6248 31.6345 21.5048 31.4007 21.3546C30.7344 20.9463 30.17 21.6248 29.978 22.153C29.7318 22.8433 29.7019 23.7798 29.5878 24.506C29.1974 24.4161 28.8735 24.446 28.5974 24.6261C27.4147 25.3705 27.9249 26.6731 27.9311 27.8796C27.5887 27.8496 27.1205 27.9397 26.8684 28.1918C25.7219 29.3203 25.7879 30.773 26.1722 32.2077Z" fill="#231F20"/>
<path fill-rule="evenodd" clip-rule="evenodd" d="M22.3065 32.6214C20.0254 30.4784 17.6843 28.0714 15.4633 24.4157C14.983 23.6293 14.5748 23.9295 15.007 24.7518C16.7539 28.1073 19.4071 30.7005 21.8863 33.2097C22.0124 33.906 21.4181 34.2302 20.9678 34.2122C20.3495 34.1821 20.0014 33.72 19.8574 33.3298C18.9208 33.4678 17.2581 33.6059 17.036 32.6635C16.958 32.3094 17.06 31.9732 17.1621 31.667C16.0455 31.4989 14.5389 30.8687 14.4787 29.7521C14.4608 29.38 14.6889 29.0978 14.923 28.8757C14.0466 28.4496 12.3058 28.0953 12.726 26.7508C12.8341 26.4026 13.1582 26.1684 13.4704 25.9584C12.858 25.3881 12.0537 24.6257 12.522 23.6293C12.6959 23.2571 13.2483 23.1072 13.6385 23.0891C13.3443 21.8585 13.1582 20.796 13.9685 20.3818C14.5269 20.0998 15.3792 20.5501 15.5893 21.3423C15.7034 21.7865 16.0455 21.6605 16.2917 21.5044C16.988 21.0781 17.5762 21.7865 17.7744 22.3387C18.0384 23.053 18.2065 23.8214 18.3266 24.5838C18.7288 24.4877 19.065 24.5238 19.3591 24.7098C20.5896 25.4841 20.1994 26.9489 20.1875 28.2094C20.5476 28.1794 21.0037 28.2394 21.2679 28.4975C22.4625 29.6801 22.7026 31.1267 22.3065 32.6214Z" fill="#231F20"/>
<path fill-rule="evenodd" clip-rule="evenodd" d="M23.9512 33.3898L23.8611 29.416C23.8551 29.0499 24.5934 29.0499 24.6175 29.452L24.8276 33.3178L25.7159 32.6755C26.1361 32.3754 26.5443 32.8915 26.142 33.2097L25.4158 33.78C25.2478 33.9121 25.1578 34.0561 25.1338 34.2601C25.1098 34.4103 24.9415 34.5483 24.7915 34.5483H23.8611C23.6511 34.5483 23.5131 34.2601 23.507 34.0321L22.3364 33.5519C21.9642 33.3958 22.3305 32.8495 22.7266 32.9817L23.9512 33.3898Z" fill="#231F20"/>
<path fill-rule="evenodd" clip-rule="evenodd" d="M23.7531 28.5337C22.8887 28.0536 21.8262 27.6693 21.2379 26.8229C20.8837 26.3127 20.8778 25.7904 21.3279 25.0282C20.2655 24.5359 19.9053 23.8636 20.0014 23.0834C20.0675 22.5131 20.8837 22.2068 21.346 22.2008C20.8238 21.0963 19.263 19.6197 20.0914 18.4192C20.3495 18.0409 20.8238 17.7289 21.3279 17.8009C20.5356 16.8046 20.6617 15.9999 21.196 15.4056C21.6702 14.8714 22.5165 14.9135 23.0208 15.0575C23.0928 14.1151 23.639 13.4069 24.2813 13.4968C25.0197 13.5989 25.8241 14.1393 25.6019 15.3158C26.1242 15.5318 26.8444 15.9579 27.0607 16.5584C27.2586 17.1166 27.0547 17.8069 26.6643 18.2871C27.1626 18.197 27.5647 18.2391 27.8529 18.6412C28.4173 19.4396 27.7809 20.6582 27.1926 21.4865C27.0124 21.7387 26.8504 22.1229 27.1507 22.4589C27.4568 22.8132 27.7208 23.3054 27.7089 23.7256C27.6669 25.0102 26.7784 24.9681 26.7064 26.4508C26.6524 27.5494 26.0462 28.4497 24.5214 28.5938L24.3174 19.5777C24.3114 19.1815 23.6151 19.0435 23.621 19.6618L23.7531 28.5337Z" fill="#231F20"/>
</svg>
