<svg width="49" height="48" viewBox="0 0 49 48" fill="none" xmlns="http://www.w3.org/2000/svg">
<g clip-path="url(#clip0_566_420)">
<path fill-rule="evenodd" clip-rule="evenodd" d="M45.6691 38.5288V37.8286H45.967C46.2652 37.8286 46.3644 37.9162 46.3644 38.1787C46.3644 38.3537 46.2652 38.5288 45.967 38.5288H45.6691ZM46.3644 38.7038C46.7619 38.7038 46.9605 38.5288 46.9605 38.1787C46.9605 37.6536 46.4637 37.4785 45.967 37.4785H45.0731V39.5791H45.6691V38.7914H45.8677L46.4637 39.5791H47.159L46.3644 38.7038Z" fill="#231F20"/>
<path d="M43.7458 38.529V38.5265C43.7464 38.013 43.9862 37.5447 44.3847 37.2065C44.7801 36.8701 45.3325 36.6606 45.9607 36.6592H45.9697C46.5502 36.6599 47.1047 36.8698 47.5133 37.2065C47.9218 37.5438 48.1871 38.0109 48.1885 38.5244V38.5316C48.1879 39.0891 47.9225 39.5788 47.5126 39.9279C47.1044 40.2755 46.5512 40.4847 45.9729 40.4861H45.9639C45.3326 40.4854 44.7777 40.2747 44.3806 39.9244C43.9852 39.5756 43.7472 39.0882 43.7458 38.5343V38.529ZM44.0163 38.5265V38.5344C44.0174 39.0237 44.2259 39.4521 44.5715 39.757C44.9185 40.0633 45.4062 40.2473 45.9639 40.2477H45.9729C46.4807 40.2467 46.967 40.0622 47.3258 39.757C47.6848 39.451 47.9176 39.0217 47.918 38.5317V38.5245C47.9166 38.08 47.6848 37.6747 47.3285 37.3801V37.3796C47.3285 37.3796 47.3283 37.3801 47.3285 37.3801V37.3796C46.9688 37.0829 46.4803 36.8979 45.9697 36.8975H45.9607C45.4052 36.8985 44.9178 37.0823 44.5715 37.3772C44.2249 37.6715 44.0167 38.0789 44.0163 38.5265Z" fill="#231F20"/>
<path fill-rule="evenodd" clip-rule="evenodd" d="M21.2317 14.3727C21.331 13.4974 21.927 11.4843 21.8277 12.2719C21.7284 13.8473 22.4238 15.0728 23.5165 16.3855C24.4105 17.3483 25.4039 18.486 26.2981 19.9739C26.8941 21.0245 27.8873 22.4246 27.5894 22.8623C27.2913 23.3 28.4833 21.812 28.8808 21.112C29.4768 19.9739 29.5761 19.2738 29.6754 18.0486C29.8743 16.5607 29.0793 13.3221 29.5761 14.3727C29.8743 14.9853 32.9537 18.6612 33.4504 21.8995C33.7483 23.3874 33.8479 24.3502 33.4504 25.8382C33.053 27.7636 32.5562 28.3763 31.1656 30.3894C30.8674 30.7394 31.4634 27.6761 31.4634 26.8009C31.6623 25.5754 30.5696 29.0765 29.7746 30.3894C29.2782 31.2646 28.9801 31.7897 28.2847 32.5775C27.2913 33.7153 25.1059 35.7283 25.3045 35.3781C25.9999 34.0653 25.9006 33.6277 26.0992 32.9275C26.3974 31.5272 26.3974 30.3894 26.0992 28.8139C25.9006 27.501 25.1059 26.0132 25.2052 25.5754C25.1059 24.6126 24.9073 26.8884 24.7086 27.6761C24.1125 30.3019 22.6224 33.6277 22.7217 34.2403C22.8211 34.4154 21.2317 32.9275 20.5363 31.9647C19.2449 30.3019 18.7482 26.8884 18.6489 27.0635C17.8542 28.3763 18.1522 30.7394 18.2515 31.0019C18.3508 31.2646 17.0594 29.9516 16.5628 29.0765C15.0727 26.7133 15.47 24.7879 16.0661 22.0748C16.4635 20.4991 16.9601 19.9739 17.3575 18.1361C17.5562 17.0858 16.3642 13.8473 17.0594 15.3352C17.5562 16.1231 19.4436 17.611 20.2382 19.0989C20.735 20.0617 21.7284 21.4619 21.8277 21.6371C21.9271 21.9873 22.2251 20.5868 22.2251 19.8865C22.2251 18.9237 21.4303 16.298 21.331 16.1231C21.2317 15.7729 21.1324 14.9853 21.2317 14.3727Z" fill="#EE293D"/>
<path fill-rule="evenodd" clip-rule="evenodd" d="M24.1125 8.59616C24.3112 9.47148 24.5099 9.90914 24.8079 10.7845C25.5033 12.3599 26.8941 12.9725 27.4902 14.7228C27.6887 15.2479 27.788 15.5981 27.788 16.2982C27.9869 17.3485 27.3909 18.8364 27.4902 19.0991C27.5894 19.6243 26.7949 17.9614 26.2981 17.3485C25.7019 16.4735 25.2052 16.1233 24.6093 15.2479C23.9138 14.1977 23.5165 13.4976 23.3179 12.2721C23.0197 11.2218 23.0197 10.6092 23.2185 9.47149C23.3179 8.50869 23.8145 6.5831 23.8145 7.02076C23.8145 7.63336 24.0131 7.98355 24.1125 8.59616Z" fill="#EE293D"/>
<path fill-rule="evenodd" clip-rule="evenodd" d="M42.2915 0.193848C45.1724 0.193848 48.0532 1.85673 48.0532 4.39492C48.0532 12.6221 48.0532 23.3875 48.0532 31.6148C48.0532 34.0654 45.6691 35.3781 42.2915 35.4656C38.9139 35.4656 34.1457 35.4656 34.0464 35.4656V30.477C34.1457 30.477 37.9204 30.477 40.106 30.477C41.3977 30.477 42.0926 29.6017 42.0926 28.6389C42.0926 21.8996 42.0926 14.3728 42.0926 7.02059C42.0926 6.05779 41.1988 5.35771 40.3049 5.35771H8.51629C7.52283 5.35771 6.52954 6.05779 6.52954 7.02059C6.52954 14.285 6.52954 21.8121 6.52954 28.6389C6.52954 29.5142 7.3242 30.4769 8.6156 30.3894C10.8011 30.4769 14.5759 30.4769 14.5759 30.3894V35.3782C14.5759 35.3782 9.70837 35.3782 6.52954 35.3782C3.05273 35.3782 0.66856 34.0654 0.66856 31.6148C0.66856 23.3 0.66856 12.5346 0.66856 4.30745C0.66856 1.76925 3.64862 0.193848 6.43019 0.193848H42.2915Z" fill="#231F20"/>
<path fill-rule="evenodd" clip-rule="evenodd" d="M2.45667 37.3032H6.0328L9.50974 42.5547V37.3032H13.2845V47.8061H9.41043L6.0328 42.6422V47.8061H2.45667V37.3032Z" fill="#231F20"/>
<path fill-rule="evenodd" clip-rule="evenodd" d="M14.5759 47.8062V37.2158H23.9138V40.1042H18.0528V41.592H23.0197V44.0427H17.9535V47.8062H14.5759Z" fill="#231F20"/>
<path fill-rule="evenodd" clip-rule="evenodd" d="M31.2649 37.1284C33.649 37.1284 35.4371 38.7915 35.4371 40.892C35.4371 42.9925 33.649 44.6555 31.2649 44.6555H28.5826V47.8063H25.1059V37.1284H31.2649ZM31.2649 42.0298H28.5826V39.6667H31.0663C31.6623 39.6667 32.3576 40.2793 32.4569 40.892C32.3576 41.5046 31.8609 42.0298 31.2649 42.0298Z" fill="#231F20"/>
<path fill-rule="evenodd" clip-rule="evenodd" d="M38.0201 37.3032H41.497L45.967 47.8061H42.1923L41.653 46.3182H38.01L37.424 47.8061H33.9472L38.0201 37.3032ZM40.8912 44.2176L39.9074 41.5044L38.8382 44.2176H40.8912Z" fill="#231F20"/>
</g>
<defs>
<clipPath id="clip0_566_420">
<rect width="48" height="48" fill="white" transform="translate(0.428528)"/>
</clipPath>
</defs>
</svg>
