<svg width="41" height="41" viewBox="0 0 41 41" fill="none" xmlns="http://www.w3.org/2000/svg">
<g clip-path="url(#clip0_41_243)">
<path fill-rule="evenodd" clip-rule="evenodd" d="M37.9862 32.2874V31.7039H38.2344C38.4829 31.7039 38.5657 31.7769 38.5657 31.9956C38.5657 32.1415 38.4829 32.2874 38.2344 32.2874H37.9862ZM38.5657 32.4333C38.8969 32.4333 39.0623 32.2874 39.0623 31.9956C39.0623 31.5581 38.6484 31.4122 38.2344 31.4122H37.4896V33.1627H37.9862V32.5063H38.1517L38.6484 33.1627H39.2278L38.5657 32.4333Z" fill="#231F20"/>
<path d="M36.3835 32.2874V32.2854C36.3839 31.8575 36.5838 31.4672 36.9159 31.1853C37.2454 30.905 37.7058 30.7304 38.2292 30.7292H38.2367C38.7205 30.7299 39.1826 30.9047 39.523 31.1853C39.8634 31.4664 40.0846 31.8557 40.0857 32.2836V32.2896C40.0852 32.7542 39.864 33.1622 39.5224 33.4531C39.1823 33.7428 38.7213 33.9171 38.2393 33.9183H38.2318C37.7058 33.9177 37.2434 33.7422 36.9124 33.4502C36.5829 33.1596 36.3846 32.7534 36.3835 32.2919V32.2874ZM36.6089 32.2854V32.2919C36.6098 32.6997 36.7836 33.0567 37.0716 33.3107C37.3607 33.566 37.7672 33.7194 38.2318 33.7197H38.2393C38.6625 33.7189 39.0678 33.5651 39.3668 33.3107C39.666 33.0558 39.86 32.698 39.8603 32.2897V32.2837C39.8591 31.9132 39.666 31.5755 39.3691 31.33V31.3296C39.3691 31.3296 39.3688 31.33 39.3691 31.33V31.3296C39.0693 31.0823 38.6622 30.9282 38.2367 30.9279H38.2292C37.7663 30.9287 37.3601 31.0818 37.0716 31.3276C36.7827 31.5728 36.6092 31.9123 36.6089 32.2854Z" fill="#231F20"/>
<path fill-rule="evenodd" clip-rule="evenodd" d="M17.6217 12.1572C17.7045 11.4278 18.2012 9.75021 18.1184 10.4065C18.0356 11.7193 18.6151 12.7406 19.5257 13.8345C20.2707 14.6368 21.0985 15.5849 21.8437 16.8249C22.3404 17.7004 23.168 18.8672 22.9198 19.2319C22.6713 19.5966 23.6647 18.3567 23.9959 17.7733C24.4926 16.8249 24.5754 16.2415 24.6581 15.2205C24.8239 13.9805 24.1614 11.2817 24.5754 12.1572C24.8239 12.6677 27.39 15.731 27.804 18.4295C28.0522 19.6695 28.1352 20.4718 27.804 21.7118C27.4728 23.3163 27.0588 23.8269 25.9 25.5044C25.6515 25.7961 26.1482 23.2434 26.1482 22.514C26.3139 21.4928 25.4033 24.4103 24.7408 25.5044C24.3272 26.2338 24.0787 26.6714 23.4993 27.3279C22.6713 28.276 20.8502 29.9535 21.0157 29.6617C21.5952 28.5677 21.5125 28.203 21.678 27.6195C21.9265 26.4526 21.9265 25.5045 21.678 24.1916C21.5125 23.0975 20.8502 21.8576 20.933 21.4928C20.8502 20.6905 20.6847 22.5869 20.5191 23.2434C20.0223 25.4315 18.7806 28.203 18.8634 28.7135C18.9462 28.8595 17.6217 27.6195 17.0422 26.8172C15.9661 25.4315 15.5521 22.5869 15.4694 22.7329C14.8071 23.8269 15.0554 25.7961 15.1382 26.0149C15.221 26.2337 14.1448 25.1396 13.7309 24.4103C12.4893 22.4411 12.8203 20.8365 13.317 18.5756C13.6482 17.2625 14.062 16.8249 14.3932 15.2934C14.5588 14.4182 13.5654 11.7193 14.1448 12.9593C14.5588 13.6158 16.1316 14.8558 16.7938 16.0957C17.2078 16.898 18.0356 18.0648 18.1184 18.2109C18.2012 18.5027 18.4496 17.3357 18.4496 16.752C18.4496 15.9497 17.7872 13.7616 17.7045 13.6158C17.6217 13.324 17.5389 12.6677 17.6217 12.1572Z" fill="#EE293D"/>
<path fill-rule="evenodd" clip-rule="evenodd" d="M20.0223 7.34323C20.188 8.07267 20.3535 8.43738 20.6019 9.16682C21.1814 10.4797 22.3404 10.9902 22.8371 12.4488C23.0026 12.8864 23.0853 13.1782 23.0853 13.7616C23.2511 14.6368 22.7544 15.8768 22.8371 16.0957C22.9198 16.5333 22.2577 15.1476 21.8437 14.6368C21.3469 13.9077 20.933 13.6158 20.4364 12.8864C19.8568 12.0112 19.5257 11.4278 19.3602 10.4065C19.1117 9.53129 19.1117 9.02079 19.2773 8.07268C19.3602 7.27035 19.774 5.66568 19.774 6.0304C19.774 6.54091 19.9396 6.83273 20.0223 7.34323Z" fill="#EE293D"/>
<path fill-rule="evenodd" clip-rule="evenodd" d="M35.1716 0.341431C37.5723 0.341431 39.973 1.72717 39.973 3.84233C39.973 10.6983 39.973 19.6695 39.973 26.5255C39.973 28.5677 37.9862 29.6617 35.1716 29.7346C32.3569 29.7346 28.3834 29.7346 28.3007 29.7346V25.5773C28.3834 25.5773 31.529 25.5773 33.3503 25.5773C34.4267 25.5773 35.0058 24.8479 35.0058 24.0456C35.0058 18.4295 35.0058 12.1572 35.0058 6.03038C35.0058 5.22805 34.2609 4.64465 33.516 4.64465H7.02553C6.19765 4.64465 5.36991 5.22805 5.36991 6.03038C5.36991 12.084 5.36991 18.3566 5.36991 24.0456C5.36991 24.775 6.03213 25.5773 7.1083 25.5044C8.92958 25.5773 12.0752 25.5773 12.0752 25.5044V29.6617C12.0752 29.6617 8.01894 29.6617 5.36991 29.6617C2.47257 29.6617 0.485762 28.5677 0.485762 26.5255C0.485762 19.5966 0.485762 10.6254 0.485762 3.76943C0.485762 1.65427 2.96915 0.341431 5.28712 0.341431H35.1716Z" fill="#231F20"/>
<path fill-rule="evenodd" clip-rule="evenodd" d="M1.97586 31.2662H4.95596L7.85342 35.6425V31.2662H10.999V40.0186H7.77065L4.95596 35.7154V40.0186H1.97586V31.2662Z" fill="#231F20"/>
<path fill-rule="evenodd" clip-rule="evenodd" d="M12.0752 40.0187V31.1934H19.8568V33.6003H14.9727V34.8402H19.1117V36.8825H14.8899V40.0187H12.0752Z" fill="#231F20"/>
<path fill-rule="evenodd" clip-rule="evenodd" d="M25.9827 31.1204C27.9695 31.1204 29.4595 32.5063 29.4595 34.2567C29.4595 36.0072 27.9695 37.393 25.9827 37.393H23.7475V40.0186H20.8502V31.1204H25.9827ZM25.9827 35.2049H23.7475V33.2356H25.8172C26.3139 33.2356 26.8933 33.7462 26.9761 34.2567C26.8933 34.7673 26.4794 35.2049 25.9827 35.2049Z" fill="#231F20"/>
<path fill-rule="evenodd" clip-rule="evenodd" d="M31.612 31.2662H34.5094L38.2344 40.0186H35.0888L34.6394 38.7787H31.6037L31.1153 40.0186H28.2179L31.612 31.2662ZM34.0047 37.0282L33.1848 34.7672L32.2938 37.0282H34.0047Z" fill="#231F20"/>
</g>
<defs>
<clipPath id="clip0_41_243">
<rect width="40" height="40" fill="white" transform="translate(0.285736 0.179993)"/>
</clipPath>
</defs>
</svg>
