<svg width="49" height="48" viewBox="0 0 49 48" fill="none" xmlns="http://www.w3.org/2000/svg">
<path d="M36.1905 7.5H9.52378C8.81654 7.5 8.13826 7.76973 7.63817 8.24986C7.13807 8.72998 6.85712 9.38117 6.85712 10.0602V19.464C6.85712 33.8025 19.4938 38.5596 22.0238 39.3677C22.5641 39.5441 23.1501 39.5441 23.6905 39.3677C26.2238 38.5596 38.8571 33.8025 38.8571 19.464V10.0602C38.8571 9.38117 38.5762 8.72998 38.0761 8.24986C37.576 7.76973 36.8977 7.5 36.1905 7.5ZM36.1905 19.4672C36.1905 32.0152 25.1321 36.2075 22.8571 36.9371C20.6021 36.2155 9.52378 32.0264 9.52378 19.4672V10.0602H36.1905V19.4672Z" fill="black"/>
</svg>
