<svg width="41" height="41" viewBox="0 0 41 41" fill="none" xmlns="http://www.w3.org/2000/svg">
<path d="M30.0159 6.42999H7.79366C7.20429 6.42999 6.63906 6.65477 6.22232 7.05487C5.80557 7.45498 5.57144 7.99763 5.57144 8.56347V16.4C5.57144 28.3488 16.102 32.313 18.2103 32.9864C18.6606 33.1334 19.1489 33.1334 19.5992 32.9864C21.7103 32.313 32.2381 28.3488 32.2381 16.4V8.56347C32.2381 7.99763 32.004 7.45498 31.5872 7.05487C31.1705 6.65477 30.6053 6.42999 30.0159 6.42999ZM30.0159 16.4026C30.0159 26.8593 20.8006 30.3529 18.9048 30.9609C17.0256 30.3596 7.79366 26.8687 7.79366 16.4026V8.56347H30.0159V16.4026Z" fill="black"/>
</svg>
