<svg width="49" height="44" viewBox="0 0 49 44" fill="none" xmlns="http://www.w3.org/2000/svg">
<path d="M31.6931 25.0769V18.9227C31.6931 18.6507 31.7972 18.3898 31.9824 18.1975C32.1676 18.0051 32.4188 17.897 32.6808 17.897C32.9427 17.897 33.1939 18.0051 33.3792 18.1975C33.5644 18.3898 33.6684 18.6507 33.6684 18.9227V25.0769C33.6684 25.349 33.5644 25.6099 33.3792 25.8022C33.1939 25.9946 32.9427 26.1026 32.6808 26.1026C32.4188 26.1026 32.1676 25.9946 31.9824 25.8022C31.7972 25.6099 31.6931 25.349 31.6931 25.0769ZM36.6314 15.8456C36.3695 15.8456 36.1182 15.9537 35.933 16.1461C35.7478 16.3384 35.6437 16.5993 35.6437 16.8713V27.1283C35.6437 27.4004 35.7478 27.6613 35.933 27.8536C36.1182 28.046 36.3695 28.154 36.6314 28.154C36.8933 28.154 37.1446 28.046 37.3298 27.8536C37.515 27.6613 37.6191 27.4004 37.6191 27.1283V16.8713C37.6191 16.5993 37.515 16.3384 37.3298 16.1461C37.1446 15.9537 36.8933 15.8456 36.6314 15.8456ZM35.387 32.5928C35.476 32.6921 35.5452 32.8088 35.5905 32.9361C35.6358 33.0635 35.6563 33.1988 35.6509 33.3345C35.6454 33.4701 35.6141 33.6032 35.5587 33.7262C35.5033 33.8491 35.425 33.9594 35.3283 34.0507C35.2316 34.142 35.1184 34.2124 34.9952 34.258C34.8721 34.3035 34.7415 34.3231 34.611 34.3159C34.4805 34.3086 34.3527 34.2744 34.235 34.2155C34.1172 34.1565 34.012 34.0739 33.9252 33.9723L28.7302 28.0374V34.3082C28.73 34.5002 28.678 34.6882 28.5801 34.851C28.4822 35.0137 28.3423 35.1447 28.1762 35.229C28.0102 35.3133 27.8247 35.3475 27.6409 35.3277C27.4571 35.308 27.2822 35.2351 27.1363 35.1173L18.5141 28.154H12.9277C12.4038 28.154 11.9014 27.9379 11.5309 27.5532C11.1605 27.1685 10.9524 26.6467 10.9524 26.1026V17.897C10.9524 17.353 11.1605 16.8312 11.5309 16.4465C11.9014 16.0618 12.4038 15.8456 12.9277 15.8456H18.0573L14.1721 11.4069C14.0831 11.3076 14.0139 11.1909 13.9686 11.0635C13.9233 10.9362 13.9028 10.8008 13.9083 10.6652C13.9137 10.5296 13.945 10.3965 14.0004 10.2735C14.0558 10.1506 14.1341 10.0402 14.2308 9.94896C14.3275 9.85768 14.4407 9.78723 14.5639 9.74172C14.687 9.69621 14.8176 9.67652 14.9481 9.68382C15.0786 9.69111 15.2064 9.72523 15.3241 9.7842C15.4419 9.84317 15.5471 9.92582 15.6339 10.0274L35.387 32.5928ZM26.7549 25.7808L19.8536 17.897H12.9277V26.1026H18.8536C19.0734 26.1023 19.2868 26.1786 19.4598 26.3193L26.7549 32.2107V25.7808ZM23.4289 14.475L26.7549 11.7826V19.2792C26.7549 19.5512 26.8589 19.8121 27.0441 20.0044C27.2294 20.1968 27.4806 20.3049 27.7425 20.3049C28.0045 20.3049 28.2557 20.1968 28.4409 20.0044C28.6261 19.8121 28.7302 19.5512 28.7302 19.2792V9.69144C28.73 9.49951 28.678 9.31147 28.5801 9.1487C28.4822 8.98594 28.3423 8.85497 28.1762 8.77069C28.0102 8.68641 27.8247 8.6522 27.6409 8.67195C27.4571 8.6917 27.2822 8.76462 27.1363 8.88241L22.2166 12.857C22.014 13.0254 21.8833 13.2699 21.8529 13.5376C21.8225 13.8053 21.8947 14.0746 22.054 14.2874C22.2133 14.5002 22.4469 14.6393 22.7042 14.6746C22.9615 14.71 23.2218 14.6388 23.4289 14.4763V14.475Z" fill="black"/>
</svg>
