<svg width="41" height="41" viewBox="0 0 41 41" fill="none" xmlns="http://www.w3.org/2000/svg">
<path d="M24.0979 20.3413V14.1871C24.0979 13.9151 24.2019 13.6542 24.3872 13.4619C24.5724 13.2695 24.8236 13.1614 25.0855 13.1614C25.3475 13.1614 25.5987 13.2695 25.7839 13.4619C25.9691 13.6542 26.0732 13.9151 26.0732 14.1871V20.3413C26.0732 20.6134 25.9691 20.8743 25.7839 21.0666C25.5987 21.259 25.3475 21.367 25.0855 21.367C24.8236 21.367 24.5724 21.259 24.3872 21.0666C24.2019 20.8743 24.0979 20.6134 24.0979 20.3413ZM29.0362 11.11C28.7742 11.11 28.523 11.2181 28.3378 11.4105C28.1526 11.6028 28.0485 11.8637 28.0485 12.1357V22.3927C28.0485 22.6648 28.1526 22.9257 28.3378 23.118C28.523 23.3104 28.7742 23.4184 29.0362 23.4184C29.2981 23.4184 29.5493 23.3104 29.7345 23.118C29.9198 22.9257 30.0238 22.6648 30.0238 22.3927V12.1357C30.0238 11.8637 29.9198 11.6028 29.7345 11.4105C29.5493 11.2181 29.2981 11.11 29.0362 11.11ZM27.7917 27.8572C27.8808 27.9565 27.9499 28.0732 27.9952 28.2005C28.0405 28.3279 28.0611 28.4632 28.0556 28.5989C28.0502 28.7345 28.0188 28.8676 27.9635 28.9906C27.9081 29.1135 27.8298 29.2238 27.7331 29.3151C27.6363 29.4064 27.5231 29.4768 27.4 29.5224C27.2769 29.5679 27.1463 29.5876 27.0158 29.5803C26.8852 29.573 26.7574 29.5389 26.6397 29.4799C26.522 29.4209 26.4167 29.3383 26.33 29.2367L21.1349 23.3018V29.5726C21.1348 29.7646 21.0828 29.9526 20.9849 30.1154C20.8869 30.2781 20.747 30.4091 20.581 30.4934C20.4149 30.5777 20.2295 30.6119 20.0456 30.5921C19.8618 30.5724 19.687 30.4995 19.5411 30.3817L10.9189 23.4184H5.33246C4.80857 23.4184 4.30614 23.2023 3.9357 22.8176C3.56526 22.4329 3.35715 21.9111 3.35715 21.367V13.1614C3.35715 12.6174 3.56526 12.0956 3.9357 11.7109C4.30614 11.3262 4.80857 11.11 5.33246 11.11H10.4621L6.5769 6.67132C6.48785 6.57198 6.41867 6.45526 6.37337 6.32794C6.32807 6.20062 6.30755 6.06523 6.31301 5.92962C6.31846 5.79401 6.34978 5.66087 6.40515 5.53792C6.46052 5.41497 6.53883 5.30465 6.63555 5.21337C6.73228 5.12208 6.84548 5.05164 6.96862 5.00612C7.09175 4.96061 7.22235 4.94093 7.35286 4.94822C7.48337 4.95551 7.61118 4.98963 7.7289 5.0486C7.84662 5.10757 7.95189 5.19022 8.03863 5.29176L27.7917 27.8572ZM19.1596 21.0452L12.2584 13.1614H5.33246V21.367H11.2584C11.4781 21.3667 11.6916 21.443 11.8646 21.5837L19.1596 27.4751V21.0452ZM15.8337 9.73945L19.1596 7.04699V14.5436C19.1596 14.8156 19.2637 15.0765 19.4489 15.2689C19.6341 15.4612 19.8853 15.5693 20.1473 15.5693C20.4092 15.5693 20.6604 15.4612 20.8456 15.2689C21.0309 15.0765 21.1349 14.8156 21.1349 14.5436V4.95584C21.1348 4.76391 21.0828 4.57588 20.9849 4.41311C20.8869 4.25034 20.747 4.11937 20.581 4.03509C20.4149 3.95081 20.2295 3.9166 20.0456 3.93635C19.8618 3.9561 19.687 4.02902 19.5411 4.14682L14.6213 8.12141C14.4187 8.28983 14.2881 8.53431 14.2576 8.80198C14.2272 9.06966 14.2995 9.33901 14.4588 9.55179C14.6181 9.76458 14.8516 9.90369 15.1089 9.93905C15.3662 9.9744 15.6266 9.90316 15.8337 9.74073V9.73945Z" fill="black"/>
</svg>
