<svg width="48" height="48" viewBox="0 0 48 48" fill="none" xmlns="http://www.w3.org/2000/svg">
<g clip-path="url(#clip0_566_369)">
<path d="M24.0632 47.8422C37.1684 47.8422 47.8105 37.2001 47.8105 24.0949C47.8421 10.958 37.2 0.315918 24.0632 0.315918C10.9263 0.315918 0.315796 10.958 0.315796 24.0949C0.315796 37.2001 10.9579 47.8422 24.0632 47.8422Z" fill="#BE0F34"/>
<path d="M24.0631 43.421C34.7368 43.421 43.421 34.7684 43.421 24.0631C43.421 13.3579 34.7684 4.73682 24.0631 4.73682C13.3894 4.73682 4.73682 13.3894 4.73682 24.0947C4.73682 34.8 13.3894 43.421 24.0631 43.421Z" fill="white"/>
<path d="M12.4737 11.3369H16.8632V25.4527C16.8632 26.3369 17.1474 27.1264 18.379 27.1264C19.5158 27.1264 19.8632 26.1159 19.8632 25.3264V11.3369H24.2526V24.8843C24.2526 28.0422 22.8316 30.5053 18.3474 30.5053C14.6211 30.5053 12.4737 28.7369 12.4737 24.8843V11.3369Z" fill="#BE0F34"/>
<path d="M25.9895 36.821V18.0947H30.379V33.0631H35.7474V36.821H25.9895Z" fill="#BE0F34"/>
</g>
<defs>
<clipPath id="clip0_566_369">
<rect width="48" height="48" fill="white"/>
</clipPath>
</defs>
</svg>
